<?xml version="1.0" standalone="no"?>
<!DOCTYPE svg PUBLIC "-//W3C//DTD SVG 1.1//EN" "http://www.w3.org/Graphics/SVG/1.1/DTD/svg11.dtd" >
<svg xmlns="http://www.w3.org/2000/svg">
<metadata></metadata>
<defs>
<font id="TIE-WingRegular" horiz-adv-x="1029" >
<font-face units-per-em="2048" ascent="1638" descent="-410" />
<missing-glyph horiz-adv-x="460" />
<glyph horiz-adv-x="0" />
<glyph horiz-adv-x="0" />
<glyph unicode="&#xd;" horiz-adv-x="0" />
<glyph unicode=" "  horiz-adv-x="460" />
<glyph unicode="&#x09;" horiz-adv-x="460" />
<glyph unicode="&#xa0;" horiz-adv-x="460" />
<glyph unicode="!" d="M347 0v96l171 82l162 -84v-94h-333zM347 288v1280h333v-1283l-162 -61z" />
<glyph unicode="&#x22;" horiz-adv-x="835" d="M52 1398q4 74 54 119t122.5 45t118 -48t45.5 -116q0 -120 -64 -198l-236 -256q49 298 16.5 337t-56.5 117zM460 1394q4 74 54 119t122.5 45t118 -48t45.5 -116q0 -120 -64 -198l-236 -256q49 298 16.5 337t-56.5 117z" />
<glyph unicode="#" horiz-adv-x="940" d="M236 660h112v-111h84v111h76v-111h84v111h108v84h-108v71h108v84h-108v113h-84v-109h-76v109h-84v-109h-108v-88h108v-75h-112v-80zM432 740v75h76v-75h-76z" />
<glyph unicode="$" horiz-adv-x="1502" d="M108 88l300 397l-24 33l-86 -8l-15 16l7 25q142 9 151 -25q267 122 293 121v-24q42 17 50 -7l17 24l-51 16l-8 24h8l-25 40q66 -16 59 -40l7 33l35 -17q17 16 41 0l-7 -32l108 8l-10 -8l18 -32l-18 -9h76v17l10 -24l24 7v-7l25 24l-8 -74l-26 26q-7 -26 17 -34l-8 -16 l-9 9l-33 -9l-24 33h-18l50 -49v-16l84 16l16 -32v-16l-24 32l-117 -16l149 -34q-92 34 -158 0l28 -47l292 -357l40 16v24l-192 348l-42 10q60 7 74 -50l176 -324l-58 -33l-326 407l-34 6l-41 42l33 -17l8 9l-8 16h34q17 8 -34 56l-17 -15l-8 7l-34 -7l9 -17l-166 8l-10 -8 q-66 32 -100 0l-400 -414zM124 98l84 28l362 377l12 7l-174 -32l-276 -366zM145 116l61 21l32 35l-65 -14zM195 186l47 65l19 7l-41 -61zM246 258l4 8l120 32l-6 -7zM261 276l71 20l76 88l-79 -18zM318 335l82 15l16 18l-82 -14zM332 322l42 10l18 18l-41 -3zM338 372 l132 29l-2 6l-124 -25zM384 632l49 64h159l32 -24l-7 -25l-67 -31q-34 24 -166 16zM386 429l10 7l28 34h28l6 10l-36 -6zM392 518l6 -16h10v16h-16zM524 744h9l33 17l-16 -24zM533 916q-8 40 25 112l160 406q17 16 132 -32l59 -584l-49 -16h-10l10 -34l-59 17l7 17h-24 l-34 -41h-92l50 49h42l-8 16h-167zM538 918l38 -82l8 -6l192 2l39 37l6 -18l26 9l7 14l27 6l14 -58l9 4l-62 571q-102 48 -122 33l-158 -402q-32 -72 -24 -110zM546 960l179 466h9l-182 -466h-6zM548 914l1 4l105 -12v-4zM646 839l130 545l4 -5l-129 -539zM664 838l20 116 l22 -4l-10 -110zM674 1266l42 -14l-4 -10l-36 17zM678 1276l6 6l40 -14l-6 -8zM683 566h25l17 33l25 -7v14l-25 10l-42 -24v-26zM683 688l9 8l-9 32l9 -15h26l-18 -9q8 -24 25 -24l-7 -24zM689 1292v6l36 -14l-1 -6zM694 1308l18 50l16 -7l-19 -47zM718 566l7 -15l34 7v8 h-41zM719 1368l7 26l19 -6l-13 -26zM720 1103l122 -9v-4zM742 1207l93 -11v-4zM750 720l16 8zM766 566l10 -15h8v15h-18zM766 575h18v17h-18v-17zM766 664h10v8h-10v-8zM791 551h10v7h-10v-7zM791 623h17v9h-17v-9zM791 834q-7 -8 27 -32l42 8l-10 41l-42 -9v9zM801 647h7v9 h-7v-9zM808 623l18 -24q58 0 58 33l33 -9v17l-50 7h-41zM808 640h10v7h-10v-7zM818 656h16v8h-16v-8zM834 1262l20 -2l18 -168l-25 -2zM860 851h15v15h-15v-15zM875 826h9v8h-9v-8zM907 806l19 -32l-9 -7l13 -27l12 -6l13 -15l-17 9l-8 2l-21 34l7 10zM917 616h9v7h-9v-7z M934 616h8v16h-8v-16zM951 713l7 -17zM968 485l8 -17l17 10v7h-25zM974 707l23 3l49 1l32 -3l20 -7l4 -24l-14 -25l4 22l-4 20l-16 12l-46 1h-52zM1034 454l25 6zM1068 454h17h-17zM1088 326l79 32l5 -6l-78 -30zM1096 408l8 -16l49 16l-3 14l-12 -4l6 -18l-11 -5l-15 21z M1099 312l76 29l5 -7l-72 -28zM1147 398l73 -134l20 6l-14 23l-8 -3l-8 16l8 4l-12 28l-11 -3l-9 17l9 4l-29 50zM1167 233l6 -6l71 37zM1184 230l22 -34l6 4l-23 33zM1244 144l21 10l19 -35l-15 -9l-14 18l29 12l-3 4l-29 -13zM1281 96l44 22l13 -29l2 -9l-32 -15z" />
<glyph unicode="%" horiz-adv-x="932" d="M244 932q12 -72 84 -84q34 6 59 28.5t25 54.5t-27 58.5t-57 26.5q-32 0 -55 -25t-29 -59zM276 553h140l244 463h-136zM528 637q10 -74 88 -84q34 5 59 25.5t25 54t-27 61t-64 27.5t-56 -26.5t-25 -57.5z" />
<glyph unicode="&#x26;" horiz-adv-x="1436" d="M46 438v76q265 16 265 -30q16 -76 -31 -92l31 -15q32 121 94 137q158 0 173 -61q32 -122 -78 -168h-95l-79 77q-16 -92 -218 -77l-14 153h-48zM169 331l79 15l-16 31h-63v-46zM169 423h63v30h-63v-30zM184.5 542q9.5 -7 29.5 -4q30 3 90 50q-83 -16 -106 -27.5 t-13.5 -18.5zM189 528q-42 28 102 94l176 14l-25 26l-12 28l22 32l2 13l-78 35l34 350v90q-22 6 -34 38l48 438l-36 16l-14 46l19 24l211 24l13 -38l-95 -64l-58 -6l-40 -400q45 112 107.5 154.5t146 53t170 1.5t131.5 -38t76 -90.5t41 -126.5l11 -22l3 -100l45 -352 l-159 -81l4 -13l16 -14q177 44 187 -6l68 -10q40 -44 -1 -62l-809 -22zM239 172v76h220v-76l-109 -15h78v-46h-64l-30 -92l-64 15zM386 776l325 -122q-20 72 -31 114q-36 129 -63 180.5t-79 67.5q-55 -3 -76 -28q-44 -56 -76 -212zM405 438q-15 -77 33 -107l62 15l-16 107z M408 1174l6 -52q99 6 139.5 -15t70.5 -52t43 -70t44 -287l14 -8l9 442l-128 22zM408 1372l38 318h-10zM418 1164l188 -19l120 -23l-9 -396l-12 104q-12 115 -26.5 157.5t-45.5 75.5t-61.5 48t-65 17t-80.5 5zM418 1220l10 -12l67 8l73 7l100 2l168 -7l108 -10l116 -2l36 -15 l-2 37q-143 53 -526 35q-64 -3 -144 -35zM424 1220l16 11q104 26 324 26q226 0 328 -37l2 -20l-46 10l-152 10l-110 6l-135 2h-96l-80 -8l-47 -7zM426 1182l28 -4h7l5 22l-40 2v-20zM475 96q-31 76 79 152q156 0 172 -60q32 -123 -78 -169q-156 -1 -173 77zM522 1166h20 l8 49l-17 1zM554 172q-16 -76 31 -107l63 15l-15 108zM594 285v229q205 14 220 -30q16 -76 -31 -92q47 16 47 -46l62 168h111l63 -183v-46l-157 46l-32 -46l-78 31q-63 -46 -205 -31zM608 1162l54 -10l12 62l-46 2zM648 1456q85 -10 130.5 -11.5t92.5 -4t57 2t4 14t-25 17.5 t-60 12t-75.5 4t-62 -4t-61.5 -30zM673 331l79 15l-16 31h-63v-46zM673 423h63v30h-63v-30zM744 22v228q64 30 126 -60q0 60 32 60h251v-76h-62v-76h141q-112 106 -32 152h158v-60l-79 -31q94 -91 0 -137h-251l-16 137l-63 15l-15 -152h-48l-78 76v-76h-64zM843 1117l6 -11 l-3 -450l46 -2l3 484h8v68l-60 5v-94zM905 658l13 1q29 270 52.5 325.5t39.5 73.5t42 27t40 9v56l-186 -20zM914 696l2 424l164 23l6 -40q-38 -11 -57.5 -19t-34 -29.5t-32.5 -66t-36 -176.5zM923 1430q8 -38 28.5 -48t34.5 -13t23 7t1 23.5t-23 24.5q-25 17 -64 6zM925 377 h47l-16 76l-31 -30v-46zM930 662l173 88v8q-34 259 -79 246q-52 -34 -64 -98q-4 -25 -16 -103zM950 1432q40 -2 57 -33q7 -13 1.5 -17t-13 -2t-18.5 5t-23 14q-29 27 -4 33zM975 1143h23l20 53l-32 4zM1020 1145l42 -2l18 25l3 24l-44 8zM1088 594q-25 -6 44 -2t145 14 q-10 27 -33.5 25.5t-41.5 -12.5t-53.5 -15t-60.5 -10z" />
<glyph unicode="'" horiz-adv-x="471" d="M52 1398q4 74 54 119t122.5 45t118 -48t45.5 -116q0 -120 -64 -198l-236 -256q49 298 16.5 337t-56.5 117z" />
<glyph unicode="(" horiz-adv-x="727" d="M131 68v1435q0 56 34.5 111.5t90.5 91t116 35.5h56q51 0 103.5 -37.5t88.5 -103.5h-292v-1643h288q-16 -66 -80 -103.5t-112 -37.5h-60q-60 0 -114 36.5t-86.5 95t-32.5 120.5z" />
<glyph unicode=")" horiz-adv-x="725" d="M112 -43h292v1643h-288q26 60 82 100.5t109 40.5h61q48 0 103 -30t92 -86.5t37 -129.5v-1427q0 -60 -31 -119t-85 -96t-116 -37h-61q-49 0 -108 38.5t-87 102.5z" />
<glyph unicode="*" horiz-adv-x="936" d="M256 668l96 -100l113 116l115 -116l96 100l-117 112l117 117l-96 94l-115 -115l-113 115l-96 -94l112 -117z" />
<glyph unicode="+" horiz-adv-x="927" d="M80 666l156 244h624l-142 -244l-378 -1zM348 456v657h240v-657h-240z" />
<glyph unicode="," horiz-adv-x="543" d="M104 254q4 74 54 119t122.5 45t118 -48t45.5 -116q0 -120 -64 -198l-236 -256q49 298 16.5 337t-56.5 117z" />
<glyph unicode="-" horiz-adv-x="927" d="M80 666l156 244h624l-142 -244l-378 -1z" />
<glyph unicode="." horiz-adv-x="571" d="M112 188q4 72 52 118t120 46t120 -51t48 -110.5t-31.5 -105.5t-79.5 -55q-29 0 -57 -7q-123 12 -160 112q0 9 -12 53z" />
<glyph unicode="/" horiz-adv-x="1095" d="M108 -180l697 1929l186 -65l-702 -1928z" />
<glyph unicode="0" d="M32 0l38 70v1318l366 180h523v-1392l-347 -176h-580zM284 492v184l404 244l36 36v-192zM434 175h164v1205h-164v-1205z" />
<glyph unicode="1" horiz-adv-x="505" d="M8 1350l426 222v-1572h-402l38 70v1280h-62z" />
<glyph unicode="2" d="M32 0h927v514h-364v-338h-164v407l527 381l1 1v424l-364 179h-525v-516h361v328h164v-382l-525 -372v-556z" />
<glyph unicode="3" d="M70 0h528l361 176v489l-111 107l110 110l1 506l-367 180h-522v-540h361v352h164v-526h-432l146 -193h286v-486h-164v339h-361v-514z" />
<glyph unicode="4" d="M70 965v421l364 183v-592h164v409l361 182v-1568h-361v583z" />
<glyph unicode="5" d="M70 0v514h361v-338h164v410l-525 378v604h889v-516h-364v328h-164v-378l528 -376v-450l-361 -176h-528z" />
<glyph unicode="6" d="M70 176v1212l366 180h523v-540h-361v352h-164v-1205h164v455h-170l-2 234l532 -166l1 -522l-347 -220v44h-178z" />
<glyph unicode="7" d="M70 1052v516h889v-603l-1 -1l1 -15l-279 -189v-760h-333v767l251 210v403h-164v-328h-364z" />
<glyph unicode="8" d="M70 176v490l90 106l-90 110v504l364 183h164l361 -183v-504l-111 -110l111 -107v-489l-361 -176h-164zM434 176h164v489h-164v-489zM434 865h164v516h-164v-516z" />
<glyph unicode="9" d="M70 0v541h361v-353h164v1206h-164v-456h170l2 -234l-532 166l-1 522l349 180h176l364 -180v-1212l-367 -180h-522z" />
<glyph unicode=":" horiz-adv-x="571" d="M104 932q4 72 52 118t120 46t120 -51t48 -110.5t-31.5 -105.5t-79.5 -55q-29 0 -57 -7q-123 12 -160 112q0 9 -12 53zM108 188q4 72 52 118t120 46t120 -51t48 -110.5t-31.5 -105.5t-79.5 -55q-29 0 -57 -7q-123 12 -160 112q0 9 -12 53z" />
<glyph unicode=";" horiz-adv-x="571" d="M104 190q4 74 54 119t122.5 45t118 -48t45.5 -116q0 -120 -64 -198l-236 -256q49 298 16.5 337t-56.5 117zM104 932q4 72 52 118t120 46t120 -51t48 -110.5t-31.5 -105.5t-79.5 -55q-29 0 -57 -7q-123 12 -160 112q0 9 -12 53z" />
<glyph unicode="&#x3c;" horiz-adv-x="1189" d="M131 514q-15 274 199 430h7q-57 -74 -85 -163l-8 -67q18 -178 150 -232q64 -8 100 32q10 0 38 86v92l-20 60q-54 82 -93 96q7 25 43 61l14 -3q36 -28 60 -75h4q4 32 -11 78l-29 50l86 99l86 -102l-32 -54l-8 -25l-4 -49h8l39 60l25 21q10 4 32 -21l21 -32l-61 -57 l-42 -64q-56 -203 86 -253q78 -7 131 61q37 42 61 142q20 113 -90 259q167 -103 203 -323v-107q-14 -103 -46 -163q-128 -224 -370 -249q-213 -10 -352 121q-135 137 -142 291z" />
<glyph unicode="=" horiz-adv-x="944" d="M80 486l156 244h624l-142 -244l-378 -1zM84 814l156 244h624l-142 -244l-378 -1z" />
<glyph unicode="&#x3e;" horiz-adv-x="1185" d="M128 486q-16 126 30 254l18 32l6 3q-4 14 64 97l41 38q122 90 233 100h128q98 -18 171 -62q195 -121 223 -353q14 -129 -42 -246t-181 -193q-66 -42 -174 -59h-121l-60 11l-6 6l-46 10l-73 38l-52 36l-45 44q-98 118 -114 244zM176 598q-4 -160 38 -228q14 -4 21 7 l-25 69l36 14h2l-10 73q-4 28 10 107l-38 10l22 66l-8 14l-18 -4zM238 782l4 -10l14 -8l44 56h15l17 -21l10 -3q70 68 146 86l-10 45l76 11h4l-4 28l-72 -11l-60 -21l-76 -42q-46 -38 -66 -65h-10zM242 326q-4 -10 20 -36l77 -72l87 -48l112 -28h24v24l-77 10l7 46 q-121 42 -150 86l-24 -28h-14l-45 56zM326 454l44 -77l10 3l26 28q24 10 65 52h11l18 -17l38 -21l24 -7l-21 -114v-21h87l-21 135l52 21l31 28l60 -49h6l36 -35q14 0 48 74v10l-118 38q-10 0 -7 17q11 19 7 49l-7 38q14 0 125 44l-10 28l-35 45v7l-105 -86q-49 42 -83 44 l17 136l-17 3l-73 -3l24 -136q-52 -14 -80 -44h-10l-94 79h-7l-41 -69v-10l128 -46q-10 -7 -7 -79l7 -14l-7 -7h-14q-76 -38 -101 -38zM604 962l3 -24l55 -4l18 -7l-7 -45q122 -38 146 -83l11 3l24 25l14 -17q10 4 34 -38q8 -4 22 10l-22 34h-10l-10 22l-42 41 q-84 63 -226 87zM610 142l63 7q53 14 119 45q28 14 86 69l49 59v10l-14 7l-14 -7l-7 -20l-28 -28h-10l-21 24h-11l-52 -48l-66 -32l-28 -6l8 -38q-28 -18 -70 -18zM916 467l38 -10l-20 -77q14 0 14 -6q14 -3 31 62l14 80q4 70 -7 128l-35 93l-21 -11l24 -68l-30 -11 q-10 -5 -8 -21q20 -28 0 -159z" />
<glyph unicode="?" d="M70 1052v334l364 182h164l361 -182v-421l-1 -1l1 -15l-279 -189v-475l-162 -61l-171 64v479l251 210v403h-164v-328h-364zM347 0v96l171 82l162 -84v-94h-333z" />
<glyph unicode="@" horiz-adv-x="1738" d="M66 858l10 -16zM76 906l8 -16zM104 666l7 -16zM104 818l25 8h9l-9 16l37 8q155 -16 274 0l8 -15l100 7v-7l28 15l27 -15q-8 21 73 15v-24l38 104q190 104 226 -88l-8 -24l45 8l-9 24h26q20 40 46 24h10l-10 16l28 -8l-18 -8l-10 -24l56 -8l-8 -40l25 -24l-25 -16l-56 -72 l-100 -40l-128 24l-55 40q20 -40 -8 -48l8 -48l-17 -24l9 -32l-20 -31l11 -33l-28 -112l10 -8l-20 -112l-91 -24v16l-353 -72l218 586l-20 -10l37 24l-9 16l-18 -16l-18 8q18 18 0 41l-28 -17l28 -56l-10 -15h-18l10 47l-20 -16q10 48 -27 40l27 -64l-8 -80l-165 -456z M104 874l118 600l180 -480q20 -32 -35 -120l-145 -8zM111 618l10 -16zM121 570l8 -16zM121 1140l8 -18zM129 522l9 -16zM129 1186l9 -16zM138 1235l10 -17zM148 1283l8 -15zM156 1330l10 -16zM166 1378l10 -16zM176 290l8 -16zM176 1426l8 -15zM184 242l10 -16zM184 1474 l10 -15zM194 194l8 -16zM202 1530l20 8zM250 1498v8l345 -71l-9 15l108 -30l64 -402q18 -40 -37 -80l-108 -32l-18 -16l-72 9l7 24h-18l-36 -41h-28v-16l-8 -8v32l45 25l-9 8l9 23h-27v41q-100 191 -208 511zM302 1506l20 8zM394 826h8v9h-8v-9zM394 858l18 8zM394 882 l28 33v8l-20 -8l28 47l18 -16l-26 -64l-10 8zM422 722l18 8zM422 923l18 7v8h-18v-15zM448 818h20v8h-20v-8zM458 930l10 -24zM468 978h17v9h-17v-9zM476 1466l19 8zM485 714h18v8h-18v-8zM495 802h8v9h-8v-9zM495 954h17l11 33l25 -25l120 385l18 25l-10 39l-45 -143h-18 l7 -25l-17 -8l10 -17l-18 -8l8 -16l-17 -8l9 -16l-19 -8l10 -16l-18 -6l8 -25l-46 -63v-18l18 8l-8 -15l-10 7l-35 -64v-16zM512 690h11v18h-11v-18zM523 674h7v9h-7v-9zM523 938h17v24l-17 -8v-16zM530 1010l10 -16zM540 666l128 -336v-40l18 8l-128 368h-18zM558 1115h10 v7h-10v-7zM620 258h11v8h-11v-8zM729 804l6 -14l16 -15l14 34l-14 14zM749 923l21 -24l18 11l6 34l-22 -4zM761 853.5q1 -11.5 6 -22.5q9 -20 41 -20t32 37q0 32 -40 50q-2 -6 -12 -9.5t-19 -13.5t-8 -21.5zM808 910l26 -15l39 31l-16 14l-35 9zM848 818l36 -26l14 20l2 26 l-47 2zM848 885l8 -24l48 4l-6 25l-17 22zM867 722l27 8v8l-27 -8v-8zM886 1042v10l36 -10h-36zM894 754l10 -24q28 0 36 32q20 -16 74 40l-9 40l-28 -31h-45l-18 -49zM977 1010v17l45 -17h-45zM1032 994l46 -32q-46 -8 -46 32zM1040 811l38 7v8l-38 -8v-7zM1068 786h28 l-8 16h-20v-16zM1113 722l10 -24zM1113 1003l10 -16zM1123 650l9 -24zM1123 1074l9 -16zM1132 578l8 -24zM1132 794v56l18 24l-18 -8l91 745l27 -49l-9 -32h19l91 -384l-10 -31l18 7l-8 -55l18 -9l-10 -128l-25 -72l35 8l-10 40l20 17q-29 39 17 55l-17 32l27 -23l-146 600 l-37 31l10 18l347 -138v-24l-10 10l-128 -466v-15q46 1 17 -57l20 8l109 505l54 -553l-37 -496l-17 -56q18 -16 0 -128l-101 448l-17 56v-95l110 -449l-347 -145v9l-10 56l10 -16q35 0 35 40l128 536l28 64v17l-37 -9l19 -8l-19 -8l9 -24l-27 16l-146 -600zM1132 1146l8 -24 zM1140 506l10 -15zM1140 826h10v9h-10v-9zM1140 1218l10 -24zM1150 434l10 -16zM1150 842l184 8v8h-184v-16zM1150 1290l10 -22zM1160 370l8 -24zM1160 1355l8 -17zM1168 298l10 -24zM1168 1426l10 -15zM1178 226l8 -24zM1178 1498l8 -24zM1186 154l10 -24zM1186 1562 l10 -14zM1196 82l10 -16zM1196 1636l10 -18zM1206 1642l17 8zM1260 1459h8v7h-8v-7zM1268 1420h10v6h-10v-6zM1278 1378h8v8h-8v-8zM1351 786h8v8h-8v-8zM1359 747h10v7h-10v-7zM1369 762h10v10h-10v-10zM1379 674v16v-16zM1379 850h27v-15l18 7l-28 73l10 -9l26 48 q-26 8 -18 40l-8 -48h-19q19 -6 -8 -47v-49zM1414 874l37 16v9l-37 -17v-8zM1424 786h8v8h-8v-8zM1424 818h8v8h-8v-8zM1424 906h18v24l-18 -15v-9zM1432 772l19 6v8h-19v-14zM1442 850l17 8v32l-17 -16v-24zM1451 674h8v9h-8v-9zM1451 826h8v9h-8v-9zM1451 906h8v9h-8v-9z M1459 850h11v8h-11v-8zM1459 923h20v7h-20v-7zM1470 818h9v8h-9v-8zM1479 826h8v9h-8v-9zM1524 858h8v8h-8v-8zM1552 858h8v8h-8v-8z" />
<glyph unicode="A" d="M32 0l38 70v1318l364 181h164l361 -181v-1388h-361v516h-164v-516h-402zM434 716h164v665h-164v-665z" />
<glyph unicode="B" d="M32 0l38 70v1499h528l361 -183v-504l-111 -110l111 -107v-489l-361 -176h-566zM434 176h164v489h-164v-489zM434 865h164v516h-164v-516z" />
<glyph unicode="C" d="M32 0l38 70v1318l366 180h523v-540h-361v352h-164v-1205h164v339h361v-338l-347 -220v44h-580z" />
<glyph unicode="D" d="M32 0l38 70v1499h528l361 -183v-1210l-347 -176h-580zM434 175h164v1205h-164v-1205z" />
<glyph unicode="E" d="M32 0l38 70v1318l366 180h523v-540h-361v352h-164v-526h432l-146 -193h-286v-486h164v339h361v-514h-927z" />
<glyph unicode="F" d="M32 0l38 70v1318l367 180h970l-415 -252h-558v-192h428l-130 -178h-298v-946h-402z" />
<glyph unicode="G" d="M32 0l38 70v1318l366 180h523v-540h-361v352h-164v-1205h164v533l-86 -44v200h447v-688l-347 -220v44h-580z" />
<glyph unicode="H" d="M32 0l38 70v1499h364v-704h164v704l361 -1v-1568h-361v665h-164v-665h-402z" />
<glyph unicode="I" horiz-adv-x="505" d="M32 0l38 70v1318l364 184v-1572h-402z" />
<glyph unicode="J" d="M70 0h523v50l366 196v1323h-364v-1365h-164v134l-361 176v-514z" />
<glyph unicode="K" d="M32 0l38 70v1499h364v-704h164v516l361 198v-698l-111 -109l111 -108v-795l-361 281v515h-164v-665h-402z" />
<glyph unicode="L" d="M70 246v1323h364v-1365h164v134l361 176v-514h-523v50z" />
<glyph unicode="M" horiz-adv-x="1557" d="M32 0l38 70v1316l361 183h693l361 -183v-1386h-361v1380h-164v-1380h-364v1380h-165v-1380h-399z" />
<glyph unicode="N" d="M32 0l38 70v1499h528l361 -183v-1386h-361v1380h-164v-1380h-402z" />
<glyph unicode="O" d="M32 0l38 70v1318l366 180h523v-1392l-347 -176h-580zM434 175h164v1205h-164v-1205z" />
<glyph unicode="P" d="M32 0l38 70v1499h528l361 -183v-533l-361 -188h-164v-665h-402zM434 865h164v516h-164v-516z" />
<glyph unicode="Q" d="M32 0l38 70v1318l366 180h523v-1774l-347 206h-580zM434 175l164 87v1118h-164v-1205z" />
<glyph unicode="R" d="M32 0l38 70v1499h528l361 -183v-505l-111 -109l111 -108v-795l-361 281v515h-164v-665h-402zM434 865h164v516h-164v-516z" />
<glyph unicode="S" d="M32 0l38 70v444h364v-338h164v407l-528 381v425l364 179h525v-516h-361v328h-164v-382l525 -372v-450l-361 -176h-566z" />
<glyph unicode="T" d="M0 1316v253h1404v-21l-457 -232h-305v-1316h-402l38 70v1246h-278z" />
<glyph unicode="U" d="M70 0h528l361 181v1388h-361v-1177h-164v1177h-364v-1569z" />
<glyph unicode="V" d="M32 1569l38 -70l-2 -1055l476 -328v-116l412 280l3 1289h-361v-1177h-164v1177h-402z" />
<glyph unicode="W" horiz-adv-x="1557" d="M70 183l361 -183h693l361 183v1205l-361 181v-1177h-164v692l-364 200v-892h-165v1177l-361 -181v-1205z" />
<glyph unicode="X" d="M32 0l38 70v575l242 147l-242 173v604h364v-593l86 -60l78 61v592l361 -1v-619l-233 -157l233 -166v-626h-361v583l-80 63l-84 -63v-583h-402z" />
<glyph unicode="Y" d="M70 965v604h364v-593l86 -60l78 61v592l361 -1v-619l-279 -189v-760h-333v767z" />
<glyph unicode="Z" d="M32 0h927v514h-361v-338h-164v410l524 378l1 1v603h-889v-516h364v328h164v-378l-528 -376v-556z" />
<glyph unicode="[" horiz-adv-x="1303" d="M62 82v50l17 -34q35 36 85 0q0 52 50 52l86 -88l18 20l-34 68h85v-36l51 36l-18 -88h35l15 88l19 -68l33 68q102 0 120 -88l33 36l-51 52h101q18 -68 120 -18l-34 -34q-119 52 -169 -54h-238l-36 70l-32 -70h-206v38h-50zM66 354l46 58h70v-210h-51v140l-42 -20zM162 546 l60 122q-190 146 -58 304t488 176q446 -2 566 -230q18 -154 -99 -263l57 -127l-81 112l-150 -72l-219 -33q-35 -105 -69 -89q-68 122 -135 106l-136 16l-144 81zM164 62h84l-15 52q-50 19 -69 -32v-20zM164 866l52 -25q-104 -11 -2 -133h34l34 86l222 44v28l-234 56z M182 901l118 87l50 -52l154 -18l76 70l36 -1l-10 -51h120v52l52 -1l14 -48l58 -18l182 15l-17 34q67 0 169 -86q18 34 -102 138l-220 88h-51v-36l-121 54l-16 -70l-17 35l-51 35l-102 -70l34 52l-204 -52l52 -52l-112 24l-92 -94v-35zM199 254q-16 124 34 176h51 q-52 -52 -36 -176q16 -16 121 176h69l84 -140v140h50v-158h-50l33 -70l-55 2l-98 156l-84 -158q-104 -18 -119 52zM265 692l19 -52l66 33l-16 -52l137 -53h67l-16 37l84 -53v193l-84 -19q0 87 -136 54l-68 -18zM504 62h68v52l-68 -16v-36zM589 272v88h51v-88h-51zM657 202 v158h50v-158h-50zM690 44l17 38l104 -20v36l16 -16h35v50l17 -70l66 70l19 -50l51 68q84 -16 84 -52v-54l-135 18l-19 -18v38l-51 -38l-168 18zM726 202q-34 52 67 228h171l84 -210l102 192h85v-52h-51l-67 -122l118 -2l-2 -32zM726 552l101 53l-16 -37l186 37l85 51 q-50 124 -169 124h-86l-16 -54l-77 20l-8 -54v-140zM778 238h186l-34 140l-108 1l-44 -107v-34zM810 838l238 -41l51 -105l85 88v51h-50l40 35l-85 38l-279 -42v-24zM997 62h85l-16 52l-69 -16v-36zM1117 44l17 106v-68l84 68l52 -88l-86 52l-16 -70h-51z" />
<glyph unicode="\" horiz-adv-x="1007" d="M112 1684l185 65l699 -1929l-185 -64z" />
<glyph unicode="]" horiz-adv-x="1685" d="M46 417v242l170 170h226l161 -176l-169 163h-213l-163 -163v-231l154 -170h230l154 160l-146 -170h-242zM142 438v196l130 136h186l106 -118l-111 104h-175l-126 -134v-173l122 -138h182l100 93l-89 -102h-203zM224 480l8 34l121 -42l-8 -34zM260 610h58l116 -130v136h33 v-178h-49zM490 557l50 59h40v-178h-24v136l-33 -34zM603 616h43l64 -127l64 135h90v-33h-25v-153h-32v153h-13l-68 -153h-41zM880 489q-16 85 32 135h32q-56 -94 -16 -152q8 -10 89 152h51l96 -183h-53l-69 141l-82 -144h-53zM1170 438v75h138l106 -73h-68l-62 40h-80v-42 h-34zM1172 544v87h33v-43h89l64 43h52l-116 -87h-122zM1402 591l36 33h178l-146 -186h-40l122 153h-150z" />
<glyph unicode="^" horiz-adv-x="712" d="M108 1313l248 247l248 -252l-72 -69l-176 172l-176 -172z" />
<glyph unicode="_" horiz-adv-x="903" d="M19 -5h869v-139h-869v139z" />
<glyph unicode="`" horiz-adv-x="528" d="M104 1489l72 75l248 -247l-72 -78z" />
<glyph unicode="a" d="M32 0l38 70v1318l364 181h164l361 -181v-1388h-361v516h-164v-516h-402zM434 716h164v665h-164v-665z" />
<glyph unicode="b" d="M32 0l38 70v1499h528l361 -183v-504l-111 -110l111 -107v-489l-361 -176h-566zM434 176h164v489h-164v-489zM434 865h164v516h-164v-516z" />
<glyph unicode="c" d="M32 0l38 70v1318l366 180h523v-540h-361v352h-164v-1205h164v339h361v-338l-347 -220v44h-580z" />
<glyph unicode="d" d="M32 0l38 70v1499h528l361 -183v-1210l-347 -176h-580zM434 175h164v1205h-164v-1205z" />
<glyph unicode="e" d="M32 0l38 70v1318l366 180h523v-540h-361v352h-164v-526h432l-146 -193h-286v-486h164v339h361v-514h-927z" />
<glyph unicode="f" d="M32 0l38 70v1318l367 180h970l-415 -252h-558v-192h428l-130 -178h-298v-946h-402z" />
<glyph unicode="g" d="M32 0l38 70v1318l366 180h523v-540h-361v352h-164v-1205h164v533l-86 -44v200h447v-688l-347 -220v44h-580z" />
<glyph unicode="h" d="M32 0l38 70v1499h364v-704h164v704l361 -1v-1568h-361v665h-164v-665h-402z" />
<glyph unicode="i" horiz-adv-x="505" d="M32 0l38 70v1318l364 184v-1572h-402z" />
<glyph unicode="j" d="M70 0h523v50l366 196v1323h-364v-1365h-164v134l-361 176v-514z" />
<glyph unicode="k" d="M32 0l38 70v1499h364v-704h164v516l361 198v-698l-111 -109l111 -108v-795l-361 281v515h-164v-665h-402z" />
<glyph unicode="l" d="M70 246v1323h364v-1365h164v134l361 176v-514h-523v50z" />
<glyph unicode="m" horiz-adv-x="1557" d="M32 0l38 70v1316l361 183h693l361 -183v-1386h-361v1380h-164v-1380h-364v1380h-165v-1380h-399z" />
<glyph unicode="n" d="M32 0l38 70v1499h528l361 -183v-1386h-361v1380h-164v-1380h-402z" />
<glyph unicode="o" d="M32 0l38 70v1318l366 180h523v-1392l-347 -176h-580zM434 175h164v1205h-164v-1205z" />
<glyph unicode="p" d="M32 0l38 70v1499h528l361 -183v-533l-361 -188h-164v-665h-402zM434 865h164v516h-164v-516z" />
<glyph unicode="q" d="M32 0l38 70v1318l366 180h523v-1774l-347 206h-580zM434 175l164 87v1118h-164v-1205z" />
<glyph unicode="r" d="M32 0l38 70v1499h528l361 -183v-505l-111 -109l111 -108v-795l-361 281v515h-164v-665h-402zM434 865h164v516h-164v-516z" />
<glyph unicode="s" d="M32 0l38 70v444h364v-338h164v407l-528 381v425l364 179h525v-516h-361v328h-164v-382l525 -372v-450l-361 -176h-566z" />
<glyph unicode="t" d="M0 1316v253h1404v-21l-457 -232h-305v-1316h-402l38 70v1246h-278z" />
<glyph unicode="u" d="M70 0h528l361 181v1388h-361v-1177h-164v1177h-364v-1569z" />
<glyph unicode="v" d="M32 1569l38 -70l-2 -1055l476 -328v-116l412 280l3 1289h-361v-1177h-164v1177h-402z" />
<glyph unicode="w" horiz-adv-x="1557" d="M70 183l361 -183h693l361 183v1205l-361 181v-1177h-164v692l-364 200v-892h-165v1177l-361 -181v-1205z" />
<glyph unicode="x" d="M32 0l38 70v575l242 147l-242 173v604h364v-593l86 -60l78 61v592l361 -1v-619l-233 -157l233 -166v-626h-361v583l-80 63l-84 -63v-583h-402z" />
<glyph unicode="y" d="M70 965v604h364v-593l86 -60l78 61v592l361 -1v-619l-279 -189v-760h-333v767z" />
<glyph unicode="z" d="M32 0h927v514h-361v-338h-164v410l524 378l1 1v603h-889v-516h364v328h164v-378l-528 -376v-556z" />
<glyph unicode="{" horiz-adv-x="1437" d="M45 32v1534h353v-1179h972v-355h-1325zM134 190l28 -30l50 -4q18 12 40 56q29 12 34 0v-16l-21 -6l-1 -34q34 -4 50 40q4 37 -23 56l-50 1q-49 -80 -73 -60v25l28 6v34l-39 -2l-23 -26v-40zM134 1104q-6 -40 34 -62l144 2l-1 38h-137q-12 28 5 34h135v33h-152l-10 -5z M136 803l4 -30l18 -29l49 -1l1 35l-40 6v26h118v-22l-33 -10l-1 -35h46l16 28q14 73 -50 85q-120 15 -128 -53zM140 438l33 1q55 21 135 33v52l-134 33h-34v-35l33 -6l2 -32l-34 -10zM140 1318h34l1 52l137 2l1 36h-168l-5 -10v-80zM202 510l1 -21l61 9zM421 94h45 q11 108 84 85q12 -75 -12 -91v6h52q-12 28 5 232l-39 -23l-6 -33l-106 -154l-23 -16v-6zM515 204l3 -9l33 -1l6 5l18 75l-8 2zM590 1522l5 11l11 -11l28 -12l6 -40l124 -152h16q-6 -40 34 -34l28 34q4 -16 78 -11l18 63l-12 33l40 79h33l56 -45v-62l-45 -79v-12l34 -5l40 5 l17 -16l27 22l62 12l50 28l118 90l-11 -40l-39 -50h-22q-22 -34 -50 -46l-112 -22l-62 -39q-24 -57 50 -339l5 -243l-5 -50q16 -11 16 -135l-4 -40l-12 -6h-18l-5 28l5 96l-10 6v96l-22 12q22 22 22 44q0 118 -29 158l-89 -11q-112 12 -158 0l-140 -423l-17 -18h-17l-12 46 l35 45l28 57l5 84l16 28l18 68l28 34l22 84l-10 6l-12 141q22 85 28 221q16 12 12 50l-18 17l-33 5q-91 113 -119 119q12 17 -27 63l5 39zM634 1680q28 0 28 -12l34 -79h28l22 23l28 6v28l-33 78l11 28l28 -33q0 -57 28 -97q56 -5 90 12l18 40q-24 74 -6 84l16 -10v-108 l56 -6v-12h45l39 91l12 -5l-28 -96l39 -12l5 -11h34l18 33h22q0 -34 -22 -38q-16 -34 16 -51l74 -35l72 68h18l-34 -56q-40 -6 -40 -34l34 -28q6 -33 -18 -40q-96 52 -78 80l-44 17q-40 50 -84 79l-18 -6l-22 11h-51v11l-55 -11h-152l-58 -17q-10 -28 -44 -17l6 45 q-40 62 -34 80zM740 102h27l30 63l31 42l8 -6l12 -3l10 14l1 17l-26 2l-13 -19l-26 -33l-2 7l10 27l1 18h-25l-20 -19l2 -10l14 13l8 -5l-10 -30zM978 94l32 6l34 34v10l-39 -22l33 90h34v18h-28l11 34h-17l-11 -34l-33 -6v-12h16l-22 -72l-10 -12v-34zM1080 1734v24l17 -2 l5 -8zM1171 1640l11 28l12 1l32 33h16l2 -16l-26 -28l-14 -1l-16 -17h-17zM1179 122l11 -22h34l28 40q11 5 -22 62l6 16q28 6 32 -16l6 5l-6 28l-38 -5l-18 -23v-39q28 -34 18 -52q-34 -5 -46 12zM1281 450v11h33v-11l-10 -2l-2 -29h-10l1 29zM1320 418v43h11l13 -16l14 16 h11v-43h-11v14l-14 -14l-13 14l-1 -14h-10z" />
<glyph unicode="|" horiz-adv-x="1541" d="M41 62q-3 18 11 70l109 337q12 23 50 25h250v8l-7 7l3 11h114l-1 -12h-33l-4 -26h-17l4 29l-44 -1l-4 -4l10 -7l5 -8l-7 -10l-268 -1l-34 -20l-115 -372q1 -34 19 -32l1375 -2l19 18l-2 20l-118 374l-24 12h-208v12h204q26 -4 42 -24l121 -382q6 -40 -26 -44l-1405 -2 q-16 6 -19 24zM152 96l38 144h-34q7 34 14 26l149 -1l11 -5l8 1l-30 -165h-54l32 143l-24 1h-26l-34 -144h-50zM263 304l18 60l27 20q-34 12 -8 62h42l-8 -50l16 4l7 46h39l-1 -37q-1 -29 -31 -41q26 -8 8 -66h-46q19 54 8 58l-15 -17l-7 -39h-49zM326 96l27 148l49 21h62 l-6 -57h-48l4 34l-19 -2l-4 -32v-13h48l-21 -24h-34l-8 -45v-4l21 -1l5 37h47l-9 -62h-114zM402 364l11 24h52l-7 -24h-56zM489 327l11 94l38 25l8 -4l-12 -110l18 -1l9 90l11 5l30 -26l-6 -68h18l8 110h11l31 -25l-4 -99l-46 -20h-42l-49 4zM533 92l17 148l38 21h128l8 -9 v-164h-46l6 149l-66 -1l-26 -4v-12h60l-28 -37l-2 9h-30l-8 -100h-51zM572 483l23 37h25l17 -29v-8q-19 -5 -17 5h-26l-5 -6zM603 496h14l-5 16h-7zM656 483l4 37q50 0 57 -6t3 -23h30l-1 -10h-35l-40 18l2 -17zM678 504h27l-1 9l-26 -1v-8zM682 298l8 144h38v-144h-46z M746 92v144l38 25h72v-57h-45l4 36h-23l4 -123l22 5l-3 49q-19 1 -11 21l56 -1v-82l-34 -21zM754 298l4 144q64 8 98 -21l8 -115v-8h-46v128l-18 -5v-122zM770 508v12l10 -2l12 -19l12 21h14l16 -21l11 21h16l-13 -40h-19l-15 24l-10 -24h-18zM868 480l19 40h24l25 -39h-16 l-6 7h-26l-2 -9zM876 252v9h45l3 -67h23l-3 67l40 -1l16 -168h-48v79l-24 -5l4 -74h-49zM883 421l34 21h65l2 -21l-2 -29h-38q4 8 0 29h-19l7 -99h20v39l-12 3v20h46l7 -32q3 -46 -35 -54h-71q4 16 -4 123zM898 495h12l-4 17h-8v-17zM951 520h47q24 -10 10 -26l8 -3l34 4 l-12 13l4 12h56l-1 -9h-39l2 -7l10 -6l6 -10l-4 -8h-67l-38 16l1 -14h-16zM966 504h28v8h-28v-8zM1004 261h160l-12 -15l-16 -10h-52l19 -144h-45l-14 142h-39zM1078 424h23l13 -72l12 -9l7 9l-11 74l25 -2l17 -81l-31 -37l-23 24l-23 16zM1138 232l38 32l60 1l9 -41l3 -16 h-46l3 4l-3 32l-24 -4l8 -45h54l-12 -23l-34 -1l6 -49h24l-4 36h42l12 -64l-118 -2l3 21zM1164 413l23 12l41 1l6 -25l-29 -1v13l-15 -4l4 -25l49 -20l6 -35l-23 -16l-48 2l-3 20l3 8q26 3 28 -11l14 3v21l-11 12l-41 16zM1262 249v16q116 9 122 -61l-2 -26q16 -6 16 -20 l15 -70l-49 29l-14 54h-24l17 -75h-47q-8 66 -34 153zM1262 318v9h12v-9h-12zM1308 240l11 -43h23l-12 45z" />
<glyph unicode="}" horiz-adv-x="1604" d="M30 374h124l62 -132l33 132h115l-90 -306h-114zM30 414v92h222q70 -2 18 33q-85 68 -72.5 124.5t79.5 56.5h473v-90h-112v-216h-116v216h-138q-63 4 -19 -30q80 -60 78.5 -117t-78.5 -69h-335zM313 198l51 176l50 -132l50 132h124l-116 -306h-114zM496 68l116 306h176 l117 -306h-133l-22 55h-105l-22 -55h-127zM650 182h98l-46 122zM698 414l117 306h175l118 -306h-134l-22 56h-104l-23 -56h-127zM851 528h97l-46 121zM910 68v306h231q82 -4 109 -62q24 -101 -93 -124l27 -30h180q70 -2 18 34q-85 69 -72.5 125.5t80.5 56.5h192v-92h-86 q-62 4 -18 -30q80 -60 78 -116t-78 -68h-328l-112 101v-101h-128zM1038 244h89q22 0 25 28q-2 17 -10 22q-10 6 -16 6h-88v-56zM1130 414v306h228q85 -6 111 -62q16 -68 -30 -100q-21 -14 -63 -22l26 -30h180v-92h-213l-112 102v-102h-127zM1255 590h89q21 0 24 27 q-3 29 -24 29h-89v-56z" />
<glyph unicode="~" horiz-adv-x="884" d="M112 1313l248 247l176 -176l176 176l72 -71l-248 -250l-176 172l-176 -172z" />
<glyph unicode="&#xa1;" d="M347 -104h333v1283l-162 61l-171 -64v-1280zM347 1368l171 -82l162 84v94h-333v-96z" />
<glyph unicode="&#xa2;" horiz-adv-x="1436" d="M46 438v76q265 16 265 -30q16 -76 -31 -92l31 -15q32 121 94 137q158 0 173 -61q32 -122 -78 -168h-95l-79 77q-16 -92 -218 -77l-14 153h-48zM169 331l79 15l-16 31h-63v-46zM169 423h63v30h-63v-30zM184.5 542q9.5 -7 29.5 -4q30 3 90 50q-83 -16 -106 -27.5 t-13.5 -18.5zM189 528q-42 28 102 94l176 14l-25 26l-12 28l22 32l2 13l-78 35l34 350v90q-22 6 -34 38l48 438l-36 16l-14 46l19 24l211 24l13 -38l-95 -64l-58 -6l-40 -400q45 112 107.5 154.5t146 53t170 1.5t131.5 -38t76 -90.5t41 -126.5l11 -22l3 -100l45 -352 l-159 -81l4 -13l16 -14q177 44 187 -6l68 -10q40 -44 -1 -62l-809 -22zM239 172v76h220v-76l-109 -15h78v-46h-64l-30 -92l-64 15zM386 776l325 -122q-20 72 -31 114q-36 129 -63 180.5t-79 67.5q-55 -3 -76 -28q-44 -56 -76 -212zM405 438q-15 -77 33 -107l62 15l-16 107z M408 1174l6 -52q99 6 139.5 -15t70.5 -52t43 -70t44 -287l14 -8l9 442l-128 22zM408 1372l38 318h-10zM418 1164l188 -19l120 -23l-9 -396l-12 104q-12 115 -26.5 157.5t-45.5 75.5t-61.5 48t-65 17t-80.5 5zM418 1220l10 -12l67 8l73 7l100 2l168 -7l108 -10l116 -2l36 -15 l-2 37q-143 53 -526 35q-64 -3 -144 -35zM424 1220l16 11q104 26 324 26q226 0 328 -37l2 -20l-46 10l-152 10l-110 6l-135 2h-96l-80 -8l-47 -7zM426 1182l28 -4h7l5 22l-40 2v-20zM475 96q-31 76 79 152q156 0 172 -60q32 -123 -78 -169q-156 -1 -173 77zM522 1166h20 l8 49l-17 1zM554 172q-16 -76 31 -107l63 15l-15 108zM594 285v229q205 14 220 -30q16 -76 -31 -92q47 16 47 -46l62 168h111l63 -183v-46l-157 46l-32 -46l-78 31q-63 -46 -205 -31zM608 1162l54 -10l12 62l-46 2zM648 1456q85 -10 130.5 -11.5t92.5 -4t57 2t4 14t-25 17.5 t-60 12t-75.5 4t-62 -4t-61.5 -30zM673 331l79 15l-16 31h-63v-46zM673 423h63v30h-63v-30zM744 22v228q64 30 126 -60q0 60 32 60h251v-76h-62v-76h141q-112 106 -32 152h158v-60l-79 -31q94 -91 0 -137h-251l-16 137l-63 15l-15 -152h-48l-78 76v-76h-64zM843 1117l6 -11 l-3 -450l46 -2l3 484h8v68l-60 5v-94zM905 658l13 1q29 270 52.5 325.5t39.5 73.5t42 27t40 9v56l-186 -20zM914 696l2 424l164 23l6 -40q-38 -11 -57.5 -19t-34 -29.5t-32.5 -66t-36 -176.5zM923 1430q8 -38 28.5 -48t34.5 -13t23 7t1 23.5t-23 24.5q-25 17 -64 6zM925 377 h47l-16 76l-31 -30v-46zM930 662l173 88v8q-34 259 -79 246q-52 -34 -64 -98q-4 -25 -16 -103zM950 1432q40 -2 57 -33q7 -13 1.5 -17t-13 -2t-18.5 5t-23 14q-29 27 -4 33zM975 1143h23l20 53l-32 4zM1020 1145l42 -2l18 25l3 24l-44 8zM1088 594q-25 -6 44 -2t145 14 q-10 27 -33.5 25.5t-41.5 -12.5t-53.5 -15t-60.5 -10z" />
<glyph unicode="&#xa3;" horiz-adv-x="1436" d="M46 438v76q265 16 265 -30q16 -76 -31 -92l31 -15q32 121 94 137q158 0 173 -61q32 -122 -78 -168h-95l-79 77q-16 -92 -218 -77l-14 153h-48zM169 331l79 15l-16 31h-63v-46zM169 423h63v30h-63v-30zM184.5 542q9.5 -7 29.5 -4q30 3 90 50q-83 -16 -106 -27.5 t-13.5 -18.5zM189 528q-42 28 102 94l176 14l-25 26l-12 28l22 32l2 13l-78 35l34 350v90q-22 6 -34 38l48 438l-36 16l-14 46l19 24l211 24l13 -38l-95 -64l-58 -6l-40 -400q45 112 107.5 154.5t146 53t170 1.5t131.5 -38t76 -90.5t41 -126.5l11 -22l3 -100l45 -352 l-159 -81l4 -13l16 -14q177 44 187 -6l68 -10q40 -44 -1 -62l-809 -22zM239 172v76h220v-76l-109 -15h78v-46h-64l-30 -92l-64 15zM386 776l325 -122q-20 72 -31 114q-36 129 -63 180.5t-79 67.5q-55 -3 -76 -28q-44 -56 -76 -212zM405 438q-15 -77 33 -107l62 15l-16 107z M408 1174l6 -52q99 6 139.5 -15t70.5 -52t43 -70t44 -287l14 -8l9 442l-128 22zM408 1372l38 318h-10zM418 1164l188 -19l120 -23l-9 -396l-12 104q-12 115 -26.5 157.5t-45.5 75.5t-61.5 48t-65 17t-80.5 5zM418 1220l10 -12l67 8l73 7l100 2l168 -7l108 -10l116 -2l36 -15 l-2 37q-143 53 -526 35q-64 -3 -144 -35zM424 1220l16 11q104 26 324 26q226 0 328 -37l2 -20l-46 10l-152 10l-110 6l-135 2h-96l-80 -8l-47 -7zM426 1182l28 -4h7l5 22l-40 2v-20zM475 96q-31 76 79 152q156 0 172 -60q32 -123 -78 -169q-156 -1 -173 77zM522 1166h20 l8 49l-17 1zM554 172q-16 -76 31 -107l63 15l-15 108zM594 285v229q205 14 220 -30q16 -76 -31 -92q47 16 47 -46l62 168h111l63 -183v-46l-157 46l-32 -46l-78 31q-63 -46 -205 -31zM608 1162l54 -10l12 62l-46 2zM648 1456q85 -10 130.5 -11.5t92.5 -4t57 2t4 14t-25 17.5 t-60 12t-75.5 4t-62 -4t-61.5 -30zM673 331l79 15l-16 31h-63v-46zM673 423h63v30h-63v-30zM744 22v228q64 30 126 -60q0 60 32 60h251v-76h-62v-76h141q-112 106 -32 152h158v-60l-79 -31q94 -91 0 -137h-251l-16 137l-63 15l-15 -152h-48l-78 76v-76h-64zM843 1117l6 -11 l-3 -450l46 -2l3 484h8v68l-60 5v-94zM905 658l13 1q29 270 52.5 325.5t39.5 73.5t42 27t40 9v56l-186 -20zM914 696l2 424l164 23l6 -40q-38 -11 -57.5 -19t-34 -29.5t-32.5 -66t-36 -176.5zM923 1430q8 -38 28.5 -48t34.5 -13t23 7t1 23.5t-23 24.5q-25 17 -64 6zM925 377 h47l-16 76l-31 -30v-46zM930 662l173 88v8q-34 259 -79 246q-52 -34 -64 -98q-4 -25 -16 -103zM950 1432q40 -2 57 -33q7 -13 1.5 -17t-13 -2t-18.5 5t-23 14q-29 27 -4 33zM975 1143h23l20 53l-32 4zM1020 1145l42 -2l18 25l3 24l-44 8zM1088 594q-25 -6 44 -2t145 14 q-10 27 -33.5 25.5t-41.5 -12.5t-53.5 -15t-60.5 -10z" />
<glyph unicode="&#xa5;" horiz-adv-x="1436" d="M46 438v76q265 16 265 -30q16 -76 -31 -92l31 -15q32 121 94 137q158 0 173 -61q32 -122 -78 -168h-95l-79 77q-16 -92 -218 -77l-14 153h-48zM169 331l79 15l-16 31h-63v-46zM169 423h63v30h-63v-30zM184.5 542q9.5 -7 29.5 -4q30 3 90 50q-83 -16 -106 -27.5 t-13.5 -18.5zM189 528q-42 28 102 94l176 14l-25 26l-12 28l22 32l2 13l-78 35l34 350v90q-22 6 -34 38l48 438l-36 16l-14 46l19 24l211 24l13 -38l-95 -64l-58 -6l-40 -400q45 112 107.5 154.5t146 53t170 1.5t131.5 -38t76 -90.5t41 -126.5l11 -22l3 -100l45 -352 l-159 -81l4 -13l16 -14q177 44 187 -6l68 -10q40 -44 -1 -62l-809 -22zM239 172v76h220v-76l-109 -15h78v-46h-64l-30 -92l-64 15zM386 776l325 -122q-20 72 -31 114q-36 129 -63 180.5t-79 67.5q-55 -3 -76 -28q-44 -56 -76 -212zM405 438q-15 -77 33 -107l62 15l-16 107z M408 1174l6 -52q99 6 139.5 -15t70.5 -52t43 -70t44 -287l14 -8l9 442l-128 22zM408 1372l38 318h-10zM418 1164l188 -19l120 -23l-9 -396l-12 104q-12 115 -26.5 157.5t-45.5 75.5t-61.5 48t-65 17t-80.5 5zM418 1220l10 -12l67 8l73 7l100 2l168 -7l108 -10l116 -2l36 -15 l-2 37q-143 53 -526 35q-64 -3 -144 -35zM424 1220l16 11q104 26 324 26q226 0 328 -37l2 -20l-46 10l-152 10l-110 6l-135 2h-96l-80 -8l-47 -7zM426 1182l28 -4h7l5 22l-40 2v-20zM475 96q-31 76 79 152q156 0 172 -60q32 -123 -78 -169q-156 -1 -173 77zM522 1166h20 l8 49l-17 1zM554 172q-16 -76 31 -107l63 15l-15 108zM594 285v229q205 14 220 -30q16 -76 -31 -92q47 16 47 -46l62 168h111l63 -183v-46l-157 46l-32 -46l-78 31q-63 -46 -205 -31zM608 1162l54 -10l12 62l-46 2zM648 1456q85 -10 130.5 -11.5t92.5 -4t57 2t4 14t-25 17.5 t-60 12t-75.5 4t-62 -4t-61.5 -30zM673 331l79 15l-16 31h-63v-46zM673 423h63v30h-63v-30zM744 22v228q64 30 126 -60q0 60 32 60h251v-76h-62v-76h141q-112 106 -32 152h158v-60l-79 -31q94 -91 0 -137h-251l-16 137l-63 15l-15 -152h-48l-78 76v-76h-64zM843 1117l6 -11 l-3 -450l46 -2l3 484h8v68l-60 5v-94zM905 658l13 1q29 270 52.5 325.5t39.5 73.5t42 27t40 9v56l-186 -20zM914 696l2 424l164 23l6 -40q-38 -11 -57.5 -19t-34 -29.5t-32.5 -66t-36 -176.5zM923 1430q8 -38 28.5 -48t34.5 -13t23 7t1 23.5t-23 24.5q-25 17 -64 6zM925 377 h47l-16 76l-31 -30v-46zM930 662l173 88v8q-34 259 -79 246q-52 -34 -64 -98q-4 -25 -16 -103zM950 1432q40 -2 57 -33q7 -13 1.5 -17t-13 -2t-18.5 5t-23 14q-29 27 -4 33zM975 1143h23l20 53l-32 4zM1020 1145l42 -2l18 25l3 24l-44 8zM1088 594q-25 -6 44 -2t145 14 q-10 27 -33.5 25.5t-41.5 -12.5t-53.5 -15t-60.5 -10z" />
<glyph unicode="&#xa6;" horiz-adv-x="1569" d="M32 238l230 382q22 18 54 25l68 -1l4 20h122v-26q0 38 66 26l-6 -20h680q34 -6 61 -24l237 -388q16 -63 -12 -76l-28 -12h-110q40 -32 22 -69q-72 -6 -114 18l-6 -18l-52 -1l-25 19l-15 -17h-62l-16 24l-8 -26l-32 1q-22 81 -48 69h-999q-37 32 -11 94zM60 224 q-2 -37 16 -49h1004l10 -20l12 20h25l9 -21q4 27 37 21v-69l7 69h38q28 -75 43 -75l-16 75q100 15 93 -55l34 -8l-28 38l6 25h131q48 20 30 64l-217 365q-21 23 -56 29h-694l-90 -1l6 20q-10 -8 -10 -20h-24l6 25h-10l-6 -25q-104 8 -142 -25zM82 194l82 175l71 31h143 l-18 -18l50 18l-43 -156h-66l38 125l21 13l-48 -20h-88v-12h104l-44 -37h-76q-28 -75 -39 -75l-77 -44h-10zM384 244l32 125l55 31h181l-55 -38h-115l-22 -62h66v13l-50 2l50 35h71l-11 -68l-55 -38h-147zM422 582l76 38h275l-65 -38h-78l-20 -118l-100 -58h-12l45 176h-121 zM608 244l10 128l60 30v-58h73l5 56h53l7 -152h-64l-1 52h-77l-6 -54zM734 462l6 126l61 32h17l10 -158h-94zM822 362l38 38h192l-43 -36l-39 2l12 -116h-66l-10 112h-84zM850 588l66 32h230l-56 -38h-142v-19h160l-50 -38h-98v-19h202l-54 -44h-248zM1032 367l37 33h159 l-37 -34h-89v-16h99l-39 -37h-48v-19h120l-33 -44h-147zM1201 124h17v20h-17v-20zM1212 369l38 31h127l35 -64l-6 -14l14 -2l24 -56l-36 -53q-36 88 -54 102h-54l16 -63l-62 2zM1278 350h61v12h-61v-12zM1284 132h27v12h-27v-12z" />
<glyph unicode="&#xa7;" horiz-adv-x="940" d="M368 672h148v-148h64v356h-152v148h-60v-356zM424 735v80h88v-80h-88z" />
<glyph unicode="&#xa8;" horiz-adv-x="717" d="M121 1468q3 45 30 73t68.5 28t69 -31.5t27.5 -69.5q0 -74 -72 -92q-16 0 -29 -4q-65 8 -86 64q0 8 -8 32zM404 1472q3 42 30.5 69.5t67.5 27.5t69 -30.5t29 -70.5q0 -70 -72 -92q-16 0 -28 -4q-48 6 -64 27t-32 73z" />
<glyph unicode="&#xa9;" horiz-adv-x="919" d="M381 624q0 -32 19.5 -51.5t51.5 -19.5h32q72 -1 71 71v76h-55v-104h-60v385h60v-105h59v72q0 27 -21.5 49.5t-49.5 22.5h-32q-32 0 -53.5 -21t-21.5 -51v-324z" />
<glyph unicode="&#xaa;" horiz-adv-x="936" d="M332 652q0 -38 29 -67.5t67 -29.5h176v57h-41v375h-102q-44 0 -68.5 -10.5t-32.5 -44.5h124v-88h-56q-34 0 -65 -28t-31 -60v-104zM412 612v176h76v-176h-76z" />
<glyph unicode="&#xab;" horiz-adv-x="936" d="M236 780l188 -188l51 55l-127 133l127 132l-51 52zM444 780l189 -188l55 55l-133 133l133 132l-55 52z" />
<glyph unicode="&#xac;" horiz-adv-x="927" d="M236 764h327v-127h105v215h-432v-88z" />
<glyph unicode="&#xad;" horiz-adv-x="927" d="M80 666l156 244h624l-142 -244l-378 -1z" />
<glyph unicode="&#xae;" horiz-adv-x="919" d="M377 553h59v215h60v-176q0 -50 57 -64v220l-29 40l29 52v112q0 26 -23 49t-51 23h-102v-471zM440 809v174h56v-174h-56z" />
<glyph unicode="&#xb1;" horiz-adv-x="936" d="M324 568h296v69h-296v-69zM324 815h116v-111h68v111h112v69h-112v120h-68v-120h-116v-69z" />
<glyph unicode="&#xb4;" horiz-adv-x="536" d="M112 1317l248 247l72 -75l-248 -250z" />
<glyph unicode="&#xb5;" horiz-adv-x="948" d="M268 588h420v84h-72v348h-84v-348h-112v348h-80v-348h-72v-84z" />
<glyph unicode="&#xb6;" horiz-adv-x="1436" d="M46 438v76q265 16 265 -30q16 -76 -31 -92l31 -15q32 121 94 137q158 0 173 -61q32 -122 -78 -168h-95l-79 77q-16 -92 -218 -77l-14 153h-48zM169 331l79 15l-16 31h-63v-46zM169 423h63v30h-63v-30zM184.5 542q9.5 -7 29.5 -4q30 3 90 50q-83 -16 -106 -27.5 t-13.5 -18.5zM189 528q-42 28 102 94l176 14l-25 26l-12 28l22 32l2 13l-78 35l34 350v90q-22 6 -34 38l48 438l-36 16l-14 46l19 24l211 24l13 -38l-95 -64l-58 -6l-40 -400q45 112 107.5 154.5t146 53t170 1.5t131.5 -38t76 -90.5t41 -126.5l11 -22l3 -100l45 -352 l-159 -81l4 -13l16 -14q177 44 187 -6l68 -10q40 -44 -1 -62l-809 -22zM239 172v76h220v-76l-109 -15h78v-46h-64l-30 -92l-64 15zM386 776l325 -122q-20 72 -31 114q-36 129 -63 180.5t-79 67.5q-55 -3 -76 -28q-44 -56 -76 -212zM405 438q-15 -77 33 -107l62 15l-16 107z M408 1174l6 -52q99 6 139.5 -15t70.5 -52t43 -70t44 -287l14 -8l9 442l-128 22zM408 1372l38 318h-10zM418 1164l188 -19l120 -23l-9 -396l-12 104q-12 115 -26.5 157.5t-45.5 75.5t-61.5 48t-65 17t-80.5 5zM418 1220l10 -12l67 8l73 7l100 2l168 -7l108 -10l116 -2l36 -15 l-2 37q-143 53 -526 35q-64 -3 -144 -35zM424 1220l16 11q104 26 324 26q226 0 328 -37l2 -20l-46 10l-152 10l-110 6l-135 2h-96l-80 -8l-47 -7zM426 1182l28 -4h7l5 22l-40 2v-20zM475 96q-31 76 79 152q156 0 172 -60q32 -123 -78 -169q-156 -1 -173 77zM522 1166h20 l8 49l-17 1zM554 172q-16 -76 31 -107l63 15l-15 108zM594 285v229q205 14 220 -30q16 -76 -31 -92q47 16 47 -46l62 168h111l63 -183v-46l-157 46l-32 -46l-78 31q-63 -46 -205 -31zM608 1162l54 -10l12 62l-46 2zM648 1456q85 -10 130.5 -11.5t92.5 -4t57 2t4 14t-25 17.5 t-60 12t-75.5 4t-62 -4t-61.5 -30zM673 331l79 15l-16 31h-63v-46zM673 423h63v30h-63v-30zM744 22v228q64 30 126 -60q0 60 32 60h251v-76h-62v-76h141q-112 106 -32 152h158v-60l-79 -31q94 -91 0 -137h-251l-16 137l-63 15l-15 -152h-48l-78 76v-76h-64zM843 1117l6 -11 l-3 -450l46 -2l3 484h8v68l-60 5v-94zM905 658l13 1q29 270 52.5 325.5t39.5 73.5t42 27t40 9v56l-186 -20zM914 696l2 424l164 23l6 -40q-38 -11 -57.5 -19t-34 -29.5t-32.5 -66t-36 -176.5zM923 1430q8 -38 28.5 -48t34.5 -13t23 7t1 23.5t-23 24.5q-25 17 -64 6zM925 377 h47l-16 76l-31 -30v-46zM930 662l173 88v8q-34 259 -79 246q-52 -34 -64 -98q-4 -25 -16 -103zM950 1432q40 -2 57 -33q7 -13 1.5 -17t-13 -2t-18.5 5t-23 14q-29 27 -4 33zM975 1143h23l20 53l-32 4zM1020 1145l42 -2l18 25l3 24l-44 8zM1088 594q-25 -6 44 -2t145 14 q-10 27 -33.5 25.5t-41.5 -12.5t-53.5 -15t-60.5 -10z" />
<glyph unicode="&#xb7;" horiz-adv-x="936" d="M312 783q0 -65 40.5 -114t116.5 -49t117.5 48t41.5 114t-42.5 112t-115.5 46t-115.5 -46t-42.5 -111z" />
<glyph unicode="&#xba;" horiz-adv-x="944" d="M352 660q0 -41 26 -73t66 -32h44q34 0 67 30.5t33 66.5v241q0 32 -33 65t-67 33h-40q-37 0 -66.5 -29.5t-29.5 -64.5v-237zM428 612v324h80v-324h-80z" />
<glyph unicode="&#xbb;" horiz-adv-x="932" d="M252 647l55 -51l189 188l-189 184l-55 -52l133 -136zM461 647l55 -55l188 188l-188 188l-55 -56l131 -132z" />
<glyph unicode="&#xbf;" d="M70 58l364 -182h164l361 182v421l-1 1l1 15l-279 189v475l-162 61l-171 -64v-479l251 -210v-403h-164v328h-364v-334zM347 1348l171 -82l162 84v94h-333v-96z" />
<glyph unicode="&#xc0;" d="M32 0l38 70v1318l364 181h164l361 -181v-1388h-361v516h-164v-516h-402zM434 716h164v665h-164v-665zM551 1792l74 76l247 -248l-71 -76z" />
<glyph unicode="&#xc1;" d="M32 0l38 70v1318l364 181h164l361 -181v-1388h-361v516h-164v-516h-402zM184 1620l248 248l72 -76l-248 -248zM434 716h164v665h-164v-665z" />
<glyph unicode="&#xc2;" d="M32 0l38 70v1318l364 181h164l361 -181v-1388h-361v516h-164v-516h-402zM276 1628l243 248l250 -248l-73 -72l-177 176l-172 -176zM434 716h164v665h-164v-665z" />
<glyph unicode="&#xc3;" d="M32 0l38 70v1318l364 181h164l361 -181v-1388h-361v516h-164v-516h-402zM260 1628l248 248l172 -176l176 176l76 -72l-252 -248l-172 176l-176 -176zM434 716h164v665h-164v-665z" />
<glyph unicode="&#xc4;" d="M32 0l38 70v1318l364 181h164l361 -181v-1388h-361v516h-164v-516h-402zM252 1672q3 45 31 73t69 28t68.5 -31.5t27.5 -66.5t-19 -61t-53 -34q-16 0 -28 -4q-64 6 -88 64q0 8 -8 32zM434 716h164v665h-164v-665zM556 1676q3 45 31 73t69 28t68.5 -31.5t27.5 -66.5 t-19 -61t-53 -34q-16 0 -28 -4q-64 6 -88 64q0 8 -8 32z" />
<glyph unicode="&#xc5;" d="M32 0l38 70v1318l364 181h164l361 -181v-1388h-361v516h-164v-516h-402zM340 1751q4 84 55 135t124.5 51t123 -58.5t49.5 -123t-34.5 -112t-94.5 -63.5q-30 0 -51 -7q-116 12 -158 118q0 16 -14 60zM424 1748q8 -24 8 -32q24 -58 88 -64q12 4 28 4q34 8 53 34t19 60.5 t-27.5 66.5t-68.5 32t-69.5 -27.5t-30.5 -73.5zM434 716h164v665h-164v-665z" />
<glyph unicode="&#xc6;" horiz-adv-x="1557" d="M32 0l38 70v1318l364 181h164l897 -1v-540h-361v352h-164v-526h432l-146 -193h-286v-486h164v339h361v-514h-897v516h-164v-516h-402zM434 716h164v665h-164v-665z" />
<glyph unicode="&#xc7;" d="M32 0l38 70v1318l366 180h523v-540h-361v352h-164v-1205h164v339h361v-338l-347 -220v44h-580zM204 86h340q0 -120 -64 -198l-236 -256q49 298 16.5 337t-56.5 117z" />
<glyph unicode="&#xc8;" d="M32 0l38 70v1318l366 180h523v-540h-361v352h-164v-526h432l-146 -193h-286v-486h164v339h361v-514h-927zM547 1820l74 76l247 -248l-71 -76z" />
<glyph unicode="&#xc9;" d="M32 0l38 70v1318l366 180h523v-540h-361v352h-164v-526h432l-146 -193h-286v-486h164v339h361v-514h-927zM184 1620l248 248l72 -76l-248 -248z" />
<glyph unicode="&#xca;" d="M32 0l38 70v1318l366 180h523v-540h-361v352h-164v-526h432l-146 -193h-286v-486h164v339h361v-514h-927zM276 1636l243 248l250 -248l-73 -72l-177 176l-172 -176z" />
<glyph unicode="&#xcb;" d="M32 0l38 70v1318l366 180h523v-540h-361v352h-164v-526h432l-146 -193h-286v-486h164v339h361v-514h-927zM252 1672q3 45 31 73t69 28t68.5 -31.5t27.5 -66.5t-19 -61t-53 -34q-16 0 -28 -4q-64 6 -88 64q0 8 -8 32zM556 1676q3 45 31 73t69 28t68.5 -31.5t27.5 -66.5 t-19 -61t-53 -34q-16 0 -28 -4q-64 6 -88 64q0 8 -8 32z" />
<glyph unicode="&#xcc;" horiz-adv-x="505" d="M11 1748l74 76l247 -248l-71 -76zM32 0l38 70v1318l364 184v-1572h-402z" />
<glyph unicode="&#xcd;" horiz-adv-x="505" d="M32 0l38 70v1318l364 184v-1572h-402zM144 1588l248 248l72 -76l-248 -248z" />
<glyph unicode="&#xce;" horiz-adv-x="505" d="M32 0l38 70v1318l364 184v-1572h-402zM32 1600l243 248l250 -248l-73 -72l-177 176l-172 -176z" />
<glyph unicode="&#xcf;" horiz-adv-x="505" d="M8 1668q3 45 31 73t69 28t68.5 -31.5t27.5 -66.5t-19 -61t-53 -34q-16 0 -28 -4q-64 6 -88 64q0 8 -8 32zM32 0l38 70v1318l364 184v-1572h-402zM304 1672q3 45 31 73t69 28t68.5 -31.5t27.5 -66.5t-19 -61t-53 -34q-16 0 -28 -4q-64 6 -88 64q0 8 -8 32z" />
<glyph unicode="&#xd1;" d="M32 0l38 70v1499h528l361 -183v-1386h-361v1380h-164v-1380h-402zM260 1628l248 248l172 -176l176 176l76 -72l-252 -248l-172 176l-176 -176z" />
<glyph unicode="&#xd2;" d="M32 0l38 70v1318l366 180h523v-1392l-347 -176h-580zM434 175h164v1205h-164v-1205zM547 1820l74 76l247 -248l-71 -76z" />
<glyph unicode="&#xd3;" d="M32 0l38 70v1318l366 180h523v-1392l-347 -176h-580zM184 1620l248 248l72 -76l-248 -248zM434 175h164v1205h-164v-1205z" />
<glyph unicode="&#xd4;" d="M32 0l38 70v1318l366 180h523v-1392l-347 -176h-580zM276 1636l243 248l250 -248l-73 -72l-177 176l-172 -176zM434 175h164v1205h-164v-1205z" />
<glyph unicode="&#xd5;" d="M32 0l38 70v1318l366 180h523v-1392l-347 -176h-580zM260 1628l248 248l172 -176l176 176l76 -72l-252 -248l-172 176l-176 -176zM434 175h164v1205h-164v-1205z" />
<glyph unicode="&#xd6;" d="M32 0l38 70v1318l366 180h523v-1392l-347 -176h-580zM252 1672q3 45 31 73t69 28t68.5 -31.5t27.5 -66.5t-19 -61t-53 -34q-16 0 -28 -4q-64 6 -88 64q0 8 -8 32zM434 175h164v1205h-164v-1205zM556 1676q3 45 31 73t69 28t68.5 -31.5t27.5 -66.5t-19 -61t-53 -34 q-16 0 -28 -4q-64 6 -88 64q0 8 -8 32z" />
<glyph unicode="&#xd8;" d="M28 -34l776 1707l206 -58l-781 -1707zM32 0l38 70v1318l366 180h523v-1392l-347 -176h-580zM434 175h164v1205h-164v-1205z" />
<glyph unicode="&#xd9;" d="M70 0h528l361 181v1388h-361v-1177h-164v1177h-364v-1569zM547 1820l74 76l247 -248l-71 -76z" />
<glyph unicode="&#xda;" d="M70 0h528l361 181v1388h-361v-1177h-164v1177h-364v-1569zM188 1632l248 248l72 -76l-248 -248z" />
<glyph unicode="&#xdb;" d="M70 0h528l361 181v1388h-361v-1177h-164v1177h-364v-1569zM276 1640l243 248l250 -248l-73 -72l-177 176l-172 -176z" />
<glyph unicode="&#xdc;" d="M70 0h528l361 181v1388h-361v-1177h-164v1177h-364v-1569zM252 1672q3 45 31 73t69 28t68.5 -31.5t27.5 -66.5t-19 -61t-53 -34q-16 0 -28 -4q-64 6 -88 64q0 8 -8 32zM556 1676q3 45 31 73t69 28t68.5 -31.5t27.5 -66.5t-19 -61t-53 -34q-16 0 -28 -4q-64 6 -88 64 q0 8 -8 32z" />
<glyph unicode="&#xdd;" d="M70 965v604h364v-593l86 -60l78 61v592l361 -1v-619l-279 -189v-760h-333v767zM188 1632l248 248l72 -76l-248 -248z" />
<glyph unicode="&#xdf;" d="M68 -332l2 1901h528l361 -183v-504l-111 -110l111 -107v-489l-271 -136h-108v332h96v168l-78 125h-164v-665zM434 865h164v516h-164v-516z" />
<glyph unicode="&#xe0;" d="M32 0l38 70v1318l364 181h164l361 -181v-1388h-361v516h-164v-516h-402zM434 716h164v665h-164v-665zM551 1792l74 76l247 -248l-71 -76z" />
<glyph unicode="&#xe1;" d="M32 0l38 70v1318l364 181h164l361 -181v-1388h-361v516h-164v-516h-402zM184 1620l248 248l72 -76l-248 -248zM434 716h164v665h-164v-665z" />
<glyph unicode="&#xe2;" d="M32 0l38 70v1318l364 181h164l361 -181v-1388h-361v516h-164v-516h-402zM276 1628l243 248l250 -248l-73 -72l-177 176l-172 -176zM434 716h164v665h-164v-665z" />
<glyph unicode="&#xe3;" d="M32 0l38 70v1318l364 181h164l361 -181v-1388h-361v516h-164v-516h-402zM260 1628l248 248l172 -176l176 176l76 -72l-252 -248l-172 176l-176 -176zM434 716h164v665h-164v-665z" />
<glyph unicode="&#xe4;" d="M32 0l38 70v1318l364 181h164l361 -181v-1388h-361v516h-164v-516h-402zM252 1672q3 45 31 73t69 28t68.5 -31.5t27.5 -66.5t-19 -61t-53 -34q-16 0 -28 -4q-64 6 -88 64q0 8 -8 32zM434 716h164v665h-164v-665zM556 1676q3 45 31 73t69 28t68.5 -31.5t27.5 -66.5 t-19 -61t-53 -34q-16 0 -28 -4q-64 6 -88 64q0 8 -8 32z" />
<glyph unicode="&#xe5;" d="M32 0l38 70v1318l364 181h164l361 -181v-1388h-361v516h-164v-516h-402zM340 1751q4 84 55 135t124.5 51t123 -58.5t49.5 -123t-34.5 -112t-94.5 -63.5q-30 0 -51 -7q-116 12 -158 118q0 16 -14 60zM424 1748q8 -24 8 -32q24 -58 88 -64q12 4 28 4q34 8 53 34t19 60.5 t-27.5 66.5t-68.5 32t-69.5 -27.5t-30.5 -73.5zM434 716h164v665h-164v-665z" />
<glyph unicode="&#xe6;" horiz-adv-x="1557" d="M32 0l38 70v1318l364 181h164l897 -1v-540h-361v352h-164v-526h432l-146 -193h-286v-486h164v339h361v-514h-897v516h-164v-516h-402zM434 716h164v665h-164v-665z" />
<glyph unicode="&#xe7;" d="M32 0l38 70v1318l366 180h523v-540h-361v352h-164v-1205h164v339h361v-338l-347 -220v44h-580zM204 86h340q0 -120 -64 -198l-236 -256q49 298 16.5 337t-56.5 117z" />
<glyph unicode="&#xe8;" d="M32 0l38 70v1318l366 180h523v-540h-361v352h-164v-526h432l-146 -193h-286v-486h164v339h361v-514h-927zM547 1820l74 76l247 -248l-71 -76z" />
<glyph unicode="&#xe9;" d="M32 0l38 70v1318l366 180h523v-540h-361v352h-164v-526h432l-146 -193h-286v-486h164v339h361v-514h-927zM184 1620l248 248l72 -76l-248 -248z" />
<glyph unicode="&#xea;" d="M32 0l38 70v1318l366 180h523v-540h-361v352h-164v-526h432l-146 -193h-286v-486h164v339h361v-514h-927zM276 1636l243 248l250 -248l-73 -72l-177 176l-172 -176z" />
<glyph unicode="&#xeb;" d="M32 0l38 70v1318l366 180h523v-540h-361v352h-164v-526h432l-146 -193h-286v-486h164v339h361v-514h-927zM252 1672q3 45 31 73t69 28t68.5 -31.5t27.5 -66.5t-19 -61t-53 -34q-16 0 -28 -4q-64 6 -88 64q0 8 -8 32zM556 1676q3 45 31 73t69 28t68.5 -31.5t27.5 -66.5 t-19 -61t-53 -34q-16 0 -28 -4q-64 6 -88 64q0 8 -8 32z" />
<glyph unicode="&#xec;" horiz-adv-x="505" d="M11 1748l74 76l247 -248l-71 -76zM32 0l38 70v1318l364 184v-1572h-402z" />
<glyph unicode="&#xed;" horiz-adv-x="505" d="M32 0l38 70v1318l364 184v-1572h-402zM144 1588l248 248l72 -76l-248 -248z" />
<glyph unicode="&#xee;" horiz-adv-x="505" d="M32 0l38 70v1318l364 184v-1572h-402zM32 1600l243 248l250 -248l-73 -72l-177 176l-172 -176z" />
<glyph unicode="&#xef;" horiz-adv-x="505" d="M8 1668q3 45 31 73t69 28t68.5 -31.5t27.5 -66.5t-19 -61t-53 -34q-16 0 -28 -4q-64 6 -88 64q0 8 -8 32zM32 0l38 70v1318l364 184v-1572h-402zM304 1672q3 45 31 73t69 28t68.5 -31.5t27.5 -66.5t-19 -61t-53 -34q-16 0 -28 -4q-64 6 -88 64q0 8 -8 32z" />
<glyph unicode="&#xf1;" d="M32 0l38 70v1499h528l361 -183v-1386h-361v1380h-164v-1380h-402zM260 1628l248 248l172 -176l176 176l76 -72l-252 -248l-172 176l-176 -176z" />
<glyph unicode="&#xf2;" d="M32 0l38 70v1318l366 180h523v-1392l-347 -176h-580zM434 175h164v1205h-164v-1205zM547 1820l74 76l247 -248l-71 -76z" />
<glyph unicode="&#xf3;" d="M32 0l38 70v1318l366 180h523v-1392l-347 -176h-580zM184 1620l248 248l72 -76l-248 -248zM434 175h164v1205h-164v-1205z" />
<glyph unicode="&#xf4;" d="M32 0l38 70v1318l366 180h523v-1392l-347 -176h-580zM276 1636l243 248l250 -248l-73 -72l-177 176l-172 -176zM434 175h164v1205h-164v-1205z" />
<glyph unicode="&#xf5;" d="M32 0l38 70v1318l366 180h523v-1392l-347 -176h-580zM260 1628l248 248l172 -176l176 176l76 -72l-252 -248l-172 176l-176 -176zM434 175h164v1205h-164v-1205z" />
<glyph unicode="&#xf6;" d="M32 0l38 70v1318l366 180h523v-1392l-347 -176h-580zM252 1672q3 45 31 73t69 28t68.5 -31.5t27.5 -66.5t-19 -61t-53 -34q-16 0 -28 -4q-64 6 -88 64q0 8 -8 32zM434 175h164v1205h-164v-1205zM556 1676q3 45 31 73t69 28t68.5 -31.5t27.5 -66.5t-19 -61t-53 -34 q-16 0 -28 -4q-64 6 -88 64q0 8 -8 32z" />
<glyph unicode="&#xf8;" d="M28 -34l776 1707l206 -58l-781 -1707zM32 0l38 70v1318l366 180h523v-1392l-347 -176h-580zM434 175h164v1205h-164v-1205z" />
<glyph unicode="&#xf9;" d="M70 0h528l361 181v1388h-361v-1177h-164v1177h-364v-1569zM547 1820l74 76l247 -248l-71 -76z" />
<glyph unicode="&#xfa;" d="M70 0h528l361 181v1388h-361v-1177h-164v1177h-364v-1569zM188 1632l248 248l72 -76l-248 -248z" />
<glyph unicode="&#xfb;" d="M70 0h528l361 181v1388h-361v-1177h-164v1177h-364v-1569zM276 1640l243 248l250 -248l-73 -72l-177 176l-172 -176z" />
<glyph unicode="&#xfc;" d="M70 0h528l361 181v1388h-361v-1177h-164v1177h-364v-1569zM252 1672q3 45 31 73t69 28t68.5 -31.5t27.5 -66.5t-19 -61t-53 -34q-16 0 -28 -4q-64 6 -88 64q0 8 -8 32zM556 1676q3 45 31 73t69 28t68.5 -31.5t27.5 -66.5t-19 -61t-53 -34q-16 0 -28 -4q-64 6 -88 64 q0 8 -8 32z" />
<glyph unicode="&#xfd;" d="M70 965v604h364v-593l86 -60l78 61v592l361 -1v-619l-279 -189v-760h-333v767zM188 1632l248 248l72 -76l-248 -248z" />
<glyph unicode="&#xff;" d="M70 965v604h364v-593l86 -60l78 61v592l361 -1v-619l-279 -189v-760h-333v767zM252 1672q3 45 31 73t69 28t68.5 -31.5t27.5 -66.5t-19 -61t-53 -34q-16 0 -28 -4q-64 6 -88 64q0 8 -8 32zM556 1676q3 45 31 73t69 28t68.5 -31.5t27.5 -66.5t-19 -61t-53 -34 q-16 0 -28 -4q-64 6 -88 64q0 8 -8 32z" />
<glyph unicode="&#x152;" horiz-adv-x="1557" d="M32 0l38 70v1318l364 181h164l897 -1v-540h-361v352h-164v-526h432l-146 -193h-286v-486h164v339h361v-514h-1463zM434 175h164v1205h-164v-1205z" />
<glyph unicode="&#x153;" horiz-adv-x="1557" d="M32 0l38 70v1318l364 181h164l897 -1v-540h-361v352h-164v-526h432l-146 -193h-286v-486h164v339h361v-514h-1463zM434 175h164v1205h-164v-1205z" />
<glyph unicode="&#x2c6;" horiz-adv-x="641" d="M121 868l243 248l248 -248l-72 -72l-176 177l-172 -177z" />
<glyph unicode="&#x2dc;" horiz-adv-x="731" d="M28 776l248 248l172 -176l176 176l76 -72l-252 -248l-172 176l-176 -176z" />
<glyph unicode="&#x2000;" horiz-adv-x="968" />
<glyph unicode="&#x2001;" horiz-adv-x="1937" />
<glyph unicode="&#x2002;" horiz-adv-x="968" />
<glyph unicode="&#x2003;" horiz-adv-x="1937" />
<glyph unicode="&#x2004;" horiz-adv-x="645" />
<glyph unicode="&#x2005;" horiz-adv-x="484" />
<glyph unicode="&#x2006;" horiz-adv-x="322" />
<glyph unicode="&#x2007;" horiz-adv-x="322" />
<glyph unicode="&#x2008;" horiz-adv-x="242" />
<glyph unicode="&#x2009;" horiz-adv-x="387" />
<glyph unicode="&#x200a;" horiz-adv-x="107" />
<glyph unicode="&#x2010;" horiz-adv-x="927" d="M80 666l156 244h624l-142 -244l-378 -1z" />
<glyph unicode="&#x2011;" horiz-adv-x="927" d="M80 666l156 244h624l-142 -244l-378 -1z" />
<glyph unicode="&#x2012;" horiz-adv-x="927" d="M80 666l156 244h624l-142 -244l-378 -1z" />
<glyph unicode="&#x2013;" horiz-adv-x="923" d="M232 712h464v136h-464v-136z" />
<glyph unicode="&#x2014;" horiz-adv-x="919" d="M232 712h464v136h-464v-136z" />
<glyph unicode="&#x2018;" horiz-adv-x="471" d="M52 1398q0 -120 63 -198l235 -256q-49 298 -16.5 337t58.5 117q-4 74 -55 119t-123.5 45t-117 -48t-44.5 -116z" />
<glyph unicode="&#x2019;" horiz-adv-x="471" d="M52 1398q4 74 54 119t122.5 45t118 -48t45.5 -116q0 -120 -64 -198l-236 -256q49 298 16.5 337t-56.5 117z" />
<glyph unicode="&#x201c;" horiz-adv-x="835" d="M52 1394q0 -120 63 -198l235 -256q-49 298 -16.5 337t58.5 117q-4 74 -55 119t-123.5 45t-117 -48t-44.5 -116zM460 1398q0 -120 63 -198l235 -256q-49 298 -16.5 337t58.5 117q-4 74 -55 119t-123.5 45t-117 -48t-44.5 -116z" />
<glyph unicode="&#x201d;" horiz-adv-x="835" d="M52 1398q4 74 54 119t122.5 45t118 -48t45.5 -116q0 -120 -64 -198l-236 -256q49 298 16.5 337t-56.5 117zM460 1394q4 74 54 119t122.5 45t118 -48t45.5 -116q0 -120 -64 -198l-236 -256q49 298 16.5 337t-56.5 117z" />
<glyph unicode="&#x2026;" horiz-adv-x="915" d="M213 776q0 -16 13 -31t34 -18q33 10 40 19.5t7 25.5q0 56 -43 56h-12q-39 -12 -39 -52zM408 780q3 -2 10.5 -25t33.5 -28q6 4 22 9q34 12 34 40q0 52 -47 52h-13q-34 -6 -40 -48zM608 776q0 -16 12 -31t32 -18q12 6 25 12q27 12 27 45q0 44 -48 44h-13q-35 -11 -35 -52z " />
<glyph unicode="&#x202f;" horiz-adv-x="387" />
<glyph unicode="&#x205f;" horiz-adv-x="484" />
<glyph unicode="&#x2122;" horiz-adv-x="944" d="M223 840h25v-156q0 -38 20 -51q14 -21 52 -21h76v40h-93v188h61v40h-61v88h-55v-88h-25v-40zM416 840h20v-228h60v228h57v-228h59v228h60v-228h55v197q0 27 -22 49t-49 22h-240v-40z" />
<glyph unicode="&#xe000;" horiz-adv-x="1570" d="M0 0v1570h1570v-1570h-1570z" />
</font>
</defs>
</svg>
