<?xml version="1.0" standalone="no"?>
<!DOCTYPE svg PUBLIC "-//W3C//DTD SVG 1.1//EN" "http://www.w3.org/Graphics/SVG/1.1/DTD/svg11.dtd" >
<svg xmlns="http://www.w3.org/2000/svg">
<metadata></metadata>
<defs>
<font id="StarJediLogoDoubleLine1Rg" horiz-adv-x="1864" >
<font-face units-per-em="2048" ascent="1638" descent="-410" />
<missing-glyph horiz-adv-x="950" />
<glyph horiz-adv-x="0" />
<glyph horiz-adv-x="0" />
<glyph unicode="&#xd;" horiz-adv-x="0" />
<glyph unicode=" "  horiz-adv-x="950" />
<glyph unicode="&#x09;" horiz-adv-x="950" />
<glyph unicode="&#xa0;" horiz-adv-x="950" />
<glyph unicode="!" horiz-adv-x="1041" d="M-2 596v106h347v-106h-116v-255h-118v255h-113zM0 0v300h1041v-300h-1041zM0 912.5q0 52.5 13 87t39 58.5q54 47 136 47t129 -21.5t72 -63t25 -101t-25 -101.5q-51 -84 -184 -84q-134 0 -181 84q-24 42 -24 94.5zM0 1144v300h1041v-300h-1041zM129 914q0 -42 15 -72.5 t56 -30.5t58.5 16.5t21.5 36.5t4 55.5t-14.5 66t-64.5 30.5q-76 0 -76 -102zM358 341v361h116v-124h96v124h118v-361h-118v130h-96v-130h-116zM435 740v361h310v-106h-194v-43h126v-61h-126v-151h-116zM702 341v361h307v-105h-192v-41h124v-64h-124v-41h224v-110h-339z" />
<glyph unicode="&#x22;" horiz-adv-x="1139" d="M197 813v631h307v-631h-307zM635 813v631h307v-631h-307z" />
<glyph unicode="#" horiz-adv-x="1121" d="M-2 596v106h347v-106h-116v-255h-118v255h-113zM-2 996v106h347v-106h-116v-255h-118v255h-113zM0 0v300h1121v-300h-1121zM0 1144v300h1121v-300h-1121zM358 341v361h116v-124h96v124h118v-361h-118v130h-96v-130h-116zM364 914.5q0 52.5 13 87t39 58.5q54 47 136 47 t129 -21.5t72 -63t25 -101t-25 -101.5q-51 -84 -184 -84q-134 0 -181 84q-24 42 -24 94.5zM492 921q0 -42 15 -72.5t56 -30.5t58.5 16.5t21.5 36.5t4 55.5t-14.5 66t-64.5 30.5q-76 0 -76 -102zM702 341v361h307v-105h-192v-41h124v-64h-124v-41h224v-110h-339z" />
<glyph unicode="$" horiz-adv-x="1121" d="M-2 596v106h347v-106h-116v-255h-118v255h-113zM0 0v300h1121v-300h-1121zM0 741v361h310v-106h-194v-43h126v-61h-126v-151h-116zM0 1144v300h1121v-300h-1121zM308 914.5q0 52.5 13 87t39 58.5q54 47 136 47t129 -21.5t72 -63t25 -101t-25 -101.5q-51 -84 -184 -84 q-134 0 -181 84q-24 42 -24 94.5zM358 341v361h116v-124h96v124h118v-361h-118v130h-96v-130h-116zM434 921q0 -42 15 -72.5t56 -30.5t58.5 16.5t21.5 36.5t4 55.5t-14.5 66t-64.5 30.5q-76 0 -76 -102zM702 341v361h307v-105h-192v-41h124v-64h-124v-41h224v-110h-339z M733 742v361h235q86 -4 113 -73q17 -81 -31 -117q-22 -17 -64 -27l27 -35h108v-109h-143l-115 121v-121h-130zM863 954h91q25 0 24.5 26.5t-9.5 33.5t-15 7h-91v-67z" />
<glyph unicode="%" horiz-adv-x="1121" d="M-2 596v106h347v-106h-116v-255h-118v255h-113zM0 0v300h1121v-300h-1121zM0 1144v300h1121v-300h-1121zM28 742v361h172v-361h-172zM268 742v361h129l121 -135v135h133v-361h-133l-121 136v-136h-129zM358 341v361h116v-124h96v124h118v-361h-118v130h-96v-130h-116z M702 341v361h307v-105h-192v-41h124v-64h-124v-41h224v-110h-339z" />
<glyph unicode="&#x26;" horiz-adv-x="1041" d="M-2 996v106h347v-106h-116v-255h-118v255h-113zM0 1144v300h1041v-300h-1041zM360 741v361h116v-124h96v124h118v-361h-118v130h-96v-130h-116zM702 741v361h307v-105h-192v-41h124v-64h-124v-41h224v-110h-339z" />
<glyph unicode="'" horiz-adv-x="647" d="M170 813v631h307v-631h-307z" />
<glyph unicode="(" horiz-adv-x="758" d="M56 900q0 458 278 932h375q-231 -426 -231 -928.5t231 -925.5h-375q-278 464 -278 922z" />
<glyph unicode=")" horiz-adv-x="758" d="M35 -22q231 424 231 926q0 377 -132 716q-46 118 -99 212h375q278 -469 278 -928q0 -455 -278 -926h-375z" />
<glyph unicode="*" horiz-adv-x="1041" d="M-2 596v106h347v-106h-116v-255h-118v255h-113zM0 0v300h1041v-300h-1041zM358 341v361h116v-124h96v124h118v-361h-118v130h-96v-130h-116zM702 341v361h307v-105h-192v-41h124v-64h-124v-41h224v-110h-339z" />
<glyph unicode="+" horiz-adv-x="1456" d="M-100 1014v430h1656v-430h-1656z" />
<glyph unicode="," horiz-adv-x="422" d="M84 -17l67 344h232l-126 -344h-173z" />
<glyph unicode="-" horiz-adv-x="758" d="M92 377v360h574v-360h-574z" />
<glyph unicode="." horiz-adv-x="758" d="M156 0v397h446v-397h-446z" />
<glyph unicode="/" horiz-adv-x="3417" d="M43 671h267l133 -290l70 290h247l-191 -673h-245zM44 760v200h476q148 -6 37 73q-181 149 -153.5 273t170.5 124h1010v-197h-239v-473h-246v473h-296q-135 8 -41 -67q170 -133 166.5 -257.5t-166.5 -148.5h-718zM651 283l109 388l105 -290l109 290h266l-249 -673h-245z M1042 -2l249 673h375l251 -673h-285l-48 122h-223l-48 -122h-271zM1372 248h209l-99 268zM1475 760l249 670h375l252 -670h-286l-47 121h-224l-48 -121h-271zM1801 1008h208l-99 267zM1928 -2v673h493q178 -14 233 -138q21 -89 2 -139q-38 -99 -200 -131l57 -66h387 q149 -6 38 74q-183 151 -155.5 275.5t171.5 124.5h410v-201h-182q-133 9 -40 -66q169 -133 166 -257t-166 -149h-702l-239 223v-223h-273zM2201 385h191q14 0 32 9.5t17 49t-19 51.5t-31 12h-190v-122zM2396 760v670h491q180 -16 235 -135q22 -91 3 -139q-39 -99 -200 -132 l56 -64h383v-200h-455l-239 221v-221h-274zM2665 1145h191q14 0 31.5 9.5t19.5 49.5q-2 40 -20.5 52t-31.5 12h-190v-123z" />
<glyph unicode="0" d="M52 606v106q352 21 352 -42q20 -107 -42 -128l42 -21q41 169 124 191q207 0 228 -85q41 -171 -103 -235h-125l-104 107q-20 -128 -289 -107l-21 214h-62zM217 456l103 22l-21 43h-82v-65zM217 584h82v43h-82v-43zM236 751q13 -10 38 -7q43 6 120 72 q-110 -22 -140.5 -38.5t-17.5 -26.5zM243 732q-57 41 134 131l232 19l-35 38l-14 37l29 45l5 19l-104 49l43 489v125q-30 7 -43 51l62 611l-49 22l-17 65l25 35l281 30l14 -50l-123 -91l-79 -7l-52 -558q60 157 142.5 214.5t192.5 73t224.5 2t174 -52t100.5 -124.5t53 -177 l14 -29l4 -140l61 -492l-210 -114l4 -18l22 -19q234 59 248 -8l89 -15q52 -61 -1 -87l-1070 -29zM307 235v106h292v-106l-146 -22h104v-63h-82l-42 -128l-84 20zM502 1078l429 -170q-27 101 -41 158t-33 124t-52 133t-101 90q-73 -6 -100 -41q-61 -77 -102 -294zM528 606 q-22 -107 42 -150l83 22l-21 149zM530 1634l9 -72q47 1 98.5 -1.5t95.5 -26t84 -67.5t57.5 -97.5t56.5 -401.5l18 -9l13 615l-170 30zM530 1909l53 442h-14zM544 1619l248 -26l158 -31l-11 -553l-15 144q-17 160 -35 220t-59.5 105.5t-82 67t-86.5 24t-107 5.5zM544 1699 l13 -19l89 13l97 9l133 2l220 -9l145 -15l151 -2l48 -21l-4 51q-96 38 -251 48.5t-256 8t-185.5 -6t-191.5 -48.5zM552 1697l20 17q132 34 427 34q300 0 434 -51l3 -28l-61 15l-200 15l-146 7l-177 4l-129 -2l-103 -9l-63 -11zM554 1644l40 -3h6l7 28l-53 4v-29zM620 129 q-42 106 102 212q208 0 230 -84q41 -172 -104 -235q-207 0 -228 107zM682 1623h27l10 68l-22 2zM722 235q-19 -106 42 -150l84 22l-20 150zM777 392v320q271 21 291 -42q21 -107 -42 -128q63 21 63 -64l83 234h146l82 -256v-64l-208 64l-42 -64l-102 42q-83 -63 -271 -42z M795 1617l72 -15l14 87l-60 4zM848 2026q111 -12 172 -15t123 -7t74.5 3t5.5 19t-32.5 23t-80.5 16.5t-100 5.5t-81.5 -5.5t-80.5 -39.5zM881 456l104 22l-20 43h-84v-65zM881 584h84v43h-84v-43zM975 24v320q84 43 167 -85q0 85 42 85h331v-106h-83v-106h187 q-145 149 -41 212h207v-85l-103 -43q124 -128 0 -192h-332l-21 192l-84 22l-20 -214h-64l-102 108v-108h-84zM1107 1555l6 -16l-3 -629l59 -4l4 677h11v95l-77 8v-131zM1188 912l17 2q39 378 70 455t51.5 102t55 38t53.5 13v78l-246 -28zM1199 966l3 592l216 31l7 -54 q-48 -15 -73.5 -27t-45 -41.5t-44 -91.5t-46.5 -247zM1210 1989q11 -52 38.5 -66t45.5 -18t30 10t1.5 33t-30 33t-35.5 16t-50 -8zM1213 521h63l-21 106l-42 -43v-63zM1220 918l230 123v11q-29 212 -53.5 283t-52.5 60q-45 -30 -61 -66t-22.5 -70.5t-22.5 -143.5zM1246 1993 q51 -2 76 -47q9 -17 2 -22.5t-16.5 -2.5t-24.5 7t-31 18q-38 35 -6 47zM1280 1589l30 1l26 75l-41 5zM1340 1593l53 -3l25 35l5 33l-58 12zM1429 822.5q-34 -8.5 58 -2t193 19.5q-15 38 -45.5 36.5t-55 -17t-70.5 -22t-80 -15z" />
<glyph unicode="1" d="M52 606v106q352 21 352 -42q20 -107 -42 -128l42 -21q41 169 124 191q207 0 228 -85q41 -171 -103 -235h-125l-104 107q-20 -128 -289 -107l-21 214h-62zM217 456l103 22l-21 43h-82v-65zM217 584h82v43h-82v-43zM236 751q13 -10 38 -7q43 6 120 72 q-110 -22 -140.5 -38.5t-17.5 -26.5zM243 732q-57 41 134 131l232 19l-35 38l-14 37l29 45l5 19l-104 49l43 489v125q-30 7 -43 51l62 611l-49 22l-17 65l25 35l281 30l14 -50l-123 -91l-79 -7l-52 -558q60 157 142.5 214.5t192.5 73t224.5 2t174 -52t100.5 -124.5t53 -177 l14 -29l4 -140l61 -492l-210 -114l4 -18l22 -19q234 59 248 -8l89 -15q52 -61 -1 -87l-1070 -29zM307 235v106h292v-106l-146 -22h104v-63h-82l-42 -128l-84 20zM502 1078l429 -170q-27 101 -41 158t-33 124t-52 133t-101 90q-73 -6 -100 -41q-61 -77 -102 -294zM528 606 q-22 -107 42 -150l83 22l-21 149zM530 1634l9 -72q47 1 98.5 -1.5t95.5 -26t84 -67.5t57.5 -97.5t56.5 -401.5l18 -9l13 615l-170 30zM530 1909l53 442h-14zM544 1619l248 -26l158 -31l-11 -553l-15 144q-17 160 -35 220t-59.5 105.5t-82 67t-86.5 24t-107 5.5zM544 1699 l13 -19l89 13l97 9l133 2l220 -9l145 -15l151 -2l48 -21l-4 51q-96 38 -251 48.5t-256 8t-185.5 -6t-191.5 -48.5zM552 1697l20 17q132 34 427 34q300 0 434 -51l3 -28l-61 15l-200 15l-146 7l-177 4l-129 -2l-103 -9l-63 -11zM554 1644l40 -3h6l7 28l-53 4v-29zM620 129 q-42 106 102 212q208 0 230 -84q41 -172 -104 -235q-207 0 -228 107zM682 1623h27l10 68l-22 2zM722 235q-19 -106 42 -150l84 22l-20 150zM777 392v320q271 21 291 -42q21 -107 -42 -128q63 21 63 -64l83 234h146l82 -256v-64l-208 64l-42 -64l-102 42q-83 -63 -271 -42z M795 1617l72 -15l14 87l-60 4zM848 2026q111 -12 172 -15t123 -7t74.5 3t5.5 19t-32.5 23t-80.5 16.5t-100 5.5t-81.5 -5.5t-80.5 -39.5zM881 456l104 22l-20 43h-84v-65zM881 584h84v43h-84v-43zM975 24v320q84 43 167 -85q0 85 42 85h331v-106h-83v-106h187 q-145 149 -41 212h207v-85l-103 -43q124 -128 0 -192h-332l-21 192l-84 22l-20 -214h-64l-102 108v-108h-84zM1107 1555l6 -16l-3 -629l59 -4l4 677h11v95l-77 8v-131zM1188 912l17 2q39 378 70 455t51.5 102t55 38t53.5 13v78l-246 -28zM1199 966l3 592l216 31l7 -54 q-48 -15 -73.5 -27t-45 -41.5t-44 -91.5t-46.5 -247zM1210 1989q11 -52 38.5 -66t45.5 -18t30 10t1.5 33t-30 33t-35.5 16t-50 -8zM1213 521h63l-21 106l-42 -43v-63zM1220 918l230 123v11q-29 212 -53.5 283t-52.5 60q-45 -30 -61 -66t-22.5 -70.5t-22.5 -143.5zM1246 1993 q51 -2 76 -47q9 -17 2 -22.5t-16.5 -2.5t-24.5 7t-31 18q-38 35 -6 47zM1280 1589l30 1l26 75l-41 5zM1340 1593l53 -3l25 35l5 33l-58 12zM1429 822.5q-34 -8.5 58 -2t193 19.5q-15 38 -45.5 36.5t-55 -17t-70.5 -22t-80 -15z" />
<glyph unicode="2" horiz-adv-x="0" d="M-200 1760v200h1568q148 -6 37 73q-181 149 -153.5 273t170.5 124h1008v-197h-239v-473h-246v473h-294q-135 8 -41 -67q170 -133 166.5 -257.5t-166.5 -148.5h-1810zM2337 1760l249 670h375l252 -670h-286l-47 121h-224l-48 -121h-271zM2667 1986h208l-99 267zM3304 1760 v670h491q180 -16 235 -135q22 -91 3 -139q-39 -99 -200 -132l56 -64h2117v-200h-2189l-239 221v-221h-274zM3577 2145h191q14 0 31.5 9.5t19.5 49.5q-2 40 -20.5 52t-31.5 12h-190v-123z" />
<glyph unicode="3" horiz-adv-x="0" d="M-200 1760v200h3200v-200h-3200z" />
<glyph unicode="4" horiz-adv-x="0" d="M-4424 1760v200h1568q148 -6 37 73q-181 149 -153.5 273t170.5 124h1008v-197h-239v-473h-246v473h-294q-135 8 -41 -67q170 -133 166.5 -257.5t-166.5 -148.5h-1810zM-1887 1760l249 670h375l252 -670h-286l-47 121h-224l-48 -121h-271zM-1557 1986h208l-99 267z M-920 1760v670h491q180 -16 235 -135q22 -91 3 -139q-39 -99 -200 -132l56 -64h607l92 -200h-771l-239 221v-221h-274zM-647 2145h191q14 0 31.5 9.5t19.5 49.5q-2 40 -20.5 52t-31.5 12h-190v-123zM116 2431h289l133 -289l70 289h247l105 -289l109 289h266l-249 -671h-245 l-90 283l-87 -283h-245zM1147 1760l249 670h375l252 -670h-286l-47 121h-224l-48 -121h-271zM1471 1986h208l-99 267zM2078 1760v673h493q178 -14 233 -138q21 -89 2 -139q-38 -99 -200 -131l57 -66h387q149 -6 38 74q-183 151 -155.5 275.5t171.5 124.5h410l-1 -201h-181 q-133 9 -40 -66q169 -133 166 -257t-166 -149h-702l-239 223v-223h-273zM2351 2145h191q14 0 31.5 9.5t19.5 49.5q-2 40 -20.5 52t-31.5 12h-190v-123zM3398 1760q115 9 106 200h1796v-200h-1902z" />
<glyph unicode="5" horiz-adv-x="0" d="M-3000 1760v200h3200v-200h-3200z" />
<glyph unicode="6" d="M52 606v106q352 21 352 -42q20 -107 -42 -128l42 -21q41 169 124 191q207 0 228 -85q41 -171 -103 -235h-125l-104 107q-20 -128 -289 -107l-21 214h-62zM217 456l103 22l-21 43h-82v-65zM217 584h82v43h-82v-43zM236 751q13 -10 38 -7q43 6 120 72 q-110 -22 -140.5 -38.5t-17.5 -26.5zM243 732q-57 41 134 131l232 19l-35 38l-14 37l29 45l5 19l-104 49l43 489v125q-30 7 -43 51l62 611l-49 22l-17 65l25 35l281 30l14 -50l-123 -91l-79 -7l-52 -558q60 157 142.5 214.5t192.5 73t224.5 2t174 -52t100.5 -124.5t53 -177 l14 -29l4 -140l61 -492l-210 -114l4 -18l22 -19q234 59 248 -8l89 -15q52 -61 -1 -87l-1070 -29zM307 235v106h292v-106l-146 -22h104v-63h-82l-42 -128l-84 20zM502 1078l429 -170q-27 101 -41 158t-33 124t-52 133t-101 90q-73 -6 -100 -41q-61 -77 -102 -294zM528 606 q-22 -107 42 -150l83 22l-21 149zM530 1634l9 -72q47 1 98.5 -1.5t95.5 -26t84 -67.5t57.5 -97.5t56.5 -401.5l18 -9l13 615l-170 30zM530 1909l53 442h-14zM544 1619l248 -26l158 -31l-11 -553l-15 144q-17 160 -35 220t-59.5 105.5t-82 67t-86.5 24t-107 5.5zM544 1699 l13 -19l89 13l97 9l133 2l220 -9l145 -15l151 -2l48 -21l-4 51q-96 38 -251 48.5t-256 8t-185.5 -6t-191.5 -48.5zM552 1697l20 17q132 34 427 34q300 0 434 -51l3 -28l-61 15l-200 15l-146 7l-177 4l-129 -2l-103 -9l-63 -11zM554 1644l40 -3h6l7 28l-53 4v-29zM620 129 q-42 106 102 212q208 0 230 -84q41 -172 -104 -235q-207 0 -228 107zM682 1623h27l10 68l-22 2zM722 235q-19 -106 42 -150l84 22l-20 150zM777 392v320q271 21 291 -42q21 -107 -42 -128q63 21 63 -64l83 234h146l82 -256v-64l-208 64l-42 -64l-102 42q-83 -63 -271 -42z M795 1617l72 -15l14 87l-60 4zM848 2026q111 -12 172 -15t123 -7t74.5 3t5.5 19t-32.5 23t-80.5 16.5t-100 5.5t-81.5 -5.5t-80.5 -39.5zM881 456l104 22l-20 43h-84v-65zM881 584h84v43h-84v-43zM975 24v320q84 43 167 -85q0 85 42 85h331v-106h-83v-106h187 q-145 149 -41 212h207v-85l-103 -43q124 -128 0 -192h-332l-21 192l-84 22l-20 -214h-64l-102 108v-108h-84zM1107 1555l6 -16l-3 -629l59 -4l4 677h11v95l-77 8v-131zM1188 912l17 2q39 378 70 455t51.5 102t55 38t53.5 13v78l-246 -28zM1199 966l3 592l216 31l7 -54 q-48 -15 -73.5 -27t-45 -41.5t-44 -91.5t-46.5 -247zM1210 1989q11 -52 38.5 -66t45.5 -18t30 10t1.5 33t-30 33t-35.5 16t-50 -8zM1213 521h63l-21 106l-42 -43v-63zM1220 918l230 123v11q-29 212 -53.5 283t-52.5 60q-45 -30 -61 -66t-22.5 -70.5t-22.5 -143.5zM1246 1993 q51 -2 76 -47q9 -17 2 -22.5t-16.5 -2.5t-24.5 7t-31 18q-38 35 -6 47zM1280 1589l30 1l26 75l-41 5zM1340 1593l53 -3l25 35l5 33l-58 12zM1429 822.5q-34 -8.5 58 -2t193 19.5q-15 38 -45.5 36.5t-55 -17t-70.5 -22t-80 -15z" />
<glyph unicode="7" d="M52 606v106q352 21 352 -42q20 -107 -42 -128l42 -21q41 169 124 191q207 0 228 -85q41 -171 -103 -235h-125l-104 107q-20 -128 -289 -107l-21 214h-62zM217 456l103 22l-21 43h-82v-65zM217 584h82v43h-82v-43zM236 751q13 -10 38 -7q43 6 120 72 q-110 -22 -140.5 -38.5t-17.5 -26.5zM243 732q-57 41 134 131l232 19l-35 38l-14 37l29 45l5 19l-104 49l43 489v125q-30 7 -43 51l62 611l-49 22l-17 65l25 35l281 30l14 -50l-123 -91l-79 -7l-52 -558q60 157 142.5 214.5t192.5 73t224.5 2t174 -52t100.5 -124.5t53 -177 l14 -29l4 -140l61 -492l-210 -114l4 -18l22 -19q234 59 248 -8l89 -15q52 -61 -1 -87l-1070 -29zM307 235v106h292v-106l-146 -22h104v-63h-82l-42 -128l-84 20zM502 1078l429 -170q-27 101 -41 158t-33 124t-52 133t-101 90q-73 -6 -100 -41q-61 -77 -102 -294zM528 606 q-22 -107 42 -150l83 22l-21 149zM530 1634l9 -72q47 1 98.5 -1.5t95.5 -26t84 -67.5t57.5 -97.5t56.5 -401.5l18 -9l13 615l-170 30zM530 1909l53 442h-14zM544 1619l248 -26l158 -31l-11 -553l-15 144q-17 160 -35 220t-59.5 105.5t-82 67t-86.5 24t-107 5.5zM544 1699 l13 -19l89 13l97 9l133 2l220 -9l145 -15l151 -2l48 -21l-4 51q-96 38 -251 48.5t-256 8t-185.5 -6t-191.5 -48.5zM552 1697l20 17q132 34 427 34q300 0 434 -51l3 -28l-61 15l-200 15l-146 7l-177 4l-129 -2l-103 -9l-63 -11zM554 1644l40 -3h6l7 28l-53 4v-29zM620 129 q-42 106 102 212q208 0 230 -84q41 -172 -104 -235q-207 0 -228 107zM682 1623h27l10 68l-22 2zM722 235q-19 -106 42 -150l84 22l-20 150zM777 392v320q271 21 291 -42q21 -107 -42 -128q63 21 63 -64l83 234h146l82 -256v-64l-208 64l-42 -64l-102 42q-83 -63 -271 -42z M795 1617l72 -15l14 87l-60 4zM848 2026q111 -12 172 -15t123 -7t74.5 3t5.5 19t-32.5 23t-80.5 16.5t-100 5.5t-81.5 -5.5t-80.5 -39.5zM881 456l104 22l-20 43h-84v-65zM881 584h84v43h-84v-43zM975 24v320q84 43 167 -85q0 85 42 85h331v-106h-83v-106h187 q-145 149 -41 212h207v-85l-103 -43q124 -128 0 -192h-332l-21 192l-84 22l-20 -214h-64l-102 108v-108h-84zM1107 1555l6 -16l-3 -629l59 -4l4 677h11v95l-77 8v-131zM1188 912l17 2q39 378 70 455t51.5 102t55 38t53.5 13v78l-246 -28zM1199 966l3 592l216 31l7 -54 q-48 -15 -73.5 -27t-45 -41.5t-44 -91.5t-46.5 -247zM1210 1989q11 -52 38.5 -66t45.5 -18t30 10t1.5 33t-30 33t-35.5 16t-50 -8zM1213 521h63l-21 106l-42 -43v-63zM1220 918l230 123v11q-29 212 -53.5 283t-52.5 60q-45 -30 -61 -66t-22.5 -70.5t-22.5 -143.5zM1246 1993 q51 -2 76 -47q9 -17 2 -22.5t-16.5 -2.5t-24.5 7t-31 18q-38 35 -6 47zM1280 1589l30 1l26 75l-41 5zM1340 1593l53 -3l25 35l5 33l-58 12zM1429 822.5q-34 -8.5 58 -2t193 19.5q-15 38 -45.5 36.5t-55 -17t-70.5 -22t-80 -15z" />
<glyph unicode="8" d="M52 606v106q352 21 352 -42q20 -107 -42 -128l42 -21q41 169 124 191q207 0 228 -85q41 -171 -103 -235h-125l-104 107q-20 -128 -289 -107l-21 214h-62zM217 456l103 22l-21 43h-82v-65zM217 584h82v43h-82v-43zM236 751q13 -10 38 -7q43 6 120 72 q-110 -22 -140.5 -38.5t-17.5 -26.5zM243 732q-57 41 134 131l232 19l-35 38l-14 37l29 45l5 19l-104 49l43 489v125q-30 7 -43 51l62 611l-49 22l-17 65l25 35l281 30l14 -50l-123 -91l-79 -7l-52 -558q60 157 142.5 214.5t192.5 73t224.5 2t174 -52t100.5 -124.5t53 -177 l14 -29l4 -140l61 -492l-210 -114l4 -18l22 -19q234 59 248 -8l89 -15q52 -61 -1 -87l-1070 -29zM307 235v106h292v-106l-146 -22h104v-63h-82l-42 -128l-84 20zM502 1078l429 -170q-27 101 -41 158t-33 124t-52 133t-101 90q-73 -6 -100 -41q-61 -77 -102 -294zM528 606 q-22 -107 42 -150l83 22l-21 149zM530 1634l9 -72q47 1 98.5 -1.5t95.5 -26t84 -67.5t57.5 -97.5t56.5 -401.5l18 -9l13 615l-170 30zM530 1909l53 442h-14zM544 1619l248 -26l158 -31l-11 -553l-15 144q-17 160 -35 220t-59.5 105.5t-82 67t-86.5 24t-107 5.5zM544 1699 l13 -19l89 13l97 9l133 2l220 -9l145 -15l151 -2l48 -21l-4 51q-96 38 -251 48.5t-256 8t-185.5 -6t-191.5 -48.5zM552 1697l20 17q132 34 427 34q300 0 434 -51l3 -28l-61 15l-200 15l-146 7l-177 4l-129 -2l-103 -9l-63 -11zM554 1644l40 -3h6l7 28l-53 4v-29zM620 129 q-42 106 102 212q208 0 230 -84q41 -172 -104 -235q-207 0 -228 107zM682 1623h27l10 68l-22 2zM722 235q-19 -106 42 -150l84 22l-20 150zM777 392v320q271 21 291 -42q21 -107 -42 -128q63 21 63 -64l83 234h146l82 -256v-64l-208 64l-42 -64l-102 42q-83 -63 -271 -42z M795 1617l72 -15l14 87l-60 4zM848 2026q111 -12 172 -15t123 -7t74.5 3t5.5 19t-32.5 23t-80.5 16.5t-100 5.5t-81.5 -5.5t-80.5 -39.5zM881 456l104 22l-20 43h-84v-65zM881 584h84v43h-84v-43zM975 24v320q84 43 167 -85q0 85 42 85h331v-106h-83v-106h187 q-145 149 -41 212h207v-85l-103 -43q124 -128 0 -192h-332l-21 192l-84 22l-20 -214h-64l-102 108v-108h-84zM1107 1555l6 -16l-3 -629l59 -4l4 677h11v95l-77 8v-131zM1188 912l17 2q39 378 70 455t51.5 102t55 38t53.5 13v78l-246 -28zM1199 966l3 592l216 31l7 -54 q-48 -15 -73.5 -27t-45 -41.5t-44 -91.5t-46.5 -247zM1210 1989q11 -52 38.5 -66t45.5 -18t30 10t1.5 33t-30 33t-35.5 16t-50 -8zM1213 521h63l-21 106l-42 -43v-63zM1220 918l230 123v11q-29 212 -53.5 283t-52.5 60q-45 -30 -61 -66t-22.5 -70.5t-22.5 -143.5zM1246 1993 q51 -2 76 -47q9 -17 2 -22.5t-16.5 -2.5t-24.5 7t-31 18q-38 35 -6 47zM1280 1589l30 1l26 75l-41 5zM1340 1593l53 -3l25 35l5 33l-58 12zM1429 822.5q-34 -8.5 58 -2t193 19.5q-15 38 -45.5 36.5t-55 -17t-70.5 -22t-80 -15z" />
<glyph unicode="9" d="M52 606v106q352 21 352 -42q20 -107 -42 -128l42 -21q41 169 124 191q207 0 228 -85q41 -171 -103 -235h-125l-104 107q-20 -128 -289 -107l-21 214h-62zM217 456l103 22l-21 43h-82v-65zM217 584h82v43h-82v-43zM236 751q13 -10 38 -7q43 6 120 72 q-110 -22 -140.5 -38.5t-17.5 -26.5zM243 732q-57 41 134 131l232 19l-35 38l-14 37l29 45l5 19l-104 49l43 489v125q-30 7 -43 51l62 611l-49 22l-17 65l25 35l281 30l14 -50l-123 -91l-79 -7l-52 -558q60 157 142.5 214.5t192.5 73t224.5 2t174 -52t100.5 -124.5t53 -177 l14 -29l4 -140l61 -492l-210 -114l4 -18l22 -19q234 59 248 -8l89 -15q52 -61 -1 -87l-1070 -29zM307 235v106h292v-106l-146 -22h104v-63h-82l-42 -128l-84 20zM502 1078l429 -170q-27 101 -41 158t-33 124t-52 133t-101 90q-73 -6 -100 -41q-61 -77 -102 -294zM528 606 q-22 -107 42 -150l83 22l-21 149zM530 1634l9 -72q47 1 98.5 -1.5t95.5 -26t84 -67.5t57.5 -97.5t56.5 -401.5l18 -9l13 615l-170 30zM530 1909l53 442h-14zM544 1619l248 -26l158 -31l-11 -553l-15 144q-17 160 -35 220t-59.5 105.5t-82 67t-86.5 24t-107 5.5zM544 1699 l13 -19l89 13l97 9l133 2l220 -9l145 -15l151 -2l48 -21l-4 51q-96 38 -251 48.5t-256 8t-185.5 -6t-191.5 -48.5zM552 1697l20 17q132 34 427 34q300 0 434 -51l3 -28l-61 15l-200 15l-146 7l-177 4l-129 -2l-103 -9l-63 -11zM554 1644l40 -3h6l7 28l-53 4v-29zM620 129 q-42 106 102 212q208 0 230 -84q41 -172 -104 -235q-207 0 -228 107zM682 1623h27l10 68l-22 2zM722 235q-19 -106 42 -150l84 22l-20 150zM777 392v320q271 21 291 -42q21 -107 -42 -128q63 21 63 -64l83 234h146l82 -256v-64l-208 64l-42 -64l-102 42q-83 -63 -271 -42z M795 1617l72 -15l14 87l-60 4zM848 2026q111 -12 172 -15t123 -7t74.5 3t5.5 19t-32.5 23t-80.5 16.5t-100 5.5t-81.5 -5.5t-80.5 -39.5zM881 456l104 22l-20 43h-84v-65zM881 584h84v43h-84v-43zM975 24v320q84 43 167 -85q0 85 42 85h331v-106h-83v-106h187 q-145 149 -41 212h207v-85l-103 -43q124 -128 0 -192h-332l-21 192l-84 22l-20 -214h-64l-102 108v-108h-84zM1107 1555l6 -16l-3 -629l59 -4l4 677h11v95l-77 8v-131zM1188 912l17 2q39 378 70 455t51.5 102t55 38t53.5 13v78l-246 -28zM1199 966l3 592l216 31l7 -54 q-48 -15 -73.5 -27t-45 -41.5t-44 -91.5t-46.5 -247zM1210 1989q11 -52 38.5 -66t45.5 -18t30 10t1.5 33t-30 33t-35.5 16t-50 -8zM1213 521h63l-21 106l-42 -43v-63zM1220 918l230 123v11q-29 212 -53.5 283t-52.5 60q-45 -30 -61 -66t-22.5 -70.5t-22.5 -143.5zM1246 1993 q51 -2 76 -47q9 -17 2 -22.5t-16.5 -2.5t-24.5 7t-31 18q-38 35 -6 47zM1280 1589l30 1l26 75l-41 5zM1340 1593l53 -3l25 35l5 33l-58 12zM1429 822.5q-34 -8.5 58 -2t193 19.5q-15 38 -45.5 36.5t-55 -17t-70.5 -22t-80 -15z" />
<glyph unicode=":" horiz-adv-x="758" d="M156 0v397h446v-397h-446zM156 680v397h446v-397h-446z" />
<glyph unicode=";" horiz-adv-x="1360" d="M0 1014v430h1298v-430h-768v-166h496v-252h-496v-166h1230v-430h-1700v1014h-60z" />
<glyph unicode="&#x3c;" d="M52 606v106q352 21 352 -42q20 -107 -42 -128l42 -21q41 169 124 191q207 0 228 -85q41 -171 -103 -235h-125l-104 107q-20 -128 -289 -107l-21 214h-62zM217 456l103 22l-21 43h-82v-65zM217 584h82v43h-82v-43zM236 751q13 -10 38 -7q43 6 120 72 q-110 -22 -140.5 -38.5t-17.5 -26.5zM243 732q-57 41 134 131l232 19l-35 38l-14 37l29 45l5 19l-104 49l43 489v125q-30 7 -43 51l62 611l-49 22l-17 65l25 35l281 30l14 -50l-123 -91l-79 -7l-52 -558q60 157 142.5 214.5t192.5 73t224.5 2t174 -52t100.5 -124.5t53 -177 l14 -29l4 -140l61 -492l-210 -114l4 -18l22 -19q234 59 248 -8l89 -15q52 -61 -1 -87l-1070 -29zM307 235v106h292v-106l-146 -22h104v-63h-82l-42 -128l-84 20zM502 1078l429 -170q-27 101 -41 158t-33 124t-52 133t-101 90q-73 -6 -100 -41q-61 -77 -102 -294zM528 606 q-22 -107 42 -150l83 22l-21 149zM530 1634l9 -72q47 1 98.5 -1.5t95.5 -26t84 -67.5t57.5 -97.5t56.5 -401.5l18 -9l13 615l-170 30zM530 1909l53 442h-14zM544 1619l248 -26l158 -31l-11 -553l-15 144q-17 160 -35 220t-59.5 105.5t-82 67t-86.5 24t-107 5.5zM544 1699 l13 -19l89 13l97 9l133 2l220 -9l145 -15l151 -2l48 -21l-4 51q-96 38 -251 48.5t-256 8t-185.5 -6t-191.5 -48.5zM552 1697l20 17q132 34 427 34q300 0 434 -51l3 -28l-61 15l-200 15l-146 7l-177 4l-129 -2l-103 -9l-63 -11zM554 1644l40 -3h6l7 28l-53 4v-29zM620 129 q-42 106 102 212q208 0 230 -84q41 -172 -104 -235q-207 0 -228 107zM682 1623h27l10 68l-22 2zM722 235q-19 -106 42 -150l84 22l-20 150zM777 392v320q271 21 291 -42q21 -107 -42 -128q63 21 63 -64l83 234h146l82 -256v-64l-208 64l-42 -64l-102 42q-83 -63 -271 -42z M795 1617l72 -15l14 87l-60 4zM848 2026q111 -12 172 -15t123 -7t74.5 3t5.5 19t-32.5 23t-80.5 16.5t-100 5.5t-81.5 -5.5t-80.5 -39.5zM881 456l104 22l-20 43h-84v-65zM881 584h84v43h-84v-43zM975 24v320q84 43 167 -85q0 85 42 85h331v-106h-83v-106h187 q-145 149 -41 212h207v-85l-103 -43q124 -128 0 -192h-332l-21 192l-84 22l-20 -214h-64l-102 108v-108h-84zM1107 1555l6 -16l-3 -629l59 -4l4 677h11v95l-77 8v-131zM1188 912l17 2q39 378 70 455t51.5 102t55 38t53.5 13v78l-246 -28zM1199 966l3 592l216 31l7 -54 q-48 -15 -73.5 -27t-45 -41.5t-44 -91.5t-46.5 -247zM1210 1989q11 -52 38.5 -66t45.5 -18t30 10t1.5 33t-30 33t-35.5 16t-50 -8zM1213 521h63l-21 106l-42 -43v-63zM1220 918l230 123v11q-29 212 -53.5 283t-52.5 60q-45 -30 -61 -66t-22.5 -70.5t-22.5 -143.5zM1246 1993 q51 -2 76 -47q9 -17 2 -22.5t-16.5 -2.5t-24.5 7t-31 18q-38 35 -6 47zM1280 1589l30 1l26 75l-41 5zM1340 1593l53 -3l25 35l5 33l-58 12zM1429 822.5q-34 -8.5 58 -2t193 19.5q-15 38 -45.5 36.5t-55 -17t-70.5 -22t-80 -15z" />
<glyph unicode="=" horiz-adv-x="1456" d="M-100 0v430h1656v-430h-1656z" />
<glyph unicode="&#x3e;" d="M52 606v106q352 21 352 -42q20 -107 -42 -128l42 -21q41 169 124 191q207 0 228 -85q41 -171 -103 -235h-125l-104 107q-20 -128 -289 -107l-21 214h-62zM217 456l103 22l-21 43h-82v-65zM217 584h82v43h-82v-43zM236 751q13 -10 38 -7q43 6 120 72 q-110 -22 -140.5 -38.5t-17.5 -26.5zM243 732q-57 41 134 131l232 19l-35 38l-14 37l29 45l5 19l-104 49l43 489v125q-30 7 -43 51l62 611l-49 22l-17 65l25 35l281 30l14 -50l-123 -91l-79 -7l-52 -558q60 157 142.5 214.5t192.5 73t224.5 2t174 -52t100.5 -124.5t53 -177 l14 -29l4 -140l61 -492l-210 -114l4 -18l22 -19q234 59 248 -8l89 -15q52 -61 -1 -87l-1070 -29zM307 235v106h292v-106l-146 -22h104v-63h-82l-42 -128l-84 20zM502 1078l429 -170q-27 101 -41 158t-33 124t-52 133t-101 90q-73 -6 -100 -41q-61 -77 -102 -294zM528 606 q-22 -107 42 -150l83 22l-21 149zM530 1634l9 -72q47 1 98.5 -1.5t95.5 -26t84 -67.5t57.5 -97.5t56.5 -401.5l18 -9l13 615l-170 30zM530 1909l53 442h-14zM544 1619l248 -26l158 -31l-11 -553l-15 144q-17 160 -35 220t-59.5 105.5t-82 67t-86.5 24t-107 5.5zM544 1699 l13 -19l89 13l97 9l133 2l220 -9l145 -15l151 -2l48 -21l-4 51q-96 38 -251 48.5t-256 8t-185.5 -6t-191.5 -48.5zM552 1697l20 17q132 34 427 34q300 0 434 -51l3 -28l-61 15l-200 15l-146 7l-177 4l-129 -2l-103 -9l-63 -11zM554 1644l40 -3h6l7 28l-53 4v-29zM620 129 q-42 106 102 212q208 0 230 -84q41 -172 -104 -235q-207 0 -228 107zM682 1623h27l10 68l-22 2zM722 235q-19 -106 42 -150l84 22l-20 150zM777 392v320q271 21 291 -42q21 -107 -42 -128q63 21 63 -64l83 234h146l82 -256v-64l-208 64l-42 -64l-102 42q-83 -63 -271 -42z M795 1617l72 -15l14 87l-60 4zM848 2026q111 -12 172 -15t123 -7t74.5 3t5.5 19t-32.5 23t-80.5 16.5t-100 5.5t-81.5 -5.5t-80.5 -39.5zM881 456l104 22l-20 43h-84v-65zM881 584h84v43h-84v-43zM975 24v320q84 43 167 -85q0 85 42 85h331v-106h-83v-106h187 q-145 149 -41 212h207v-85l-103 -43q124 -128 0 -192h-332l-21 192l-84 22l-20 -214h-64l-102 108v-108h-84zM1107 1555l6 -16l-3 -629l59 -4l4 677h11v95l-77 8v-131zM1188 912l17 2q39 378 70 455t51.5 102t55 38t53.5 13v78l-246 -28zM1199 966l3 592l216 31l7 -54 q-48 -15 -73.5 -27t-45 -41.5t-44 -91.5t-46.5 -247zM1210 1989q11 -52 38.5 -66t45.5 -18t30 10t1.5 33t-30 33t-35.5 16t-50 -8zM1213 521h63l-21 106l-42 -43v-63zM1220 918l230 123v11q-29 212 -53.5 283t-52.5 60q-45 -30 -61 -66t-22.5 -70.5t-22.5 -143.5zM1246 1993 q51 -2 76 -47q9 -17 2 -22.5t-16.5 -2.5t-24.5 7t-31 18q-38 35 -6 47zM1280 1589l30 1l26 75l-41 5zM1340 1593l53 -3l25 35l5 33l-58 12zM1429 822.5q-34 -8.5 58 -2t193 19.5q-15 38 -45.5 36.5t-55 -17t-70.5 -22t-80 -15z" />
<glyph unicode="?" horiz-adv-x="1176" d="M84 1040v353q239 75 446 75q311 0 470 -135q92 -78 92 -197.5t-48.5 -188t-147 -148.5t-142 -132t-43.5 -132h-410q13 240 137 331q50 38 93.5 72t43.5 86t-52 68t-135 16q-160 0 -304 -68zM283 0v385h446v-385h-446z" />
<glyph unicode="@" d="M52 606v106q352 21 352 -42q20 -107 -42 -128l42 -21q41 169 124 191q207 0 228 -85q41 -171 -103 -235h-125l-104 107q-20 -128 -289 -107l-21 214h-62zM217 456l103 22l-21 43h-82v-65zM217 584h82v43h-82v-43zM236 751q13 -10 38 -7q43 6 120 72 q-110 -22 -140.5 -38.5t-17.5 -26.5zM243 732q-57 41 134 131l232 19l-35 38l-14 37l29 45l5 19l-104 49l43 489v125q-30 7 -43 51l62 611l-49 22l-17 65l25 35l281 30l14 -50l-123 -91l-79 -7l-52 -558q60 157 142.5 214.5t192.5 73t224.5 2t174 -52t100.5 -124.5t53 -177 l14 -29l4 -140l61 -492l-210 -114l4 -18l22 -19q234 59 248 -8l89 -15q52 -61 -1 -87l-1070 -29zM307 235v106h292v-106l-146 -22h104v-63h-82l-42 -128l-84 20zM502 1078l429 -170q-27 101 -41 158t-33 124t-52 133t-101 90q-73 -6 -100 -41q-61 -77 -102 -294zM528 606 q-22 -107 42 -150l83 22l-21 149zM530 1634l9 -72q47 1 98.5 -1.5t95.5 -26t84 -67.5t57.5 -97.5t56.5 -401.5l18 -9l13 615l-170 30zM530 1909l53 442h-14zM544 1619l248 -26l158 -31l-11 -553l-15 144q-17 160 -35 220t-59.5 105.5t-82 67t-86.5 24t-107 5.5zM544 1699 l13 -19l89 13l97 9l133 2l220 -9l145 -15l151 -2l48 -21l-4 51q-96 38 -251 48.5t-256 8t-185.5 -6t-191.5 -48.5zM552 1697l20 17q132 34 427 34q300 0 434 -51l3 -28l-61 15l-200 15l-146 7l-177 4l-129 -2l-103 -9l-63 -11zM554 1644l40 -3h6l7 28l-53 4v-29zM620 129 q-42 106 102 212q208 0 230 -84q41 -172 -104 -235q-207 0 -228 107zM682 1623h27l10 68l-22 2zM722 235q-19 -106 42 -150l84 22l-20 150zM777 392v320q271 21 291 -42q21 -107 -42 -128q63 21 63 -64l83 234h146l82 -256v-64l-208 64l-42 -64l-102 42q-83 -63 -271 -42z M795 1617l72 -15l14 87l-60 4zM848 2026q111 -12 172 -15t123 -7t74.5 3t5.5 19t-32.5 23t-80.5 16.5t-100 5.5t-81.5 -5.5t-80.5 -39.5zM881 456l104 22l-20 43h-84v-65zM881 584h84v43h-84v-43zM975 24v320q84 43 167 -85q0 85 42 85h331v-106h-83v-106h187 q-145 149 -41 212h207v-85l-103 -43q124 -128 0 -192h-332l-21 192l-84 22l-20 -214h-64l-102 108v-108h-84zM1107 1555l6 -16l-3 -629l59 -4l4 677h11v95l-77 8v-131zM1188 912l17 2q39 378 70 455t51.5 102t55 38t53.5 13v78l-246 -28zM1199 966l3 592l216 31l7 -54 q-48 -15 -73.5 -27t-45 -41.5t-44 -91.5t-46.5 -247zM1210 1989q11 -52 38.5 -66t45.5 -18t30 10t1.5 33t-30 33t-35.5 16t-50 -8zM1213 521h63l-21 106l-42 -43v-63zM1220 918l230 123v11q-29 212 -53.5 283t-52.5 60q-45 -30 -61 -66t-22.5 -70.5t-22.5 -143.5zM1246 1993 q51 -2 76 -47q9 -17 2 -22.5t-16.5 -2.5t-24.5 7t-31 18q-38 35 -6 47zM1280 1589l30 1l26 75l-41 5zM1340 1593l53 -3l25 35l5 33l-58 12zM1429 822.5q-34 -8.5 58 -2t193 19.5q-15 38 -45.5 36.5t-55 -17t-70.5 -22t-80 -15z" />
<glyph unicode="A" horiz-adv-x="1515" d="M-100 1014v430h1212l483 -1444h-546l-91 260h-429l-91 -260h-518l333 1014h-353zM548 552h398l-191 572z" />
<glyph unicode="B" horiz-adv-x="1628" d="M-240 1014v430h1285q237 -2 360.5 -82t149.5 -268q1 -16 1 -32q0 -121 -62 -194q-70 -82 -231 -135v-4q157 -20 259 -119q95 -94 95 -211q0 -171 -87.5 -259t-225.5 -115q-128 -25 -306 -25h-27h-911v1014h-300zM558 292h321h12q76 0 133 36q62 39 62 96q1 6 1 12 q1 55 -51 87q-56 36 -157 36h-321v-267zM558 875h350q29 0 61 30.5t34 81.5q-4 59 -38.5 83t-57.5 24h-349v-219z" />
<glyph unicode="C" horiz-adv-x="1440" d="M10 739q0 341 240 529q112 89 227 142.5t339 65.5q232 -12 354 -56t246 -160l-284 -316q-72 60 -128 86t-184 34q-124 -16 -185 -51t-105 -95t-52 -180q8 -120 52 -180t105 -95t185 -51q128 8 184 34t128 86l284 -316q-124 -116 -246 -160t-354 -56q-224 12 -339 65.5 t-227 142.5q-240 188 -240 531z" />
<glyph unicode="D" horiz-adv-x="1662" d="M-240 1014v430h1152q506 0 680 -381q60 -133 60 -346q-22 -386 -212 -553q-187 -164 -524 -164h-28h-828v1014h-300zM542 360h275q161 0 243 140q36 62 46 222q-3 146 -40 216q-81 148 -251 148h-273v-726z" />
<glyph unicode="E" horiz-adv-x="1360" d="M-240 1014v430h1538v-430h-768v-166h496v-252h-496v-166h890v-430h-1360v1014h-300z" />
<glyph unicode="F" horiz-adv-x="1328" d="M-240 1014v430h1538v-430h-768v-166h496v-252h-496v-596h-470v1014h-300z" />
<glyph unicode="G" horiz-adv-x="1440" d="M10 743q0 170 63.5 303.5t176 222t227.5 142t339 65.5q232 -12 354 -56t246 -160l-284 -316q-72 60 -128 86t-184 34q-124 -16 -182 -54t-102 -98t-56 -184q12 -124 56 -174t110 -82t142 -40q43 -5 107 -5q47 0 106 3v292h439v-722h-621q-228 0 -412.5 83.5t-290.5 250.5 t-106 409z" />
<glyph unicode="H" horiz-adv-x="1398" d="M-260 1014v430h770v-498h378v498h470v-1444h-470v520h-378v-520h-470v1014h-300z" />
<glyph unicode="I" horiz-adv-x="1398" d="M40 0v1444h470v-498h378v498h870v-430h-400v-1014h-470v520h-378v-520h-470z" />
<glyph unicode="J" d="M52 606v106q88 5 154 5q198 0 198 -47q5 -26 5 -47q0 -65 -47 -81l42 -21q41 169 124 191q207 0 228 -85q9 -38 9 -71q0 -114 -112 -164h-125l-104 107q-17 -110 -218 -110q-33 0 -71 3l-21 214h-62zM217 456l103 22l-21 43h-82v-65zM217 584h82v43h-82v-43zM236 751 q13 -10 38 -7q43 6 120 72q-110 -22 -140 -38q-22 -12 -22 -20q0 -4 4 -7zM243 732q-13 9 -13 21q0 41 147 110l232 19l-35 38l-14 37l29 45l5 19l-104 49l43 489v125q-30 7 -43 51l62 611l-49 22l-17 65l25 35l281 30l14 -50l-123 -91l-79 -7l-52 -558q60 157 142.5 214.5 t192.5 73.5q59 8 119 8q52 0 106 -6q114 -14 173.5 -52.5t100.5 -124.5t53 -177l14 -29l4 -140l61 -492l-210 -114l4 -18l22 -19q110 28 171 28q70 0 77 -36l89 -15q26 -30 26 -52t-27 -35l-1070 -29zM307 235v106h292v-106l-146 -22h104v-63h-82l-42 -128l-84 20zM502 1078 l429 -170q-27 101 -41 158t-33 124t-52 133t-101 90q-73 -6 -100 -41q-61 -77 -102 -294zM528 606q-6 -27 -6 -51q0 -67 48 -99l83 22l-21 149zM530 1634l9 -72h27q35 0 72 -2q51 -2 95 -25.5t84 -67.5t57.5 -97.5t56.5 -401.5l18 -9l13 615l-170 30zM530 1909l53 442h-14z M544 1619l248 -26l158 -31l-11 -553l-15 144q-17 160 -35 220t-59.5 105.5t-82 67t-86.5 24t-107 5.5zM544 1699l13 -19l89 13l97 9l133 2l220 -9l145 -15l151 -2l48 -21l-4 51q-96 38 -251 48q-125 9 -215 9q-22 0 -41 -1q-101 -2 -185.5 -5.5t-191.5 -48.5zM552 1697 l20 17q132 34 427 34q300 0 434 -51l3 -28l-61 15l-200 15l-146 7l-177 4l-129 -2l-103 -9l-63 -11zM554 1644l40 -3h6l7 28l-53 4v-29zM620 129q-9 24 -9 48q0 82 111 164q208 0 230 -84q9 -38 9 -71q0 -115 -113 -164q-207 0 -228 107zM682 1623h27l10 68l-22 2zM722 235 q-5 -25 -5 -47q0 -69 47 -103l84 22l-20 150zM777 392v320q68 5 120 5q156 0 171 -47q5 -27 5 -48q0 -64 -47 -80q12 4 22 4q41 0 41 -68l83 234h146l82 -256v-64l-208 64l-42 -64l-102 42q-62 -47 -184 -47q-40 0 -87 5zM795 1617l72 -15l14 87l-60 4zM848 2026 q111 -12 172 -15t123 -7q23 -1 39 -1q28 0 36 4q12 7 5 19t-32.5 23t-80.5 16.5t-100 5.5t-81.5 -5.5t-80.5 -39.5zM881 456l104 22l-20 43h-84v-65zM881 584h84v43h-84v-43zM975 24v320q21 11 42 11q63 0 125 -96q0 85 42 85h331v-106h-83v-106h187q-84 87 -84 144 q0 42 43 68h207v-85l-103 -43q62 -64 62 -112t-62 -80h-332l-21 192l-84 22l-20 -214h-64l-102 108v-108h-84zM1107 1555l6 -16l-3 -629l59 -4l4 677h11v95l-77 8v-131zM1188 912l17 2q39 378 70 455t51.5 102t55 38t53.5 13v78l-246 -28zM1199 966l3 592l216 31l7 -54 q-48 -15 -73.5 -27t-45 -41.5t-44 -91.5t-46.5 -247zM1210 1989q11 -52 38.5 -66t45.5 -18t30 10t1.5 33t-30 33t-35.5 16h-6q-16 0 -44 -8zM1213 521h63l-21 106l-42 -43v-63zM1220 918l230 123v11q-29 212 -54 283q-21 61 -45 61q-3 0 -7 -1q-45 -30 -61 -66t-22.5 -70.5 t-22.5 -143.5zM1246 1993q51 -2 76 -47q9 -17 2 -22.5t-16.5 -2.5t-24.5 7t-31 18q-21 19 -21 31q0 11 15 16zM1280 1589l30 1l26 75l-41 5zM1340 1593l53 -3l25 35l5 33l-58 12zM1429 822q-9 -2 -9 -3t11 -1q16 0 56 2q92 7 193 20q-14 37 -43 37q-1 0 -3 -1 q-30 -1 -54.5 -16.5t-70.5 -22t-80 -15.5z" />
<glyph unicode="K" horiz-adv-x="1404" d="M60 0v1444h470v-470l330 470h470l-538 -722l240 -292h772v-430h-910l-364 430v-430h-470z" />
<glyph unicode="L" horiz-adv-x="1312" d="M-240 1014v430h770v-1014h782v-430h-1252v1014h-300z" />
<glyph unicode="M" horiz-adv-x="1650" d="M-260 1014v430h770l316 -600l314 600h470v-1444h-470v600l-302 -600h-26l-302 600v-600h-470v1014h-300z" />
<glyph unicode="N" horiz-adv-x="1430" d="M60 0v1444h470l430 -540v540h870v-430h-400v-1014h-470l-430 540v-540h-470z" />
<glyph unicode="O" horiz-adv-x="1430" d="M-240 1014v430h770l430 -540v540h470v-1444h-470l-430 540v-540h-470v1014h-300z" />
<glyph unicode="P" horiz-adv-x="1501" d="M-240 1014v430h1240q354 -33 450 -296q37 -135 37 -213q0 -14 -1 -27q-8 -80 -32 -150t-132 -162t-288 -119h-452v-477h-522v1014h-300zM582 818h364q29 0 63 21.5t36 108.5q-5 83 -40.5 109.5t-59.5 26.5h-363v-266z" />
<glyph unicode="Q" horiz-adv-x="1650" d="M40 0v1444h470l314 -600l316 600h870v-430h-400v-1014h-470v600l-302 -600h-26l-302 600v-600h-470z" />
<glyph unicode="R" horiz-adv-x="1550" d="M60 0v1444h940q343 -31 450 -296q21 -101 21 -178q0 -69 -17 -118q-36 -104 -126 -174t-258 -110l108 -138h772v-430h-910l-458 477v-477h-522zM582 818h364q29 0 63 21.5t36 108.5q-5 83 -40.5 109.5t-59.5 26.5h-363v-266z" />
<glyph unicode="S" horiz-adv-x="1135" d="M-492 0v430h796h25q137 0 137 48q0 39 -90 110q-303 278 -303 517q0 36 7 71q52 268 328 268h890v-430h-454h-25q-126 0 -126 -45q0 -35 75 -97q318 -279 318 -542v-10q-6 -268 -318 -320h-1260z" />
<glyph unicode="T" horiz-adv-x="1070" d="M-158 1014v430h1386v-430h-458v-1014h-470v1014h-458z" />
<glyph unicode="U" d="M52 606v106q88 5 154 5q198 0 198 -47q5 -26 5 -47q0 -65 -47 -81l42 -21q41 169 124 191q207 0 228 -85q9 -38 9 -71q0 -115 -112 -164h-125l-104 107q-17 -110 -218 -110q-33 0 -71 3l-21 214h-62zM217 456l103 22l-21 43h-82v-65zM217 584h82v43h-82v-43zM236 751 q13 -10 38 -7q43 6 120 72q-110 -22 -140 -38q-21 -12 -22 -20q0 -4 4 -7zM243 732q-13 9 -13 21q0 40 147 110l232 19l-35 38l-14 37l29 45l5 19l-104 49l43 489v125q-30 7 -43 51l62 611l-49 22l-17 65l25 35l281 30l14 -50l-123 -91l-79 -7l-52 -558q60 157 142.5 214.5 t192.5 73.5q59 8 119 8q52 0 106 -6q114 -14 173.5 -52.5t100.5 -124.5t53 -177l14 -29l4 -140l61 -492l-210 -114l4 -18l22 -19q110 28 171 27q70 0 77 -35l89 -15q26 -30 26 -52t-27 -35l-1070 -29zM307 235v106h292v-106l-146 -22h104v-63h-82l-42 -128l-84 20zM502 1078 l429 -170q-27 101 -41 158t-33 124t-52 133t-101 90q-73 -6 -100 -41q-61 -77 -102 -294zM528 606q-6 -27 -6 -51q0 -67 48 -99l83 22l-21 149zM530 1634l9 -72h27q34 0 72 -2q52 -2 95.5 -25.5t83.5 -67.5t57.5 -97.5t56.5 -401.5l18 -9l13 615l-170 30zM530 1909l53 442 h-14zM544 1619l248 -26l158 -31l-11 -553l-15 144q-17 160 -35 220t-59.5 105.5t-82 67t-86.5 24t-107 5.5zM544 1699l13 -19l89 13l97 9l133 2l220 -9l145 -15l151 -2l48 -21l-4 51q-96 38 -251 48q-125 8 -215 9q-21 -1 -41 -1q-101 -2 -185.5 -5.5t-191.5 -48.5z M552 1697l20 17q132 34 427 34q300 0 434 -51l3 -28l-61 15l-200 15l-146 7l-177 4l-129 -2l-103 -9l-63 -11zM554 1644l40 -3h6l7 28l-53 4v-29zM620 129q-9 24 -9 48q0 82 111 164q208 0 230 -84q9 -38 9 -71q0 -115 -113 -164q-207 0 -228 107zM682 1623h27l10 68l-22 2z M722 235q-5 -25 -4 -47q0 -70 46 -103l84 22l-20 150zM777 392v320q68 5 120 5q156 0 171 -47q5 -27 5 -48q0 -64 -47 -80q12 4 22 4q41 0 41 -68l83 234h146l82 -256v-64l-208 64l-42 -64l-102 42q-62 -47 -184 -47q-40 0 -87 5zM795 1617l72 -15l14 87l-60 4zM848 2026 q111 -12 172 -15t123 -7q23 -1 39 -1q28 0 36 4q12 7 5 19t-32.5 23t-80.5 16.5t-100 5.5t-81.5 -5.5t-80.5 -39.5zM881 456l104 22l-20 43h-84v-65zM881 584h84v43h-84v-43zM975 24v320q21 11 42 11q63 0 125 -96q0 85 42 85h331v-106h-83v-106h187q-84 87 -84 144 q0 41 43 68h207v-85l-103 -43q62 -64 62 -112t-62 -80h-332l-21 192l-84 22l-20 -214h-64l-102 108v-108h-84zM1107 1555l6 -16l-3 -629l59 -4l4 677h11v95l-77 8v-131zM1188 912l17 2q39 378 70 455t51.5 102t55 38t53.5 13v78l-246 -28zM1199 966l3 592l216 31l7 -54 q-48 -15 -73.5 -27t-45 -41.5t-44 -91.5t-46.5 -247zM1210 1989q11 -52 38.5 -66t45.5 -18t30 10t1.5 33t-30 33t-35.5 16h-6q-16 0 -44 -8zM1213 521h63l-21 106l-42 -43v-63zM1220 918l230 123v11q-30 212 -54 283q-21 61 -45 61q-4 0 -7 -1q-45 -30 -61 -66t-22.5 -70.5 t-22.5 -143.5zM1246 1993q51 -2 76 -47q9 -17 2 -22.5t-16.5 -2.5t-24.5 7t-31 18q-21 19 -21 31q0 11 15 16zM1280 1589l30 1l26 75l-41 5zM1340 1593l53 -3l25 35l5 33l-58 12zM1429 822q-9 -2 -9 -3t11 -1q16 0 56 2q92 6 193 20q-14 37 -43 37q-1 -1 -3 -1 q-30 -2 -54.5 -17t-70.5 -22t-80 -15z" />
<glyph unicode="V" d="M52 606v106q88 5 154 5q198 0 198 -47q5 -26 5 -47q0 -65 -47 -81l42 -21q41 169 124 191q207 0 228 -85q9 -38 9 -71q0 -115 -112 -164h-125l-104 107q-17 -110 -218 -110q-33 0 -71 3l-21 214h-62zM217 456l103 22l-21 43h-82v-65zM217 584h82v43h-82v-43zM236 751 q13 -10 38 -7q43 6 120 72q-110 -22 -140 -38q-21 -12 -22 -20q0 -4 4 -7zM243 732q-13 9 -13 21q0 40 147 110l232 19l-35 38l-14 37l29 45l5 19l-104 49l43 489v125q-30 7 -43 51l62 611l-49 22l-17 65l25 35l281 30l14 -50l-123 -91l-79 -7l-52 -558q60 157 142.5 214.5 t192.5 73.5q59 8 119 8q52 0 106 -6q114 -14 173.5 -52.5t100.5 -124.5t53 -177l14 -29l4 -140l61 -492l-210 -114l4 -18l22 -19q110 28 171 27q70 0 77 -35l89 -15q26 -30 26 -52t-27 -35l-1070 -29zM307 235v106h292v-106l-146 -22h104v-63h-82l-42 -128l-84 20zM502 1078 l429 -170q-27 101 -41 158t-33 124t-52 133t-101 90q-73 -6 -100 -41q-61 -77 -102 -294zM528 606q-6 -27 -6 -51q0 -67 48 -99l83 22l-21 149zM530 1634l9 -72h27q34 0 72 -2q52 -2 95.5 -25.5t83.5 -67.5t57.5 -97.5t56.5 -401.5l18 -9l13 615l-170 30zM530 1909l53 442 h-14zM544 1619l248 -26l158 -31l-11 -553l-15 144q-17 160 -35 220t-59.5 105.5t-82 67t-86.5 24t-107 5.5zM544 1699l13 -19l89 13l97 9l133 2l220 -9l145 -15l151 -2l48 -21l-4 51q-96 38 -251 48q-125 8 -215 9q-21 -1 -41 -1q-101 -2 -185.5 -5.5t-191.5 -48.5z M552 1697l20 17q132 34 427 34q300 0 434 -51l3 -28l-61 15l-200 15l-146 7l-177 4l-129 -2l-103 -9l-63 -11zM554 1644l40 -3h6l7 28l-53 4v-29zM620 129q-9 24 -9 48q0 82 111 164q208 0 230 -84q9 -38 9 -71q0 -115 -113 -164q-207 0 -228 107zM682 1623h27l10 68l-22 2z M722 235q-5 -25 -4 -47q0 -70 46 -103l84 22l-20 150zM777 392v320q68 5 120 5q156 0 171 -47q5 -27 5 -48q0 -64 -47 -80q12 4 22 4q41 0 41 -68l83 234h146l82 -256v-64l-208 64l-42 -64l-102 42q-62 -47 -184 -47q-40 0 -87 5zM795 1617l72 -15l14 87l-60 4zM848 2026 q111 -12 172 -15t123 -7q23 -1 39 -1q28 0 36 4q12 7 5 19t-32.5 23t-80.5 16.5t-100 5.5t-81.5 -5.5t-80.5 -39.5zM881 456l104 22l-20 43h-84v-65zM881 584h84v43h-84v-43zM975 24v320q21 11 42 11q63 0 125 -96q0 85 42 85h331v-106h-83v-106h187q-84 87 -84 144 q0 41 43 68h207v-85l-103 -43q62 -64 62 -112t-62 -80h-332l-21 192l-84 22l-20 -214h-64l-102 108v-108h-84zM1107 1555l6 -16l-3 -629l59 -4l4 677h11v95l-77 8v-131zM1188 912l17 2q39 378 70 455t51.5 102t55 38t53.5 13v78l-246 -28zM1199 966l3 592l216 31l7 -54 q-48 -15 -73.5 -27t-45 -41.5t-44 -91.5t-46.5 -247zM1210 1989q11 -52 38.5 -66t45.5 -18t30 10t1.5 33t-30 33t-35.5 16h-6q-16 0 -44 -8zM1213 521h63l-21 106l-42 -43v-63zM1220 918l230 123v11q-30 212 -54 283q-21 61 -45 61q-4 0 -7 -1q-45 -30 -61 -66t-22.5 -70.5 t-22.5 -143.5zM1246 1993q51 -2 76 -47q9 -17 2 -22.5t-16.5 -2.5t-24.5 7t-31 18q-21 19 -21 31q0 11 15 16zM1280 1589l30 1l26 75l-41 5zM1340 1593l53 -3l25 35l5 33l-58 12zM1429 822q-9 -2 -9 -3t11 -1q16 0 56 2q92 6 193 20q-14 37 -43 37q-1 -1 -3 -1 q-30 -2 -54.5 -17t-70.5 -22t-80 -15z" />
<glyph unicode="W" horiz-adv-x="1800" d="M-248 1014v430h662l198 -624l172 624h432l201 -624l134 624h465l-357 -1444h-470l-183 612l-152 -612h-470l-332 1014h-300z" />
<glyph unicode="X" horiz-adv-x="1550" d="M0 1014v430h1000q343 -31 450 -296q21 -101 21 -178q0 -69 -17 -118q-36 -104 -126 -174t-258 -110l108 -138h432v-430h-570l-458 477v-477h-522v864h886q96 0 99 73q-5 47 -40.5 61.5t-59.5 14.5l-381 1h-564z" />
<glyph unicode="Y" horiz-adv-x="1472" d="M-136 1014v430h576l298 -446l294 446h570l-630 -914v-530h-472v530l-336 484h-300z" />
<glyph unicode="Z" horiz-adv-x="1515" d="M-101 0l483 1444h1212v-430h-353l333 -1014h-518l-91 260h-429l-91 -260h-546zM548 552h398l-207 572z" />
<glyph unicode="[" horiz-adv-x="1404" d="M-240 1014v430h770v-470l330 470h470l-538 -722l240 -292h772v-430h-910l-364 430v-430h-470v1014h-300z" />
<glyph unicode="\" horiz-adv-x="56" d="M-296 0v430h650v-430h-650z" />
<glyph unicode="]" horiz-adv-x="1800" d="M-140 1444h470l198 -624l172 624h432l201 -624l134 624h763v-430h-400l-255 -1014h-470l-183 612l-152 -612h-470z" />
<glyph unicode="^" d="M52 606v106q352 21 352 -42q20 -107 -42 -128l42 -21q41 169 124 191q207 0 228 -85q41 -171 -103 -235h-125l-104 107q-20 -128 -289 -107l-21 214h-62zM217 456l103 22l-21 43h-82v-65zM217 584h82v43h-82v-43zM236 751q13 -10 38 -7q43 6 120 72 q-110 -22 -140.5 -38.5t-17.5 -26.5zM243 732q-57 41 134 131l232 19l-35 38l-14 37l29 45l5 19l-104 49l43 489v125q-30 7 -43 51l62 611l-49 22l-17 65l25 35l281 30l14 -50l-123 -91l-79 -7l-52 -558q60 157 142.5 214.5t192.5 73t224.5 2t174 -52t100.5 -124.5t53 -177 l14 -29l4 -140l61 -492l-210 -114l4 -18l22 -19q234 59 248 -8l89 -15q52 -61 -1 -87l-1070 -29zM307 235v106h292v-106l-146 -22h104v-63h-82l-42 -128l-84 20zM502 1078l429 -170q-27 101 -41 158t-33 124t-52 133t-101 90q-73 -6 -100 -41q-61 -77 -102 -294zM528 606 q-22 -107 42 -150l83 22l-21 149zM530 1634l9 -72q47 1 98.5 -1.5t95.5 -26t84 -67.5t57.5 -97.5t56.5 -401.5l18 -9l13 615l-170 30zM530 1909l53 442h-14zM544 1619l248 -26l158 -31l-11 -553l-15 144q-17 160 -35 220t-59.5 105.5t-82 67t-86.5 24t-107 5.5zM544 1699 l13 -19l89 13l97 9l133 2l220 -9l145 -15l151 -2l48 -21l-4 51q-96 38 -251 48.5t-256 8t-185.5 -6t-191.5 -48.5zM552 1697l20 17q132 34 427 34q300 0 434 -51l3 -28l-61 15l-200 15l-146 7l-177 4l-129 -2l-103 -9l-63 -11zM554 1644l40 -3h6l7 28l-53 4v-29zM620 129 q-42 106 102 212q208 0 230 -84q41 -172 -104 -235q-207 0 -228 107zM682 1623h27l10 68l-22 2zM722 235q-19 -106 42 -150l84 22l-20 150zM777 392v320q271 21 291 -42q21 -107 -42 -128q63 21 63 -64l83 234h146l82 -256v-64l-208 64l-42 -64l-102 42q-83 -63 -271 -42z M795 1617l72 -15l14 87l-60 4zM848 2026q111 -12 172 -15t123 -7t74.5 3t5.5 19t-32.5 23t-80.5 16.5t-100 5.5t-81.5 -5.5t-80.5 -39.5zM881 456l104 22l-20 43h-84v-65zM881 584h84v43h-84v-43zM975 24v320q84 43 167 -85q0 85 42 85h331v-106h-83v-106h187 q-145 149 -41 212h207v-85l-103 -43q124 -128 0 -192h-332l-21 192l-84 22l-20 -214h-64l-102 108v-108h-84zM1107 1555l6 -16l-3 -629l59 -4l4 677h11v95l-77 8v-131zM1188 912l17 2q39 378 70 455t51.5 102t55 38t53.5 13v78l-246 -28zM1199 966l3 592l216 31l7 -54 q-48 -15 -73.5 -27t-45 -41.5t-44 -91.5t-46.5 -247zM1210 1989q11 -52 38.5 -66t45.5 -18t30 10t1.5 33t-30 33t-35.5 16t-50 -8zM1213 521h63l-21 106l-42 -43v-63zM1220 918l230 123v11q-29 212 -53.5 283t-52.5 60q-45 -30 -61 -66t-22.5 -70.5t-22.5 -143.5zM1246 1993 q51 -2 76 -47q9 -17 2 -22.5t-16.5 -2.5t-24.5 7t-31 18q-38 35 -6 47zM1280 1589l30 1l26 75l-41 5zM1340 1593l53 -3l25 35l5 33l-58 12zM1429 822.5q-34 -8.5 58 -2t193 19.5q-15 38 -45.5 36.5t-55 -17t-70.5 -22t-80 -15z" />
<glyph unicode="_" horiz-adv-x="1454" d="M-290 1014v430h770v-854q-4 -142 67 -202t177 -62q132 4 194 61t56 203v854h470v-848q0 -182 -55.5 -295t-158 -185t-240 -105.5t-270.5 -36.5q-330 8 -508 156q-86 72 -142.5 179.5t-59.5 287.5v417h-300z" />
<glyph unicode="`" horiz-adv-x="1630" d="M-242 1014v430h734l332 -1109l328 1109h551l-508 -1444h-767l-371 1014h-299z" />
<glyph unicode="a" horiz-adv-x="1515" d="M-80 0l475 1444h717l483 -1444h-546l-91 260h-429l-91 -260h-518zM548 552h398l-191 572z" />
<glyph unicode="b" horiz-adv-x="1628" d="M60 0v1444h985q237 -2 360.5 -82t149.5 -268q1 -16 1 -32q0 -121 -62 -194q-70 -82 -231 -135v-4q157 -20 259 -119q95 -94 95 -211q0 -171 -87.5 -259t-225.5 -115q-128 -25 -306 -25h-27h-911zM558 292h321h12q76 0 133 36q62 39 62 96q1 6 1 12q1 55 -51 87 q-56 36 -157 36h-321v-267zM558 875h350q29 0 61 30.5t34 81.5q-4 59 -38.5 83t-57.5 24h-349v-219z" />
<glyph unicode="c" horiz-adv-x="1484" d="M10 743q0 170 65.5 303.5t181.5 221.5q230 176 587 176h640v-430h-452q-152 0 -225 -9t-130 -30t-101 -73t-51 -184q5 -128 51 -183t112 -73q117 -32 344 -32h452v-430h-640q-235 0 -425 83.5t-299.5 250.5t-109.5 409z" />
<glyph unicode="d" horiz-adv-x="1662" d="M60 0v1444h852q506 0 680 -381q60 -133 60 -346q-22 -386 -212 -553q-187 -164 -524 -164h-28h-828zM542 360h275q161 0 243 140q36 62 46 222q-3 146 -40 216q-81 148 -251 148h-273v-726z" />
<glyph unicode="e" horiz-adv-x="1360" d="M60 0v1444h1238v-430h-768v-166h496v-252h-496v-166h890v-430h-1360z" />
<glyph unicode="f" horiz-adv-x="1328" d="M60 0v1444h1238v-430h-768v-166h496v-252h-496v-596h-470z" />
<glyph unicode="g" horiz-adv-x="1484" d="M10 743q0 170 65.5 303.5t181.5 221.5q230 176 587 176h640v-430h-452q-152 0 -225 -9t-130 -30t-101 -73t-51 -184q5 -128 51 -183t112 -73q117 -32 344 -32v292h452v-722h-640q-235 0 -425 83.5t-299.5 250.5t-109.5 409z" />
<glyph unicode="h" horiz-adv-x="1398" d="M40 0v1444h470v-498h378v498h470v-1444h-470v520h-378v-520h-470z" />
<glyph unicode="i" horiz-adv-x="550" d="M40 0v1444h470v-1444h-470z" />
<glyph unicode="j" horiz-adv-x="879" d="M8 0v430q40 -10 83 -10q40 0 83 9q88 19 118 43t42 114v858h544v-430h-74v-560q-6 -166 -48 -228q-107 -158 -344 -212q-136 -10 -221 -11t-183 -3z" />
<glyph unicode="k" horiz-adv-x="1404" d="M60 0v1444h470v-470l330 470h470l-538 -722l240 -292h432v-430h-570l-364 430v-430h-470z" />
<glyph unicode="l" horiz-adv-x="1312" d="M60 0v1444h470v-1014h782v-430h-1252z" />
<glyph unicode="m" horiz-adv-x="1650" d="M40 0v1444h470l316 -600l314 600h470v-1444h-470v600l-302 -600h-26l-302 600v-600h-470z" />
<glyph unicode="n" horiz-adv-x="1430" d="M60 0v1444h470l430 -540v540h470v-1444h-470l-430 540v-540h-470z" />
<glyph unicode="o" horiz-adv-x="1677" d="M10 714q0 358 216 550q215 191 609 191q259 0 447 -85.5t287 -252t99 -403.5t-99 -404q-199 -335 -734 -335q-260 0 -447 85q-378 171 -378 654zM523 710q0 -139 62.5 -242t246.5 -103q142 0 212.5 54t88 123.5t23.5 167.5q-6 139 -67 242.5t-257 103.5q-309 0 -309 -346 z" />
<glyph unicode="p" horiz-adv-x="1501" d="M60 0v1444h940q354 -33 450 -296q37 -135 37 -213q0 -15 -1 -27q-8 -80 -32 -150t-132 -162t-288 -119h-452v-477h-522zM582 818h364q29 0 63 21.5t36 108.5q-5 83 -40.5 109.5t-59.5 26.5h-363v-266z" />
<glyph unicode="q" horiz-adv-x="1639" d="M10 723q0 180 53 310.5t155 226.5t246 144t368 60q228 -12 402 -76t284 -212q99 -133 99 -384q0 -27 -1 -56q-24 -132 -94 -230q-23 -32 -23 -51q0 -29 52 -29q19 0 46 4h42v-430l-859 -25q-566 15 -719 430q-51 138 -51 318zM527 702q0 -139 62.5 -242t246.5 -103v71 q60 -6 107 -6q174 0 190 80q21 101 27 200q-6 137 -67 240.5t-257 103.5q-309 0 -309 -344z" />
<glyph unicode="r" horiz-adv-x="1550" d="M60 0v1444h940q343 -31 450 -296q21 -101 21 -178q0 -69 -17 -118q-36 -104 -126 -174t-258 -110l108 -138h432v-430h-570l-458 477v-477h-522zM582 818h364q29 0 63 21.5t36 108.5q-5 83 -40.5 109.5t-59.5 26.5h-363v-266z" />
<glyph unicode="s" horiz-adv-x="1135" d="M0 0v430h304h25q137 0 137 48q0 39 -90 110q-303 278 -303 517q0 36 7 71q52 268 328 268h788v-430h-352h-25q-126 0 -126 -45q0 -35 75 -97q318 -279 318 -542v-10q-6 -268 -318 -320h-768z" />
<glyph unicode="t" horiz-adv-x="1366" d="M-10 1014v430h1386v-430h-458v-1014h-470v1014h-458z" />
<glyph unicode="u" horiz-adv-x="1454" d="M10 596v848h470v-854q-1 -13 -1 -25q0 -126 57 -178q62 -57 194 -61q106 2 177 62q67 57 67 187v15v854h470v-847q-3 -180 -59.5 -287.5t-142.5 -179.5q-178 -148 -508 -156q-133 3 -270.5 36.5t-240 105.5t-158 185t-55.5 295z" />
<glyph unicode="v" horiz-adv-x="1630" d="M-80 1444h551l328 -1109l332 1109h579l-515 -1444h-767z" />
<glyph unicode="w" horiz-adv-x="1800" d="M-140 1444h470l198 -624l172 624h432l201 -624l134 624h470l-362 -1444h-470l-183 612l-152 -612h-470z" />
<glyph unicode="x" horiz-adv-x="1472" d="M-130 0l530 722l-530 722h570l294 -446l298 446h570l-530 -722l530 -722h-570l-298 446l-294 -446h-570z" />
<glyph unicode="y" horiz-adv-x="1472" d="M-130 1444h570l294 -446l298 446h570l-630 -914v-530h-472v530z" />
<glyph unicode="z" horiz-adv-x="1400" d="M40 0v430l699 584h-699v430h1320v-430l-699 -584h699v-430h-1320z" />
<glyph unicode="{" d="M52 606v106q352 21 352 -42q20 -107 -42 -128l42 -21q41 169 124 191q207 0 228 -85q41 -171 -103 -235h-125l-104 107q-20 -128 -289 -107l-21 214h-62zM217 456l103 22l-21 43h-82v-65zM217 584h82v43h-82v-43zM236 751q13 -10 38 -7q43 6 120 72 q-110 -22 -140.5 -38.5t-17.5 -26.5zM243 732q-57 41 134 131l232 19l-35 38l-14 37l29 45l5 19l-104 49l43 489v125q-30 7 -43 51l62 611l-49 22l-17 65l25 35l281 30l14 -50l-123 -91l-79 -7l-52 -558q60 157 142.5 214.5t192.5 73t224.5 2t174 -52t100.5 -124.5t53 -177 l14 -29l4 -140l61 -492l-210 -114l4 -18l22 -19q234 59 248 -8l89 -15q52 -61 -1 -87l-1070 -29zM307 235v106h292v-106l-146 -22h104v-63h-82l-42 -128l-84 20zM502 1078l429 -170q-27 101 -41 158t-33 124t-52 133t-101 90q-73 -6 -100 -41q-61 -77 -102 -294zM528 606 q-22 -107 42 -150l83 22l-21 149zM530 1634l9 -72q47 1 98.5 -1.5t95.5 -26t84 -67.5t57.5 -97.5t56.5 -401.5l18 -9l13 615l-170 30zM530 1909l53 442h-14zM544 1619l248 -26l158 -31l-11 -553l-15 144q-17 160 -35 220t-59.5 105.5t-82 67t-86.5 24t-107 5.5zM544 1699 l13 -19l89 13l97 9l133 2l220 -9l145 -15l151 -2l48 -21l-4 51q-96 38 -251 48.5t-256 8t-185.5 -6t-191.5 -48.5zM552 1697l20 17q132 34 427 34q300 0 434 -51l3 -28l-61 15l-200 15l-146 7l-177 4l-129 -2l-103 -9l-63 -11zM554 1644l40 -3h6l7 28l-53 4v-29zM620 129 q-42 106 102 212q208 0 230 -84q41 -172 -104 -235q-207 0 -228 107zM682 1623h27l10 68l-22 2zM722 235q-19 -106 42 -150l84 22l-20 150zM777 392v320q271 21 291 -42q21 -107 -42 -128q63 21 63 -64l83 234h146l82 -256v-64l-208 64l-42 -64l-102 42q-83 -63 -271 -42z M795 1617l72 -15l14 87l-60 4zM848 2026q111 -12 172 -15t123 -7t74.5 3t5.5 19t-32.5 23t-80.5 16.5t-100 5.5t-81.5 -5.5t-80.5 -39.5zM881 456l104 22l-20 43h-84v-65zM881 584h84v43h-84v-43zM975 24v320q84 43 167 -85q0 85 42 85h331v-106h-83v-106h187 q-145 149 -41 212h207v-85l-103 -43q124 -128 0 -192h-332l-21 192l-84 22l-20 -214h-64l-102 108v-108h-84zM1107 1555l6 -16l-3 -629l59 -4l4 677h11v95l-77 8v-131zM1188 912l17 2q39 378 70 455t51.5 102t55 38t53.5 13v78l-246 -28zM1199 966l3 592l216 31l7 -54 q-48 -15 -73.5 -27t-45 -41.5t-44 -91.5t-46.5 -247zM1210 1989q11 -52 38.5 -66t45.5 -18t30 10t1.5 33t-30 33t-35.5 16t-50 -8zM1213 521h63l-21 106l-42 -43v-63zM1220 918l230 123v11q-29 212 -53.5 283t-52.5 60q-45 -30 -61 -66t-22.5 -70.5t-22.5 -143.5zM1246 1993 q51 -2 76 -47q9 -17 2 -22.5t-16.5 -2.5t-24.5 7t-31 18q-38 35 -6 47zM1280 1589l30 1l26 75l-41 5zM1340 1593l53 -3l25 35l5 33l-58 12zM1429 822.5q-34 -8.5 58 -2t193 19.5q-15 38 -45.5 36.5t-55 -17t-70.5 -22t-80 -15z" />
<glyph unicode="|" horiz-adv-x="56" d="M-296 1014v430h650v-430h-650z" />
<glyph unicode="}" d="M52 606v106q352 21 352 -42q20 -107 -42 -128l42 -21q41 169 124 191q207 0 228 -85q41 -171 -103 -235h-125l-104 107q-20 -128 -289 -107l-21 214h-62zM217 456l103 22l-21 43h-82v-65zM217 584h82v43h-82v-43zM236 751q13 -10 38 -7q43 6 120 72 q-110 -22 -140.5 -38.5t-17.5 -26.5zM243 732q-57 41 134 131l232 19l-35 38l-14 37l29 45l5 19l-104 49l43 489v125q-30 7 -43 51l62 611l-49 22l-17 65l25 35l281 30l14 -50l-123 -91l-79 -7l-52 -558q60 157 142.5 214.5t192.5 73t224.5 2t174 -52t100.5 -124.5t53 -177 l14 -29l4 -140l61 -492l-210 -114l4 -18l22 -19q234 59 248 -8l89 -15q52 -61 -1 -87l-1070 -29zM307 235v106h292v-106l-146 -22h104v-63h-82l-42 -128l-84 20zM502 1078l429 -170q-27 101 -41 158t-33 124t-52 133t-101 90q-73 -6 -100 -41q-61 -77 -102 -294zM528 606 q-22 -107 42 -150l83 22l-21 149zM530 1634l9 -72q47 1 98.5 -1.5t95.5 -26t84 -67.5t57.5 -97.5t56.5 -401.5l18 -9l13 615l-170 30zM530 1909l53 442h-14zM544 1619l248 -26l158 -31l-11 -553l-15 144q-17 160 -35 220t-59.5 105.5t-82 67t-86.5 24t-107 5.5zM544 1699 l13 -19l89 13l97 9l133 2l220 -9l145 -15l151 -2l48 -21l-4 51q-96 38 -251 48.5t-256 8t-185.5 -6t-191.5 -48.5zM552 1697l20 17q132 34 427 34q300 0 434 -51l3 -28l-61 15l-200 15l-146 7l-177 4l-129 -2l-103 -9l-63 -11zM554 1644l40 -3h6l7 28l-53 4v-29zM620 129 q-42 106 102 212q208 0 230 -84q41 -172 -104 -235q-207 0 -228 107zM682 1623h27l10 68l-22 2zM722 235q-19 -106 42 -150l84 22l-20 150zM777 392v320q271 21 291 -42q21 -107 -42 -128q63 21 63 -64l83 234h146l82 -256v-64l-208 64l-42 -64l-102 42q-83 -63 -271 -42z M795 1617l72 -15l14 87l-60 4zM848 2026q111 -12 172 -15t123 -7t74.5 3t5.5 19t-32.5 23t-80.5 16.5t-100 5.5t-81.5 -5.5t-80.5 -39.5zM881 456l104 22l-20 43h-84v-65zM881 584h84v43h-84v-43zM975 24v320q84 43 167 -85q0 85 42 85h331v-106h-83v-106h187 q-145 149 -41 212h207v-85l-103 -43q124 -128 0 -192h-332l-21 192l-84 22l-20 -214h-64l-102 108v-108h-84zM1107 1555l6 -16l-3 -629l59 -4l4 677h11v95l-77 8v-131zM1188 912l17 2q39 378 70 455t51.5 102t55 38t53.5 13v78l-246 -28zM1199 966l3 592l216 31l7 -54 q-48 -15 -73.5 -27t-45 -41.5t-44 -91.5t-46.5 -247zM1210 1989q11 -52 38.5 -66t45.5 -18t30 10t1.5 33t-30 33t-35.5 16t-50 -8zM1213 521h63l-21 106l-42 -43v-63zM1220 918l230 123v11q-29 212 -53.5 283t-52.5 60q-45 -30 -61 -66t-22.5 -70.5t-22.5 -143.5zM1246 1993 q51 -2 76 -47q9 -17 2 -22.5t-16.5 -2.5t-24.5 7t-31 18q-38 35 -6 47zM1280 1589l30 1l26 75l-41 5zM1340 1593l53 -3l25 35l5 33l-58 12zM1429 822.5q-34 -8.5 58 -2t193 19.5q-15 38 -45.5 36.5t-55 -17t-70.5 -22t-80 -15z" />
<glyph unicode="~" horiz-adv-x="1472" d="M-130 1444h570l294 -446l298 446h676v-430h-400l-336 -484v-530h-472v530z" />
<glyph unicode="&#xad;" horiz-adv-x="758" d="M92 377v360h574v-360h-574z" />
<glyph unicode="&#xb6;" d="M52 606v106q352 21 352 -42q20 -107 -42 -128l42 -21q41 169 124 191q207 0 228 -85q41 -171 -103 -235h-125l-104 107q-20 -128 -289 -107l-21 214h-62zM217 456l103 22l-21 43h-82v-65zM217 584h82v43h-82v-43zM236 751q13 -10 38 -7q43 6 120 72 q-110 -22 -140.5 -38.5t-17.5 -26.5zM243 732q-57 41 134 131l232 19l-35 38l-14 37l29 45l5 19l-104 49l43 489v125q-30 7 -43 51l62 611l-49 22l-17 65l25 35l281 30l14 -50l-123 -91l-79 -7l-52 -558q60 157 142.5 214.5t192.5 73t224.5 2t174 -52t100.5 -124.5t53 -177 l14 -29l4 -140l61 -492l-210 -114l4 -18l22 -19q234 59 248 -8l89 -15q52 -61 -1 -87l-1070 -29zM307 235v106h292v-106l-146 -22h104v-63h-82l-42 -128l-84 20zM502 1078l429 -170q-27 101 -41 158t-33 124t-52 133t-101 90q-73 -6 -100 -41q-61 -77 -102 -294zM528 606 q-22 -107 42 -150l83 22l-21 149zM530 1634l9 -72q47 1 98.5 -1.5t95.5 -26t84 -67.5t57.5 -97.5t56.5 -401.5l18 -9l13 615l-170 30zM530 1909l53 442h-14zM544 1619l248 -26l158 -31l-11 -553l-15 144q-17 160 -35 220t-59.5 105.5t-82 67t-86.5 24t-107 5.5zM544 1699 l13 -19l89 13l97 9l133 2l220 -9l145 -15l151 -2l48 -21l-4 51q-96 38 -251 48.5t-256 8t-185.5 -6t-191.5 -48.5zM552 1697l20 17q132 34 427 34q300 0 434 -51l3 -28l-61 15l-200 15l-146 7l-177 4l-129 -2l-103 -9l-63 -11zM554 1644l40 -3h6l7 28l-53 4v-29zM620 129 q-42 106 102 212q208 0 230 -84q41 -172 -104 -235q-207 0 -228 107zM682 1623h27l10 68l-22 2zM722 235q-19 -106 42 -150l84 22l-20 150zM777 392v320q271 21 291 -42q21 -107 -42 -128q63 21 63 -64l83 234h146l82 -256v-64l-208 64l-42 -64l-102 42q-83 -63 -271 -42z M795 1617l72 -15l14 87l-60 4zM848 2026q111 -12 172 -15t123 -7t74.5 3t5.5 19t-32.5 23t-80.5 16.5t-100 5.5t-81.5 -5.5t-80.5 -39.5zM881 456l104 22l-20 43h-84v-65zM881 584h84v43h-84v-43zM975 24v320q84 43 167 -85q0 85 42 85h331v-106h-83v-106h187 q-145 149 -41 212h207v-85l-103 -43q124 -128 0 -192h-332l-21 192l-84 22l-20 -214h-64l-102 108v-108h-84zM1107 1555l6 -16l-3 -629l59 -4l4 677h11v95l-77 8v-131zM1188 912l17 2q39 378 70 455t51.5 102t55 38t53.5 13v78l-246 -28zM1199 966l3 592l216 31l7 -54 q-48 -15 -73.5 -27t-45 -41.5t-44 -91.5t-46.5 -247zM1210 1989q11 -52 38.5 -66t45.5 -18t30 10t1.5 33t-30 33t-35.5 16t-50 -8zM1213 521h63l-21 106l-42 -43v-63zM1220 918l230 123v11q-29 212 -53.5 283t-52.5 60q-45 -30 -61 -66t-22.5 -70.5t-22.5 -143.5zM1246 1993 q51 -2 76 -47q9 -17 2 -22.5t-16.5 -2.5t-24.5 7t-31 18q-38 35 -6 47zM1280 1589l30 1l26 75l-41 5zM1340 1593l53 -3l25 35l5 33l-58 12zM1429 822.5q-34 -8.5 58 -2t193 19.5q-15 38 -45.5 36.5t-55 -17t-70.5 -22t-80 -15z" />
<glyph unicode="&#xbf;" horiz-adv-x="1176" d="M84 332.5q0 119.5 48.5 188t147 148.5t142 132t43.5 132h410q-13 -240 -137 -331q-50 -38 -93.5 -72t-43.5 -86t52 -68t135 -16q160 0 304 68v-353q-239 -75 -446 -75q-311 0 -470 135q-92 78 -92 197.5zM447 1083v385h446v-385h-446z" />
<glyph unicode="&#xc0;" horiz-adv-x="1515" d="M-80 0l475 1444h717l483 -1444h-546l-91 260h-429l-91 -260h-518zM203 1796h462l176 -318zM548 552h398l-191 572z" />
<glyph unicode="&#xc1;" horiz-adv-x="1515" d="M-80 0l475 1444h717l483 -1444h-546l-91 260h-429l-91 -260h-518zM548 552h398l-191 572zM673 1478l176 318h462z" />
<glyph unicode="&#xc2;" horiz-adv-x="1515" d="M-80 0l475 1444h717l483 -1444h-546l-91 260h-429l-91 -260h-518zM473 1475v59l278 283l279 -283v-62l-277 174zM548 552h398l-191 572z" />
<glyph unicode="&#xc3;" horiz-adv-x="1515" d="M-80 0l475 1444h717l483 -1444h-546l-91 260h-429l-91 -260h-518zM407 1648q147 270 322 79t323 -51l76 -40q-240 -232 -408 -50t-253 15zM548 552h398l-191 572z" />
<glyph unicode="&#xc4;" horiz-adv-x="1515" d="M-80 0l475 1444h717l483 -1444h-546l-91 260h-429l-91 -260h-518zM443 1643q0 53 33 87t85.5 34t85 -33.5t32.5 -83.5q-5 -61 -38.5 -92t-82.5 -31t-82 33t-33 86zM548 552h398l-191 572zM821 1643q0 53 33 87t85.5 34t85 -33.5t32.5 -83.5q-5 -61 -38.5 -92t-82.5 -31 t-82 33t-33 86z" />
<glyph unicode="&#xc5;" horiz-adv-x="1515" d="M-80 0l475 1444h717l483 -1444h-546l-91 260h-429l-91 -260h-518zM548 552h398l-191 572zM557 1646.5q0 86.5 55 142t140 55.5t139.5 -55t54.5 -136.5t-59.5 -140t-140 -58.5t-135 53t-54.5 139.5zM633 1647q0 -53 33 -86t82 -33t82.5 31t38.5 92q0 50 -32.5 83.5 t-85 33.5t-85.5 -34t-33 -87z" />
<glyph unicode="&#xc6;" horiz-adv-x="2062" d="M-80 0l475 1444h1605v-430h-768v-166h496v-252h-496v-166h890v-430h-1366v260h-227l-91 -260h-518zM548 552h208v570z" />
<glyph unicode="&#xc7;" horiz-adv-x="1440" d="M10 739q0 341 240 529q112 89 227 142.5t339 65.5q232 -12 354 -56t246 -160l-284 -316q-72 60 -128 86t-184 34q-124 -16 -185 -51t-105 -95t-52 -180q8 -120 52 -180t105 -95t185 -51q128 8 184 34t128 86l284 -316q-124 -116 -246 -160t-272 -55l-206 3 q-205 16 -442 204q-240 188 -240 531zM661 23q61 -6 101 -6q103 0 167.5 50t64.5 117q0 104 -135 133v80h-131v-171q18 2 42 2t48.5 -20t24.5 -54q0 -78 -109 -78q-37 2 -64 11z" />
<glyph unicode="&#xc8;" horiz-adv-x="1360" d="M60 0v1444h1238v-430h-768v-166h496v-252h-496v-166h890v-430h-1360zM203 1796h462l176 -318z" />
<glyph unicode="&#xc9;" horiz-adv-x="1360" d="M60 0v1444h1238v-430h-768v-166h496v-252h-496v-166h890v-430h-1360zM673 1478l176 318h462z" />
<glyph unicode="&#xca;" horiz-adv-x="1360" d="M60 0v1444h1238v-430h-768v-166h496v-252h-496v-166h890v-430h-1360zM473 1475v59l278 283l279 -283v-62l-277 174z" />
<glyph unicode="&#xcb;" horiz-adv-x="1360" d="M60 0v1444h1238v-430h-768v-166h496v-252h-496v-166h890v-430h-1360zM443 1643q0 53 33 87t85.5 34t85 -33.5t32.5 -83.5q-5 -61 -38.5 -92t-82.5 -31t-82 33t-33 86zM821 1643q0 53 33 87t85.5 34t85 -33.5t32.5 -83.5q-5 -61 -38.5 -92t-82.5 -31t-82 33t-33 86z" />
<glyph unicode="&#xcc;" horiz-adv-x="550" d="M26 1796h371l113 -316zM40 0v1444h470v-1444h-470z" />
<glyph unicode="&#xcd;" horiz-adv-x="550" d="M41 0v1444h467v-1444h-467zM41 1480l113 316h368z" />
<glyph unicode="&#xce;" horiz-adv-x="550" d="M40 0v1444h470v-1444h-470zM45 1481v59l228 283l229 -283v-62l-228 174z" />
<glyph unicode="&#xcf;" horiz-adv-x="550" d="M3 1643q0 53 33 87t85.5 34t85 -33.5t32.5 -83.5q-5 -61 -38.5 -92t-82.5 -31t-82 33t-33 86zM40 0v1444h470v-1444h-470zM315 1643q0 53 33 87t85.5 34t85 -33.5t32.5 -83.5q-5 -61 -38.5 -92t-82.5 -31t-82 33t-33 86z" />
<glyph unicode="&#xd0;" horiz-adv-x="1804" d="M-42 542v252h254v650h852q506 0 680 -381q60 -133 60 -346q-22 -386 -212 -553q-195 -171 -552 -164h-828v542h-254zM694 360h275q161 0 243 140q36 62 46 222q-3 146 -40 216q-81 148 -251 148h-273v-290h280v-254h-280v-182z" />
<glyph unicode="&#xd1;" horiz-adv-x="1430" d="M60 0v1444h470l430 -540v540h470v-1444h-470l-430 540v-540h-470zM391 1648q147 270 322 79t323 -51l76 -40q-240 -232 -408 -50t-253 15z" />
<glyph unicode="&#xd2;" horiz-adv-x="1677" d="M10 714q0 358 216 550q215 191 609 191q259 0 447 -85.5t287 -252t99 -403.5t-99 -404q-199 -335 -734 -335q-260 0 -447 85q-378 171 -378 654zM203 1796h462l176 -318zM523 710q0 -139 62.5 -242t246.5 -103q142 0 212.5 54t88 123.5t23.5 167.5q-6 139 -67 242.5 t-257 103.5q-309 0 -309 -346z" />
<glyph unicode="&#xd3;" horiz-adv-x="1677" d="M10 714q0 358 216 550q215 191 609 191q259 0 447 -85.5t287 -252t99 -403.5t-99 -404q-199 -335 -734 -335q-260 0 -447 85q-378 171 -378 654zM523 710q0 -139 62.5 -242t246.5 -103q142 0 212.5 54t88 123.5t23.5 167.5q-6 139 -67 242.5t-257 103.5q-309 0 -309 -346 zM673 1478l176 318h462z" />
<glyph unicode="&#xd4;" horiz-adv-x="1677" d="M10 714q0 358 216 550q215 191 609 191q259 0 447 -85.5t287 -252t99 -403.5t-99 -404q-199 -335 -734 -335q-260 0 -447 85q-378 171 -378 654zM523 710q0 -139 62.5 -242t246.5 -103q142 0 212.5 54t88 123.5t23.5 167.5q-6 139 -67 242.5t-257 103.5q-309 0 -309 -346 zM537 1476v62l287 300l290 -300v-66l-287 185z" />
<glyph unicode="&#xd5;" horiz-adv-x="1677" d="M10 714q0 358 216 550q215 191 609 191q259 0 447 -85.5t287 -252t99 -403.5t-99 -404q-199 -335 -734 -335q-260 0 -447 85q-378 171 -378 654zM479 1652q147 270 322 79t323 -51l76 -40q-240 -232 -408 -50t-253 15zM523 710q0 -139 62.5 -242t246.5 -103 q142 0 212.5 54t88 123.5t23.5 167.5q-6 139 -67 242.5t-257 103.5q-309 0 -309 -346z" />
<glyph unicode="&#xd6;" horiz-adv-x="1677" d="M10 714q0 358 216 550q215 191 609 191q259 0 447 -85.5t287 -252t99 -403.5t-99 -404q-199 -335 -734 -335q-260 0 -447 85q-378 171 -378 654zM443 1643q0 53 33 87t85.5 34t85 -33.5t32.5 -83.5q-5 -61 -38.5 -92t-82.5 -31t-82 33t-33 86zM523 710q0 -139 62.5 -242 t246.5 -103q142 0 212.5 54t88 123.5t23.5 167.5q-6 139 -67 242.5t-257 103.5q-309 0 -309 -346zM1003 1643q0 53 33 87t85.5 34t85 -33.5t32.5 -83.5q-5 -61 -38.5 -92t-82.5 -31t-82 33t-33 86z" />
<glyph unicode="&#xd8;" horiz-adv-x="1677" d="M2 140l134 108q-126 227 -126 466q0 358 216 550q215 191 609 191q259 0 410 -71.5t201 -109.5l110 88l112 -150l-88 -78q88 -183 88 -420t-99 -404q-199 -335 -734 -335q-260 0 -555 149l-168 -132zM530 707q-6 -67 6 -135l520 400q0 76 -220 84q-320 0 -306 -349z M640 420q4 -48 188 -52q148 0 238 76t94 245v123z" />
<glyph unicode="&#xd9;" horiz-adv-x="1454" d="M10 596v848h470v-854q-6 -146 56 -203t194 -61q106 2 177 62t67 202v854h470v-847q-3 -180 -59.5 -287.5t-142.5 -179.5q-178 -148 -508 -156q-133 3 -270.5 36.5t-240 105.5t-158 185t-55.5 295zM203 1796h462l176 -318z" />
<glyph unicode="&#xda;" horiz-adv-x="1454" d="M10 596v848h470v-854q-6 -146 56 -203t194 -61q106 2 177 62t67 202v854h470v-847q-3 -180 -59.5 -287.5t-142.5 -179.5q-178 -148 -508 -156q-133 3 -270.5 36.5t-240 105.5t-158 185t-55.5 295zM673 1478l176 318h462z" />
<glyph unicode="&#xdb;" horiz-adv-x="1454" d="M10 596v848h470v-854q-6 -146 56 -203t194 -61q106 2 177 62t67 202v854h470v-847q-3 -180 -59.5 -287.5t-142.5 -179.5q-178 -148 -508 -156q-133 3 -270.5 36.5t-240 105.5t-158 185t-55.5 295zM453 1476v62l287 300l290 -300v-66l-287 185z" />
<glyph unicode="&#xdc;" horiz-adv-x="1454" d="M10 596v848h470v-854q-6 -146 56 -203t194 -61q106 2 177 62t67 202v854h470v-847q-3 -180 -59.5 -287.5t-142.5 -179.5q-178 -148 -508 -156q-133 3 -270.5 36.5t-240 105.5t-158 185t-55.5 295zM379 1643q0 53 33 87t85.5 34t85 -33.5t32.5 -83.5q-5 -61 -38.5 -92 t-82.5 -31t-82 33t-33 86zM827 1647q0 53 33 87t85.5 34t85 -33.5t32.5 -83.5q-5 -61 -38.5 -92t-82.5 -31t-82 33t-33 86z" />
<glyph unicode="&#xdd;" horiz-adv-x="1472" d="M-130 1444h570l294 -446l298 446h570l-630 -914v-530h-472v530zM621 1478l176 318h462z" />
<glyph unicode="&#xde;" horiz-adv-x="1378" d="M40 0v1444h470v-253q400 1 507.5 -28t181.5 -79q172 -116 172 -355q-16 -245 -172 -353q-158 -109 -449 -105l-240 1v-272h-470zM510 530l222 -1q131 0 198 73q29 33 37 117q-2 76 -33 113q-63 76 -204 76h-220v-378z" />
<glyph unicode="&#xdf;" horiz-adv-x="1148" d="M60 -23v1467h672q163 0 247.5 -65.5t102.5 -218.5q6 -120 -42 -187t-159 -110v-4q107 -14 177 -97q67 -80 67 -173q0 -141 -60 -213.5t-154.5 -94.5t-228.5 -21h-196v241h134q56 -3 98 29t42 78q5 52 -34 81.5t-106 29.5l-162 1v259h181q20 0 42 24.5t21 70.5t-24.5 66 t-39.5 20h-238v-1183h-340z" />
<glyph unicode="&#xe0;" horiz-adv-x="1515" d="M-80 0l475 1444h717l483 -1444h-546l-91 260h-429l-91 -260h-518zM203 1796h462l176 -318zM548 552h398l-191 572z" />
<glyph unicode="&#xe1;" horiz-adv-x="1515" d="M-80 0l475 1444h717l483 -1444h-546l-91 260h-429l-91 -260h-518zM548 552h398l-191 572zM673 1478l176 318h462z" />
<glyph unicode="&#xe2;" horiz-adv-x="1515" d="M-80 0l475 1444h717l483 -1444h-546l-91 260h-429l-91 -260h-518zM473 1475v59l278 283l279 -283v-62l-277 174zM548 552h398l-191 572z" />
<glyph unicode="&#xe3;" horiz-adv-x="1515" d="M-80 0l475 1444h717l483 -1444h-546l-91 260h-429l-91 -260h-518zM407 1648q147 270 322 79t323 -51l76 -40q-240 -232 -408 -50t-253 15zM548 552h398l-191 572z" />
<glyph unicode="&#xe4;" horiz-adv-x="1515" d="M-80 0l475 1444h717l483 -1444h-546l-91 260h-429l-91 -260h-518zM443 1643q0 53 33 87t85.5 34t85 -33.5t32.5 -83.5q-5 -61 -38.5 -92t-82.5 -31t-82 33t-33 86zM548 552h398l-191 572zM821 1643q0 53 33 87t85.5 34t85 -33.5t32.5 -83.5q-5 -61 -38.5 -92t-82.5 -31 t-82 33t-33 86z" />
<glyph unicode="&#xe5;" horiz-adv-x="1515" d="M-80 0l475 1444h717l483 -1444h-546l-91 260h-429l-91 -260h-518zM548 552h398l-191 572zM557 1646.5q0 86.5 55 142t140 55.5t139.5 -55t54.5 -136.5t-59.5 -140t-140 -58.5t-135 53t-54.5 139.5zM633 1647q0 -53 33 -86t82 -33t82.5 31t38.5 92q0 50 -32.5 83.5 t-85 33.5t-85.5 -34t-33 -87z" />
<glyph unicode="&#xe6;" horiz-adv-x="2062" d="M-80 0l475 1444h1605v-430h-768v-166h496v-252h-496v-166h890v-430h-1366v260h-227l-91 -260h-518zM548 552h208v570z" />
<glyph unicode="&#xe7;" horiz-adv-x="1484" d="M10 743q0 170 65.5 303.5t181.5 221.5q230 176 587 176h640v-430h-452q-152 0 -225 -9t-130 -30t-101 -73t-51 -184q5 -128 51 -183t112 -73q117 -32 344 -32h452v-430h-526l-206 4q-143 -4 -333 79.5t-299.5 250.5t-109.5 409zM779 25q61 -6 101 -6q103 0 167.5 50 t64.5 117q0 104 -135 133v80h-131v-171q18 2 42 2t48.5 -20t24.5 -54q0 -78 -109 -78q-37 2 -64 11z" />
<glyph unicode="&#xe8;" horiz-adv-x="1360" d="M60 0v1444h1238v-430h-768v-166h496v-252h-496v-166h890v-430h-1360zM203 1796h462l176 -318z" />
<glyph unicode="&#xe9;" horiz-adv-x="1360" d="M60 0v1444h1238v-430h-768v-166h496v-252h-496v-166h890v-430h-1360zM673 1478l176 318h462z" />
<glyph unicode="&#xea;" horiz-adv-x="1360" d="M60 0v1444h1238v-430h-768v-166h496v-252h-496v-166h890v-430h-1360zM473 1475v59l278 283l279 -283v-62l-277 174z" />
<glyph unicode="&#xeb;" horiz-adv-x="1360" d="M60 0v1444h1238v-430h-768v-166h496v-252h-496v-166h890v-430h-1360zM443 1643q0 53 33 87t85.5 34t85 -33.5t32.5 -83.5q-5 -61 -38.5 -92t-82.5 -31t-82 33t-33 86zM821 1643q0 53 33 87t85.5 34t85 -33.5t32.5 -83.5q-5 -61 -38.5 -92t-82.5 -31t-82 33t-33 86z" />
<glyph unicode="&#xec;" horiz-adv-x="550" d="M26 1796h371l113 -316zM40 0v1444h470v-1444h-470z" />
<glyph unicode="&#xed;" horiz-adv-x="550" d="M41 0v1444h467v-1444h-467zM41 1480l113 316h368z" />
<glyph unicode="&#xee;" horiz-adv-x="550" d="M40 0v1444h470v-1444h-470zM45 1481v59l228 283l229 -283v-62l-228 174z" />
<glyph unicode="&#xef;" horiz-adv-x="550" d="M3 1643q0 53 33 87t85.5 34t85 -33.5t32.5 -83.5q-5 -61 -38.5 -92t-82.5 -31t-82 33t-33 86zM40 0v1444h470v-1444h-470zM315 1643q0 53 33 87t85.5 34t85 -33.5t32.5 -83.5q-5 -61 -38.5 -92t-82.5 -31t-82 33t-33 86z" />
<glyph unicode="&#xf0;" horiz-adv-x="1804" d="M-42 542v252h254v650h852q506 0 680 -381q60 -133 60 -346q-22 -386 -212 -553q-195 -171 -552 -164h-828v542h-254zM694 360h275q161 0 243 140q36 62 46 222q-3 146 -40 216q-81 148 -251 148h-273v-290h280v-254h-280v-182z" />
<glyph unicode="&#xf1;" horiz-adv-x="1430" d="M60 0v1444h470l430 -540v540h470v-1444h-470l-430 540v-540h-470zM391 1648q147 270 322 79t323 -51l76 -40q-240 -232 -408 -50t-253 15z" />
<glyph unicode="&#xf2;" horiz-adv-x="1677" d="M10 714q0 358 216 550q215 191 609 191q259 0 447 -85.5t287 -252t99 -403.5t-99 -404q-199 -335 -734 -335q-260 0 -447 85q-378 171 -378 654zM203 1796h462l176 -318zM523 710q0 -139 62.5 -242t246.5 -103q142 0 212.5 54t88 123.5t23.5 167.5q-6 139 -67 242.5 t-257 103.5q-309 0 -309 -346z" />
<glyph unicode="&#xf3;" horiz-adv-x="1677" d="M10 714q0 358 216 550q215 191 609 191q259 0 447 -85.5t287 -252t99 -403.5t-99 -404q-199 -335 -734 -335q-260 0 -447 85q-378 171 -378 654zM523 710q0 -139 62.5 -242t246.5 -103q142 0 212.5 54t88 123.5t23.5 167.5q-6 139 -67 242.5t-257 103.5q-309 0 -309 -346 zM673 1478l176 318h462z" />
<glyph unicode="&#xf4;" horiz-adv-x="1677" d="M10 714q0 358 216 550q215 191 609 191q259 0 447 -85.5t287 -252t99 -403.5t-99 -404q-199 -335 -734 -335q-260 0 -447 85q-378 171 -378 654zM523 710q0 -139 62.5 -242t246.5 -103q142 0 212.5 54t88 123.5t23.5 167.5q-6 139 -67 242.5t-257 103.5q-309 0 -309 -346 zM537 1476v62l287 300l290 -300v-66l-287 185z" />
<glyph unicode="&#xf5;" horiz-adv-x="1677" d="M10 714q0 358 216 550q215 191 609 191q259 0 447 -85.5t287 -252t99 -403.5t-99 -404q-199 -335 -734 -335q-260 0 -447 85q-378 171 -378 654zM479 1652q147 270 322 79t323 -51l76 -40q-240 -232 -408 -50t-253 15zM523 710q0 -139 62.5 -242t246.5 -103 q142 0 212.5 54t88 123.5t23.5 167.5q-6 139 -67 242.5t-257 103.5q-309 0 -309 -346z" />
<glyph unicode="&#xf6;" horiz-adv-x="1677" d="M10 714q0 358 216 550q215 191 609 191q259 0 447 -85.5t287 -252t99 -403.5t-99 -404q-199 -335 -734 -335q-260 0 -447 85q-378 171 -378 654zM443 1643q0 53 33 87t85.5 34t85 -33.5t32.5 -83.5q-5 -61 -38.5 -92t-82.5 -31t-82 33t-33 86zM523 710q0 -139 62.5 -242 t246.5 -103q142 0 212.5 54t88 123.5t23.5 167.5q-6 139 -67 242.5t-257 103.5q-309 0 -309 -346zM1003 1643q0 53 33 87t85.5 34t85 -33.5t32.5 -83.5q-5 -61 -38.5 -92t-82.5 -31t-82 33t-33 86z" />
<glyph unicode="&#xf8;" horiz-adv-x="1677" d="M2 140l134 108q-126 227 -126 466q0 358 216 550q215 191 609 191q259 0 410 -71.5t201 -109.5l110 88l112 -150l-88 -78q88 -183 88 -420t-99 -404q-199 -335 -734 -335q-260 0 -555 149l-168 -132zM530 707q-6 -67 6 -135l520 400q0 76 -220 84q-320 0 -306 -349z M640 420q4 -48 188 -52q148 0 238 76t94 245v123z" />
<glyph unicode="&#xf9;" horiz-adv-x="1454" d="M10 596v848h470v-854q-6 -146 56 -203t194 -61q106 2 177 62t67 202v854h470v-847q-3 -180 -59.5 -287.5t-142.5 -179.5q-178 -148 -508 -156q-133 3 -270.5 36.5t-240 105.5t-158 185t-55.5 295zM203 1796h462l176 -318z" />
<glyph unicode="&#xfa;" horiz-adv-x="1454" d="M10 596v848h470v-854q-6 -146 56 -203t194 -61q106 2 177 62t67 202v854h470v-847q-3 -180 -59.5 -287.5t-142.5 -179.5q-178 -148 -508 -156q-133 3 -270.5 36.5t-240 105.5t-158 185t-55.5 295zM673 1478l176 318h462z" />
<glyph unicode="&#xfb;" horiz-adv-x="1454" d="M10 596v848h470v-854q-6 -146 56 -203t194 -61q106 2 177 62t67 202v854h470v-847q-3 -180 -59.5 -287.5t-142.5 -179.5q-178 -148 -508 -156q-133 3 -270.5 36.5t-240 105.5t-158 185t-55.5 295zM453 1476v62l287 300l290 -300v-66l-287 185z" />
<glyph unicode="&#xfc;" horiz-adv-x="1454" d="M10 596v848h470v-854q-6 -146 56 -203t194 -61q106 2 177 62t67 202v854h470v-847q-3 -180 -59.5 -287.5t-142.5 -179.5q-178 -148 -508 -156q-133 3 -270.5 36.5t-240 105.5t-158 185t-55.5 295zM379 1643q0 53 33 87t85.5 34t85 -33.5t32.5 -83.5q-5 -61 -38.5 -92 t-82.5 -31t-82 33t-33 86zM827 1647q0 53 33 87t85.5 34t85 -33.5t32.5 -83.5q-5 -61 -38.5 -92t-82.5 -31t-82 33t-33 86z" />
<glyph unicode="&#xfd;" horiz-adv-x="1472" d="M-130 1444h570l294 -446l298 446h570l-630 -914v-530h-472v530zM621 1478l176 318h462z" />
<glyph unicode="&#xfe;" horiz-adv-x="1378" d="M40 0v1444h470v-253q400 1 507.5 -28t181.5 -79q172 -116 172 -355q-16 -245 -172 -353q-158 -109 -449 -105l-240 1v-272h-470zM510 530l222 -1q131 0 198 73q29 33 37 117q-2 76 -33 113q-63 76 -204 76h-220v-378z" />
<glyph unicode="&#xff;" horiz-adv-x="1472" d="M-130 1444h570l294 -446l298 446h570l-630 -914v-530h-472v530zM379 1643q0 53 33 87t85.5 34t85 -33.5t32.5 -83.5q-5 -61 -38.5 -92t-82.5 -31t-82 33t-33 86zM827 1647q0 53 33 87t85.5 34t85 -33.5t32.5 -83.5q-5 -61 -38.5 -92t-82.5 -31t-82 33t-33 86z" />
<glyph unicode="&#x152;" horiz-adv-x="2062" d="M24 716q-14 326 216 534q206 186 592 194h1168v-430h-768v-166h496v-252h-496v-166h890v-430h-1366q-176 -8 -360 86t-280 244t-92 386zM523 710q0 -139 62.5 -242t246.5 -103v691q-309 0 -309 -346z" />
<glyph unicode="&#x153;" horiz-adv-x="2062" d="M24 716q-14 326 216 534q206 186 592 194h1168v-430h-768v-166h496v-252h-496v-166h890v-430h-1366q-176 -8 -360 86t-280 244t-92 386zM523 710q0 -139 62.5 -242t246.5 -103v691q-309 0 -309 -346z" />
<glyph unicode="&#x178;" horiz-adv-x="1472" d="M-130 1444h570l294 -446l298 446h570l-630 -914v-530h-472v530zM379 1643q0 53 33 87t85.5 34t85 -33.5t32.5 -83.5q-5 -61 -38.5 -92t-82.5 -31t-82 33t-33 86zM827 1647q0 53 33 87t85.5 34t85 -33.5t32.5 -83.5q-5 -61 -38.5 -92t-82.5 -31t-82 33t-33 86z" />
<glyph unicode="&#x2000;" horiz-adv-x="1249" />
<glyph unicode="&#x2001;" horiz-adv-x="2498" />
<glyph unicode="&#x2002;" horiz-adv-x="1249" />
<glyph unicode="&#x2003;" horiz-adv-x="2498" />
<glyph unicode="&#x2004;" horiz-adv-x="832" />
<glyph unicode="&#x2005;" horiz-adv-x="624" />
<glyph unicode="&#x2006;" horiz-adv-x="416" />
<glyph unicode="&#x2007;" horiz-adv-x="416" />
<glyph unicode="&#x2008;" horiz-adv-x="312" />
<glyph unicode="&#x2009;" horiz-adv-x="499" />
<glyph unicode="&#x200a;" horiz-adv-x="138" />
<glyph unicode="&#x2010;" horiz-adv-x="758" d="M92 377v360h574v-360h-574z" />
<glyph unicode="&#x2011;" horiz-adv-x="758" d="M92 377v360h574v-360h-574z" />
<glyph unicode="&#x2012;" horiz-adv-x="758" d="M92 377v360h574v-360h-574z" />
<glyph unicode="&#x2013;" horiz-adv-x="1208" d="M92 377v360h1024v-360h-1024z" />
<glyph unicode="&#x2014;" horiz-adv-x="2232" d="M92 377v360h2048v-360h-2048z" />
<glyph unicode="&#x2018;" horiz-adv-x="647" d="M170 1128v316h307l-1 -630zM474 816z" />
<glyph unicode="&#x2019;" horiz-adv-x="647" d="M168 815zM170 813v631h307v-315z" />
<glyph unicode="&#x201c;" horiz-adv-x="1139" d="M197 1128v316h307v-630zM502 816zM635 1128v316h307v-630zM940 816z" />
<glyph unicode="&#x201d;" horiz-adv-x="1139" d="M195 815zM197 813v631h307v-315zM633 815zM635 813v631h307v-315z" />
<glyph unicode="&#x201e;" horiz-adv-x="1649" d="M10 743q0 176 67.5 313.5t186.5 229.5q237 182 602 182q153 -4 315 -56t252 -142q130 -130 188 -346h-436q-74 124 -142 152t-148 28t-148 -26t-108 -70t-72 -106t-36 -186q0 -132 50 -208t112 -112t163 -46t180 15t147 113h-194v254h660v-732h-348v118 q-101 -143 -435 -143q-356 -6 -601 193q-118 96 -186.5 210.5t-68.5 364.5z" />
<glyph unicode="&#x202f;" horiz-adv-x="499" />
<glyph unicode="&#x205f;" horiz-adv-x="624" />
<glyph unicode="&#xe000;" horiz-adv-x="1445" d="M0 0v1445h1445v-1445h-1445z" />
</font>
</defs>
</svg>
